<svg width="434" height="269" viewBox="0 0 434 269" fill="none" xmlns="http://www.w3.org/2000/svg">
<rect x="352.364" y="244.579" width="27.8927" height="8.04766" fill="#86D4C8"/>
<path opacity="0.2" d="M61.6211 0.00628662H52.6143V8.93219H61.6211V0.00628662Z" fill="#0CB33E"/>
<path opacity="0.2" d="M73.9287 0.00628662H64.9219V8.93219H73.9287V0.00628662Z" fill="#0CB33E"/>
<path opacity="0.2" d="M86.2422 0.00628662H77.2354V8.93219H86.2422V0.00628662Z" fill="#0CB33E"/>
<path opacity="0.2" d="M98.5489 0.00628662H89.542V8.93219H98.5489V0.00628662Z" fill="#0CB33E"/>
<path opacity="0.2" d="M110.861 0.00628662H101.854V8.93219H110.861V0.00628662Z" fill="#0CB33E"/>
<path d="M123.171 0.00628662H114.164V8.93219H123.171V0.00628662Z" fill="#0CB33E"/>
<path opacity="0.2" d="M135.48 0.00628662H126.474V8.93219H135.48V0.00628662Z" fill="#0CB33E"/>
<path opacity="0.2" d="M147.792 0.00628662H138.785V8.93219H147.792V0.00628662Z" fill="#0CB33E"/>
<path opacity="0.2" d="M160.1 0.00628662H151.093V8.93219H160.1V0.00628662Z" fill="#0CB33E"/>
<path d="M172.411 0.00628662H163.404V8.93219H172.411V0.00628662Z" fill="#0CB33E"/>
<path opacity="0.2" d="M184.723 0.00628662H175.716V8.93219H184.723V0.00628662Z" fill="#0CB33E"/>
<path opacity="0.2" d="M197.032 0.00628662H188.025V8.93219H197.032V0.00628662Z" fill="#0CB33E"/>
<path opacity="0.2" d="M209.343 0.00628662H200.336V8.93219H209.343V0.00628662Z" fill="#0CB33E"/>
<path opacity="0.2" d="M221.654 0.00628662H212.647V8.93219H221.654V0.00628662Z" fill="#0CB33E"/>
<path opacity="0.2" d="M233.963 0.00628662H224.956V8.93219H233.963V0.00628662Z" fill="#0CB33E"/>
<path opacity="0.2" d="M246.274 0.00628662H237.268V8.93219H246.274V0.00628662Z" fill="#0CB33E"/>
<path d="M258.582 0.00628662H249.575V8.93219H258.582V0.00628662Z" fill="#0CB33E"/>
<path d="M270.895 0.00628662H261.888V8.93219H270.895V0.00628662Z" fill="#0CB33E"/>
<path opacity="0.2" d="M283.205 0.00628662H274.198V8.93219H283.205V0.00628662Z" fill="#0CB33E"/>
<path opacity="0.2" d="M295.513 0.00628662H286.506V8.93219H295.513V0.00628662Z" fill="#0CB33E"/>
<path d="M307.825 0.00628662H298.818V8.93219H307.825V0.00628662Z" fill="#0CB33E"/>
<path d="M320.133 0.00628662H311.126V8.93219H320.133V0.00628662Z" fill="#0CB33E"/>
<path d="M61.6211 11.3123H52.6143V20.2382H61.6211V11.3123Z" fill="#0CB33E"/>
<path opacity="0.2" d="M73.9287 11.3123H64.9219V20.2382H73.9287V11.3123Z" fill="#0CB33E"/>
<path opacity="0.7" d="M86.2422 11.3123H77.2354V20.2382H86.2422V11.3123Z" fill="#0CB33E"/>
<path opacity="0.2" d="M98.5489 11.3123H89.542V20.2382H98.5489V11.3123Z" fill="#0CB33E"/>
<path opacity="0.4" d="M110.861 11.3123H101.854V20.2382H110.861V11.3123Z" fill="#0CB33E"/>
<path d="M123.171 11.3123H114.164V20.2382H123.171V11.3123Z" fill="#0CB33E"/>
<path opacity="0.4" d="M135.48 11.3123H126.474V20.2382H135.48V11.3123Z" fill="#0CB33E"/>
<path opacity="0.2" d="M147.792 11.3123H138.785V20.2382H147.792V11.3123Z" fill="#0CB33E"/>
<path opacity="0.4" d="M160.1 11.3123H151.093V20.2382H160.1V11.3123Z" fill="#0CB33E"/>
<path d="M172.411 11.3123H163.404V20.2382H172.411V11.3123Z" fill="#0CB33E"/>
<path opacity="0.4" d="M184.723 11.3123H175.716V20.2382H184.723V11.3123Z" fill="#0CB33E"/>
<path opacity="0.4" d="M197.032 11.3123H188.025V20.2382H197.032V11.3123Z" fill="#0CB33E"/>
<path opacity="0.2" d="M209.343 11.3123H200.336V20.2382H209.343V11.3123Z" fill="#0CB33E"/>
<path opacity="0.4" d="M221.654 11.3123H212.647V20.2382H221.654V11.3123Z" fill="#0CB33E"/>
<path opacity="0.4" d="M233.963 11.3123H224.956V20.2382H233.963V11.3123Z" fill="#0CB33E"/>
<path opacity="0.2" d="M246.274 11.3123H237.268V20.2382H246.274V11.3123Z" fill="#0CB33E"/>
<path opacity="0.2" d="M258.582 11.3123H249.575V20.2382H258.582V11.3123Z" fill="#0CB33E"/>
<path opacity="0.4" d="M270.895 11.3123H261.888V20.2382H270.895V11.3123Z" fill="#0CB33E"/>
<path opacity="0.2" d="M283.205 11.3123H274.198V20.2382H283.205V11.3123Z" fill="#0CB33E"/>
<path d="M295.513 11.3123H286.506V20.2382H295.513V11.3123Z" fill="#0CB33E"/>
<path d="M307.825 11.3123H298.818V20.2382H307.825V11.3123Z" fill="#0CB33E"/>
<path d="M320.133 11.3123H311.126V20.2382H320.133V11.3123Z" fill="#0CB33E"/>
<path d="M61.6211 22.6211H52.6143V31.547H61.6211V22.6211Z" fill="#0CB33E"/>
<path opacity="0.7" d="M73.9287 22.6211H64.9219V31.547H73.9287V22.6211Z" fill="#0CB33E"/>
<path opacity="0.7" d="M86.2422 22.6211H77.2354V31.547H86.2422V22.6211Z" fill="#0CB33E"/>
<path opacity="0.2" d="M98.5489 22.6211H89.542V31.547H98.5489V22.6211Z" fill="#0CB33E"/>
<path opacity="0.4" d="M110.861 22.6211H101.854V31.547H110.861V22.6211Z" fill="#0CB33E"/>
<path opacity="0.4" d="M123.171 22.6211H114.164V31.547H123.171V22.6211Z" fill="#0CB33E"/>
<path d="M135.48 22.6211H126.474V31.547H135.48V22.6211Z" fill="#0CB33E"/>
<path opacity="0.2" d="M147.792 22.6211H138.785V31.547H147.792V22.6211Z" fill="#0CB33E"/>
<path opacity="0.4" d="M160.1 22.6211H151.093V31.547H160.1V22.6211Z" fill="#0CB33E"/>
<path d="M172.411 22.6211H163.404V31.547H172.411V22.6211Z" fill="#0CB33E"/>
<path opacity="0.2" d="M184.723 22.6211H175.716V31.547H184.723V22.6211Z" fill="#0CB33E"/>
<path opacity="0.4" d="M197.032 22.6211H188.025V31.547H197.032V22.6211Z" fill="#0CB33E"/>
<path opacity="0.2" d="M209.343 22.6211H200.336V31.547H209.343V22.6211Z" fill="#0CB33E"/>
<path d="M221.654 22.6211H212.647V31.547H221.654V22.6211Z" fill="#0CB33E"/>
<path opacity="0.2" d="M233.963 22.6211H224.956V31.547H233.963V22.6211Z" fill="#0CB33E"/>
<path opacity="0.7" d="M246.274 22.6211H237.268V31.547H246.274V22.6211Z" fill="#0CB33E"/>
<path opacity="0.7" d="M258.582 22.6211H249.575V31.547H258.582V22.6211Z" fill="#0CB33E"/>
<path opacity="0.4" d="M270.895 22.6211H261.888V31.547H270.895V22.6211Z" fill="#0CB33E"/>
<path opacity="0.2" d="M283.205 22.6211H274.198V31.547H283.205V22.6211Z" fill="#0CB33E"/>
<path d="M295.513 22.6211H286.506V31.547H295.513V22.6211Z" fill="#0CB33E"/>
<path d="M307.825 22.6211H298.818V31.547H307.825V22.6211Z" fill="#0CB33E"/>
<path d="M320.133 22.6211H311.126V31.547H320.133V22.6211Z" fill="#0CB33E"/>
<path d="M61.6211 33.9258H52.6143V42.8517H61.6211V33.9258Z" fill="#0CB33E"/>
<path opacity="0.7" d="M73.9287 33.9258H64.9219V42.8517H73.9287V33.9258Z" fill="#0CB33E"/>
<path opacity="0.7" d="M86.2422 33.9258H77.2354V42.8517H86.2422V33.9258Z" fill="#0CB33E"/>
<path opacity="0.2" d="M98.5489 33.9258H89.542V42.8517H98.5489V33.9258Z" fill="#0CB33E"/>
<path opacity="0.2" d="M110.861 33.9258H101.854V42.8517H110.861V33.9258Z" fill="#0CB33E"/>
<path opacity="0.4" d="M123.171 33.9258H114.164V42.8517H123.171V33.9258Z" fill="#0CB33E"/>
<path opacity="0.4" d="M135.48 33.9258H126.474V42.8517H135.48V33.9258Z" fill="#0CB33E"/>
<path d="M147.792 33.9258H138.785V42.8517H147.792V33.9258Z" fill="#0CB33E"/>
<path opacity="0.2" d="M160.1 33.9258H151.093V42.8517H160.1V33.9258Z" fill="#0CB33E"/>
<path opacity="0.4" d="M172.411 33.9258H163.404V42.8517H172.411V33.9258Z" fill="#0CB33E"/>
<path opacity="0.4" d="M184.723 33.9258H175.716V42.8517H184.723V33.9258Z" fill="#0CB33E"/>
<path opacity="0.4" d="M197.032 33.9258H188.025V42.8517H197.032V33.9258Z" fill="#0CB33E"/>
<path opacity="0.4" d="M209.343 33.9258H200.336V42.8517H209.343V33.9258Z" fill="#0CB33E"/>
<path opacity="0.2" d="M221.654 33.9258H212.647V42.8517H221.654V33.9258Z" fill="#0CB33E"/>
<path opacity="0.2" d="M233.963 33.9258H224.956V42.8517H233.963V33.9258Z" fill="#0CB33E"/>
<path opacity="0.2" d="M246.274 33.9258H237.268V42.8517H246.274V33.9258Z" fill="#0CB33E"/>
<path opacity="0.2" d="M258.582 33.9258H249.575V42.8517H258.582V33.9258Z" fill="#0CB33E"/>
<path opacity="0.7" d="M270.895 33.9258H261.888V42.8517H270.895V33.9258Z" fill="#0CB33E"/>
<path opacity="0.7" d="M283.205 33.9258H274.198V42.8517H283.205V33.9258Z" fill="#0CB33E"/>
<path opacity="0.4" d="M295.513 33.9258H286.506V42.8517H295.513V33.9258Z" fill="#0CB33E"/>
<path opacity="0.2" d="M307.825 33.9258H298.818V42.8517H307.825V33.9258Z" fill="#0CB33E"/>
<path d="M320.133 33.9258H311.126V42.8517H320.133V33.9258Z" fill="#0CB33E"/>
<path opacity="0.2" d="M61.6211 45.2346H52.6143V54.1605H61.6211V45.2346Z" fill="#0CB33E"/>
<path opacity="0.7" d="M73.9287 45.2346H64.9219V54.1605H73.9287V45.2346Z" fill="#0CB33E"/>
<path opacity="0.7" d="M86.2422 45.2346H77.2354V54.1605H86.2422V45.2346Z" fill="#0CB33E"/>
<path opacity="0.2" d="M98.5489 45.2346H89.542V54.1605H98.5489V45.2346Z" fill="#0CB33E"/>
<path opacity="0.2" d="M110.861 45.2346H101.854V54.1605H110.861V45.2346Z" fill="#0CB33E"/>
<path opacity="0.4" d="M123.171 45.2346H114.164V54.1605H123.171V45.2346Z" fill="#0CB33E"/>
<path d="M135.48 45.2346H126.474V54.1605H135.48V45.2346Z" fill="#0CB33E"/>
<path opacity="0.2" d="M147.792 45.2346H138.785V54.1605H147.792V45.2346Z" fill="#0CB33E"/>
<path d="M160.1 45.2346H151.093V54.1605H160.1V45.2346Z" fill="#0CB33E"/>
<path d="M172.411 45.2346H163.404V54.1605H172.411V45.2346Z" fill="#0CB33E"/>
<path d="M184.723 45.2346H175.716V54.1605H184.723V45.2346Z" fill="#0CB33E"/>
<path opacity="0.2" d="M197.032 45.2346H188.025V54.1605H197.032V45.2346Z" fill="#0CB33E"/>
<path d="M209.343 45.2346H200.336V54.1605H209.343V45.2346Z" fill="#0CB33E"/>
<path opacity="0.2" d="M221.654 45.2346H212.647V54.1605H221.654V45.2346Z" fill="#0CB33E"/>
<path opacity="0.2" d="M233.963 45.2346H224.956V54.1605H233.963V45.2346Z" fill="#0CB33E"/>
<path opacity="0.2" d="M246.274 45.2346H237.268V54.1605H246.274V45.2346Z" fill="#0CB33E"/>
<path opacity="0.2" d="M258.582 45.2346H249.575V54.1605H258.582V45.2346Z" fill="#0CB33E"/>
<path opacity="0.2" d="M270.895 45.2346H261.888V54.1605H270.895V45.2346Z" fill="#0CB33E"/>
<path opacity="0.7" d="M283.205 45.2346H274.198V54.1605H283.205V45.2346Z" fill="#0CB33E"/>
<path opacity="0.2" d="M295.513 45.2346H286.506V54.1605H295.513V45.2346Z" fill="#0CB33E"/>
<path opacity="0.2" d="M307.825 45.2346H298.818V54.1605H307.825V45.2346Z" fill="#0CB33E"/>
<path d="M320.133 45.2346H311.126V54.1605H320.133V45.2346Z" fill="#0CB33E"/>
<path opacity="0.2" d="M61.6211 56.54H52.6143V65.4659H61.6211V56.54Z" fill="#0CB33E"/>
<path opacity="0.2" d="M73.9287 56.54H64.9219V65.4659H73.9287V56.54Z" fill="#0CB33E"/>
<path opacity="0.7" d="M86.2422 56.54H77.2354V65.4659H86.2422V56.54Z" fill="#0CB33E"/>
<path opacity="0.2" d="M98.5489 56.54H89.542V65.4659H98.5489V56.54Z" fill="#0CB33E"/>
<path opacity="0.2" d="M110.861 56.54H101.854V65.4659H110.861V56.54Z" fill="#0CB33E"/>
<path opacity="0.2" d="M123.171 56.54H114.164V65.4659H123.171V56.54Z" fill="#0CB33E"/>
<path d="M135.48 56.54H126.474V65.4659H135.48V56.54Z" fill="#0CB33E"/>
<path opacity="0.2" d="M147.792 56.54H138.785V65.4659H147.792V56.54Z" fill="#0CB33E"/>
<path d="M160.1 56.54H151.093V65.4659H160.1V56.54Z" fill="#0CB33E"/>
<path d="M172.411 56.54H163.404V65.4659H172.411V56.54Z" fill="#0CB33E"/>
<path opacity="0.2" d="M184.723 56.54H175.716V65.4659H184.723V56.54Z" fill="#0CB33E"/>
<path opacity="0.2" d="M197.032 56.54H188.025V65.4659H197.032V56.54Z" fill="#0CB33E"/>
<path opacity="0.2" d="M209.343 56.54H200.336V65.4659H209.343V56.54Z" fill="#0CB33E"/>
<path opacity="0.2" d="M221.654 56.54H212.647V65.4659H221.654V56.54Z" fill="#0CB33E"/>
<path opacity="0.2" d="M233.963 56.54H224.956V65.4659H233.963V56.54Z" fill="#0CB33E"/>
<path opacity="0.2" d="M246.274 56.54H237.268V65.4659H246.274V56.54Z" fill="#0CB33E"/>
<path opacity="0.2" d="M258.582 56.54H249.575V65.4659H258.582V56.54Z" fill="#0CB33E"/>
<path opacity="0.2" d="M270.895 56.54H261.888V65.4659H270.895V56.54Z" fill="#0CB33E"/>
<path opacity="0.2" d="M283.205 56.54H274.198V65.4659H283.205V56.54Z" fill="#0CB33E"/>
<path opacity="0.2" d="M295.513 56.54H286.506V65.4659H295.513V56.54Z" fill="#0CB33E"/>
<path opacity="0.4" d="M307.825 56.54H298.818V65.4659H307.825V56.54Z" fill="#0CB33E"/>
<path d="M320.133 56.54H311.126V65.4659H320.133V56.54Z" fill="#0CB33E"/>
<path opacity="0.7" d="M61.6211 67.8489H52.6143V76.7748H61.6211V67.8489Z" fill="#0CB33E"/>
<path opacity="0.2" d="M73.9287 67.8489H64.9219V76.7748H73.9287V67.8489Z" fill="#0CB33E"/>
<path opacity="0.2" d="M86.2422 67.8489H77.2354V76.7748H86.2422V67.8489Z" fill="#0CB33E"/>
<path opacity="0.2" d="M98.5489 67.8489H89.542V76.7748H98.5489V67.8489Z" fill="#0CB33E"/>
<path opacity="0.2" d="M61.6211 0.00628662H52.6143V8.93219H61.6211V0.00628662Z" fill="#0CB33E"/>
<path opacity="0.2" d="M73.9287 0.00628662H64.9219V8.93219H73.9287V0.00628662Z" fill="#0CB33E"/>
<path opacity="0.2" d="M86.2422 0.00628662H77.2354V8.93219H86.2422V0.00628662Z" fill="#0CB33E"/>
<path opacity="0.2" d="M98.5489 0.00628662H89.542V8.93219H98.5489V0.00628662Z" fill="#0CB33E"/>
<path d="M61.6211 11.3123H52.6143V20.2382H61.6211V11.3123Z" fill="#0CB33E"/>
<path opacity="0.2" d="M73.9287 11.3123H64.9219V20.2382H73.9287V11.3123Z" fill="#0CB33E"/>
<path opacity="0.7" d="M86.2422 11.3123H77.2354V20.2382H86.2422V11.3123Z" fill="#0CB33E"/>
<path opacity="0.2" d="M98.5489 11.3123H89.542V20.2382H98.5489V11.3123Z" fill="#0CB33E"/>
<path d="M61.6211 22.6211H52.6143V31.547H61.6211V22.6211Z" fill="#0CB33E"/>
<path opacity="0.7" d="M73.9287 22.6211H64.9219V31.547H73.9287V22.6211Z" fill="#0CB33E"/>
<path opacity="0.7" d="M86.2422 22.6211H77.2354V31.547H86.2422V22.6211Z" fill="#0CB33E"/>
<path opacity="0.2" d="M98.5489 22.6211H89.542V31.547H98.5489V22.6211Z" fill="#0CB33E"/>
<path d="M61.6211 33.9258H52.6143V42.8517H61.6211V33.9258Z" fill="#0CB33E"/>
<path opacity="0.7" d="M73.9287 33.9258H64.9219V42.8517H73.9287V33.9258Z" fill="#0CB33E"/>
<path opacity="0.7" d="M86.2422 33.9258H77.2354V42.8517H86.2422V33.9258Z" fill="#0CB33E"/>
<path opacity="0.2" d="M98.5489 33.9258H89.542V42.8517H98.5489V33.9258Z" fill="#0CB33E"/>
<path opacity="0.2" d="M61.6211 45.2346H52.6143V54.1605H61.6211V45.2346Z" fill="#0CB33E"/>
<path opacity="0.7" d="M73.9287 45.2346H64.9219V54.1605H73.9287V45.2346Z" fill="#0CB33E"/>
<path opacity="0.7" d="M86.2422 45.2346H77.2354V54.1605H86.2422V45.2346Z" fill="#0CB33E"/>
<path opacity="0.2" d="M98.5489 45.2346H89.542V54.1605H98.5489V45.2346Z" fill="#0CB33E"/>
<path opacity="0.2" d="M61.6211 56.54H52.6143V65.4659H61.6211V56.54Z" fill="#0CB33E"/>
<path opacity="0.2" d="M73.9287 56.54H64.9219V65.4659H73.9287V56.54Z" fill="#0CB33E"/>
<path opacity="0.7" d="M86.2422 56.54H77.2354V65.4659H86.2422V56.54Z" fill="#0CB33E"/>
<path opacity="0.2" d="M98.5489 56.54H89.542V65.4659H98.5489V56.54Z" fill="#0CB33E"/>
<path opacity="0.7" d="M61.6211 67.8489H52.6143V76.7748H61.6211V67.8489Z" fill="#0CB33E"/>
<path opacity="0.2" d="M73.9287 67.8489H64.9219V76.7748H73.9287V67.8489Z" fill="#0CB33E"/>
<path opacity="0.2" d="M86.2422 67.8489H77.2354V76.7748H86.2422V67.8489Z" fill="#0CB33E"/>
<path opacity="0.2" d="M98.5489 67.8489H89.542V76.7748H98.5489V67.8489Z" fill="#0CB33E"/>
<path opacity="0.2" d="M12.5362 0H3.5293V8.92591H12.5362V0Z" fill="#0CB33E"/>
<path opacity="0.2" d="M24.8448 0H15.8379V8.92591H24.8448V0Z" fill="#0CB33E"/>
<path opacity="0.2" d="M37.1573 0H28.1504V8.92591H37.1573V0Z" fill="#0CB33E"/>
<path opacity="0.2" d="M49.4639 0H40.457V8.92591H49.4639V0Z" fill="#0CB33E"/>
<path d="M12.5362 11.3054H3.5293V20.2313H12.5362V11.3054Z" fill="#0CB33E"/>
<path opacity="0.2" d="M24.8448 11.3054H15.8379V20.2313H24.8448V11.3054Z" fill="#0CB33E"/>
<path opacity="0.7" d="M37.1573 11.3054H28.1504V20.2313H37.1573V11.3054Z" fill="#0CB33E"/>
<path opacity="0.2" d="M49.4639 11.3054H40.457V20.2313H49.4639V11.3054Z" fill="#0CB33E"/>
<path d="M12.5362 22.6143H3.5293V31.5402H12.5362V22.6143Z" fill="#0CB33E"/>
<path opacity="0.7" d="M24.8448 22.6143H15.8379V31.5402H24.8448V22.6143Z" fill="#0CB33E"/>
<path opacity="0.7" d="M37.1573 22.6143H28.1504V31.5402H37.1573V22.6143Z" fill="#0CB33E"/>
<path opacity="0.2" d="M49.4639 22.6143H40.457V31.5402H49.4639V22.6143Z" fill="#0CB33E"/>
<path d="M12.5362 33.9189H3.5293V42.8448H12.5362V33.9189Z" fill="#0CB33E"/>
<path opacity="0.7" d="M24.8448 33.9189H15.8379V42.8448H24.8448V33.9189Z" fill="#0CB33E"/>
<path opacity="0.7" d="M37.1573 33.9189H28.1504V42.8448H37.1573V33.9189Z" fill="#0CB33E"/>
<path opacity="0.2" d="M49.4639 33.9189H40.457V42.8448H49.4639V33.9189Z" fill="#0CB33E"/>
<path opacity="0.2" d="M12.5362 45.2278H3.5293V54.1537H12.5362V45.2278Z" fill="#0CB33E"/>
<path opacity="0.7" d="M24.8448 45.2278H15.8379V54.1537H24.8448V45.2278Z" fill="#0CB33E"/>
<path opacity="0.7" d="M37.1573 45.2278H28.1504V54.1537H37.1573V45.2278Z" fill="#0CB33E"/>
<path opacity="0.2" d="M49.4639 45.2278H40.457V54.1537H49.4639V45.2278Z" fill="#0CB33E"/>
<path opacity="0.2" d="M12.5362 56.5332H3.5293V65.4591H12.5362V56.5332Z" fill="#0CB33E"/>
<path opacity="0.2" d="M24.8448 56.5332H15.8379V65.4591H24.8448V56.5332Z" fill="#0CB33E"/>
<path opacity="0.7" d="M37.1573 56.5332H28.1504V65.4591H37.1573V56.5332Z" fill="#0CB33E"/>
<path opacity="0.2" d="M49.4639 56.5332H40.457V65.4591H49.4639V56.5332Z" fill="#0CB33E"/>
<path opacity="0.7" d="M12.5362 67.842H3.5293V76.7679H12.5362V67.842Z" fill="#0CB33E"/>
<path opacity="0.2" d="M24.8448 67.842H15.8379V76.7679H24.8448V67.842Z" fill="#0CB33E"/>
<path opacity="0.2" d="M37.1573 67.842H28.1504V76.7679H37.1573V67.842Z" fill="#0CB33E"/>
<path opacity="0.2" d="M49.4639 67.842H40.457V76.7679H49.4639V67.842Z" fill="#0CB33E"/>
<path opacity="0.2" d="M110.861 67.8489H101.854V76.7748H110.861V67.8489Z" fill="#0CB33E"/>
<path opacity="0.2" d="M123.171 67.8489H114.164V76.7748H123.171V67.8489Z" fill="#0CB33E"/>
<path opacity="0.2" d="M135.48 67.8489H126.474V76.7748H135.48V67.8489Z" fill="#0CB33E"/>
<path d="M147.792 67.8489H138.785V76.7748H147.792V67.8489Z" fill="#0CB33E"/>
<path opacity="0.2" d="M160.1 67.8489H151.093V76.7748H160.1V67.8489Z" fill="#0CB33E"/>
<path opacity="0.2" d="M172.411 67.8489H163.404V76.7748H172.411V67.8489Z" fill="#0CB33E"/>
<path opacity="0.2" d="M332.419 0H323.412V8.92591H332.419V0Z" fill="#0CB33E"/>
<path opacity="0.2" d="M344.731 0H335.725V8.92591H344.731V0Z" fill="#0CB33E"/>
<path opacity="0.2" d="M357.04 0H348.033V8.92591H357.04V0Z" fill="#0CB33E"/>
<path opacity="0.2" d="M369.351 0H360.344V8.92591H369.351V0Z" fill="#0CB33E"/>
<path d="M381.663 0H372.656V8.92591H381.663V0Z" fill="#0CB33E"/>
<path opacity="0.2" d="M393.972 0H384.965V8.92591H393.972V0Z" fill="#0CB33E"/>
<path opacity="0.2" d="M406.282 0H397.275V8.92591H406.282V0Z" fill="#0CB33E"/>
<path opacity="0.2" d="M418.591 0H409.584V8.92591H418.591V0Z" fill="#0CB33E"/>
<path d="M430.902 0H421.896V8.92591H430.902V0Z" fill="#0CB33E"/>
<path opacity="0.2" d="M332.419 11.3054H323.412V20.2313H332.419V11.3054Z" fill="#0CB33E"/>
<path opacity="0.7" d="M344.731 11.3054H335.725V20.2313H344.731V11.3054Z" fill="#0CB33E"/>
<path opacity="0.2" d="M357.04 11.3054H348.033V20.2313H357.04V11.3054Z" fill="#0CB33E"/>
<path opacity="0.4" d="M369.351 11.3054H360.344V20.2313H369.351V11.3054Z" fill="#0CB33E"/>
<path d="M381.663 11.3054H372.656V20.2313H381.663V11.3054Z" fill="#0CB33E"/>
<path opacity="0.4" d="M393.972 11.3054H384.965V20.2313H393.972V11.3054Z" fill="#0CB33E"/>
<path opacity="0.2" d="M406.282 11.3054H397.275V20.2313H406.282V11.3054Z" fill="#0CB33E"/>
<path opacity="0.4" d="M418.591 11.3054H409.584V20.2313H418.591V11.3054Z" fill="#0CB33E"/>
<path d="M430.902 11.3054H421.896V20.2313H430.902V11.3054Z" fill="#0CB33E"/>
<path opacity="0.7" d="M332.419 22.6143H323.412V31.5402H332.419V22.6143Z" fill="#0CB33E"/>
<path opacity="0.7" d="M344.731 22.6143H335.725V31.5402H344.731V22.6143Z" fill="#0CB33E"/>
<path opacity="0.2" d="M357.04 22.6143H348.033V31.5402H357.04V22.6143Z" fill="#0CB33E"/>
<path opacity="0.4" d="M369.351 22.6143H360.344V31.5402H369.351V22.6143Z" fill="#0CB33E"/>
<path opacity="0.4" d="M381.663 22.6143H372.656V31.5402H381.663V22.6143Z" fill="#0CB33E"/>
<path d="M393.972 22.6143H384.965V31.5402H393.972V22.6143Z" fill="#0CB33E"/>
<path opacity="0.2" d="M406.282 22.6143H397.275V31.5402H406.282V22.6143Z" fill="#0CB33E"/>
<path opacity="0.4" d="M418.591 22.6143H409.584V31.5402H418.591V22.6143Z" fill="#0CB33E"/>
<path d="M430.902 22.6143H421.896V31.5402H430.902V22.6143Z" fill="#0CB33E"/>
<path opacity="0.7" d="M332.419 33.9189H323.412V42.8448H332.419V33.9189Z" fill="#0CB33E"/>
<path opacity="0.7" d="M344.731 33.9189H335.725V42.8448H344.731V33.9189Z" fill="#0CB33E"/>
<path opacity="0.2" d="M357.04 33.9189H348.033V42.8448H357.04V33.9189Z" fill="#0CB33E"/>
<path opacity="0.2" d="M369.351 33.9189H360.344V42.8448H369.351V33.9189Z" fill="#0CB33E"/>
<path opacity="0.4" d="M381.663 33.9189H372.656V42.8448H381.663V33.9189Z" fill="#0CB33E"/>
<path opacity="0.4" d="M393.972 33.9189H384.965V42.8448H393.972V33.9189Z" fill="#0CB33E"/>
<path d="M406.282 33.9189H397.275V42.8448H406.282V33.9189Z" fill="#0CB33E"/>
<path opacity="0.2" d="M418.591 33.9189H409.584V42.8448H418.591V33.9189Z" fill="#0CB33E"/>
<path opacity="0.4" d="M430.902 33.9189H421.896V42.8448H430.902V33.9189Z" fill="#0CB33E"/>
<path opacity="0.7" d="M332.419 45.2278H323.412V54.1537H332.419V45.2278Z" fill="#0CB33E"/>
<path opacity="0.7" d="M344.731 45.2278H335.725V54.1537H344.731V45.2278Z" fill="#0CB33E"/>
<path opacity="0.2" d="M357.04 45.2278H348.033V54.1537H357.04V45.2278Z" fill="#0CB33E"/>
<path opacity="0.2" d="M369.351 45.2278H360.344V54.1537H369.351V45.2278Z" fill="#0CB33E"/>
<path opacity="0.4" d="M381.663 45.2278H372.656V54.1537H381.663V45.2278Z" fill="#0CB33E"/>
<path d="M393.972 45.2278H384.965V54.1537H393.972V45.2278Z" fill="#0CB33E"/>
<path opacity="0.2" d="M406.282 45.2278H397.275V54.1537H406.282V45.2278Z" fill="#0CB33E"/>
<path d="M418.591 45.2278H409.584V54.1537H418.591V45.2278Z" fill="#0CB33E"/>
<path d="M430.902 45.2278H421.896V54.1537H430.902V45.2278Z" fill="#0CB33E"/>
<path opacity="0.2" d="M332.419 56.5332H323.412V65.4591H332.419V56.5332Z" fill="#0CB33E"/>
<path opacity="0.7" d="M344.731 56.5332H335.725V65.4591H344.731V56.5332Z" fill="#0CB33E"/>
<path opacity="0.2" d="M357.04 56.5332H348.033V65.4591H357.04V56.5332Z" fill="#0CB33E"/>
<path opacity="0.2" d="M369.351 56.5332H360.344V65.4591H369.351V56.5332Z" fill="#0CB33E"/>
<path opacity="0.2" d="M381.663 56.5332H372.656V65.4591H381.663V56.5332Z" fill="#0CB33E"/>
<path d="M393.972 56.5332H384.965V65.4591H393.972V56.5332Z" fill="#0CB33E"/>
<path opacity="0.2" d="M406.282 56.5332H397.275V65.4591H406.282V56.5332Z" fill="#0CB33E"/>
<path d="M418.591 56.5332H409.584V65.4591H418.591V56.5332Z" fill="#0CB33E"/>
<path d="M430.902 56.5332H421.896V65.4591H430.902V56.5332Z" fill="#0CB33E"/>
<path opacity="0.2" d="M332.419 67.842H323.412V76.7679H332.419V67.842Z" fill="#0CB33E"/>
<path opacity="0.2" d="M344.731 67.842H335.725V76.7679H344.731V67.842Z" fill="#0CB33E"/>
<path opacity="0.2" d="M357.04 67.842H348.033V76.7679H357.04V67.842Z" fill="#0CB33E"/>
<path opacity="0.2" d="M332.419 0H323.412V8.92591H332.419V0Z" fill="#0CB33E"/>
<path opacity="0.2" d="M344.731 0H335.725V8.92591H344.731V0Z" fill="#0CB33E"/>
<path opacity="0.2" d="M357.04 0H348.033V8.92591H357.04V0Z" fill="#0CB33E"/>
<path opacity="0.2" d="M332.419 11.3054H323.412V20.2313H332.419V11.3054Z" fill="#0CB33E"/>
<path opacity="0.7" d="M344.731 11.3054H335.725V20.2313H344.731V11.3054Z" fill="#0CB33E"/>
<path opacity="0.2" d="M357.04 11.3054H348.033V20.2313H357.04V11.3054Z" fill="#0CB33E"/>
<path opacity="0.7" d="M332.419 22.6143H323.412V31.5402H332.419V22.6143Z" fill="#0CB33E"/>
<path opacity="0.7" d="M344.731 22.6143H335.725V31.5402H344.731V22.6143Z" fill="#0CB33E"/>
<path opacity="0.2" d="M357.04 22.6143H348.033V31.5402H357.04V22.6143Z" fill="#0CB33E"/>
<path opacity="0.7" d="M332.419 33.9189H323.412V42.8448H332.419V33.9189Z" fill="#0CB33E"/>
<path opacity="0.7" d="M344.731 33.9189H335.725V42.8448H344.731V33.9189Z" fill="#0CB33E"/>
<path opacity="0.2" d="M357.04 33.9189H348.033V42.8448H357.04V33.9189Z" fill="#0CB33E"/>
<path opacity="0.7" d="M332.419 45.2278H323.412V54.1537H332.419V45.2278Z" fill="#0CB33E"/>
<path opacity="0.7" d="M344.731 45.2278H335.725V54.1537H344.731V45.2278Z" fill="#0CB33E"/>
<path opacity="0.2" d="M357.04 45.2278H348.033V54.1537H357.04V45.2278Z" fill="#0CB33E"/>
<path opacity="0.2" d="M332.419 56.5332H323.412V65.4591H332.419V56.5332Z" fill="#0CB33E"/>
<path opacity="0.7" d="M344.731 56.5332H335.725V65.4591H344.731V56.5332Z" fill="#0CB33E"/>
<path opacity="0.2" d="M357.04 56.5332H348.033V65.4591H357.04V56.5332Z" fill="#0CB33E"/>
<path opacity="0.2" d="M332.419 67.842H323.412V76.7679H332.419V67.842Z" fill="#0CB33E"/>
<path opacity="0.2" d="M344.731 67.842H335.725V76.7679H344.731V67.842Z" fill="#0CB33E"/>
<path opacity="0.2" d="M357.04 67.842H348.033V76.7679H357.04V67.842Z" fill="#0CB33E"/>
<path opacity="0.2" d="M369.351 67.842H360.344V76.7679H369.351V67.842Z" fill="#0CB33E"/>
<path opacity="0.2" d="M381.663 67.842H372.656V76.7679H381.663V67.842Z" fill="#0CB33E"/>
<path opacity="0.2" d="M393.972 67.842H384.965V76.7679H393.972V67.842Z" fill="#0CB33E"/>
<path d="M406.282 67.842H397.275V76.7679H406.282V67.842Z" fill="#0CB33E"/>
<path opacity="0.2" d="M418.591 67.842H409.584V76.7679H418.591V67.842Z" fill="#0CB33E"/>
<path opacity="0.2" d="M430.902 67.842H421.896V76.7679H430.902V67.842Z" fill="#0CB33E"/>
<path opacity="0.2" d="M184.723 67.8489H175.716V76.7748H184.723V67.8489Z" fill="#0CB33E"/>
<path d="M197.032 67.8489H188.025V76.7748H197.032V67.8489Z" fill="#0CB33E"/>
<path opacity="0.2" d="M209.343 67.8489H200.336V76.7748H209.343V67.8489Z" fill="#0CB33E"/>
<path opacity="0.2" d="M221.654 67.8489H212.647V76.7748H221.654V67.8489Z" fill="#0CB33E"/>
<path opacity="0.2" d="M233.963 67.8489H224.956V76.7748H233.963V67.8489Z" fill="#0CB33E"/>
<path opacity="0.2" d="M246.274 67.8489H237.268V76.7748H246.274V67.8489Z" fill="#0CB33E"/>
<path opacity="0.2" d="M258.582 67.8489H249.575V76.7748H258.582V67.8489Z" fill="#0CB33E"/>
<path opacity="0.2" d="M270.895 67.8489H261.888V76.7748H270.895V67.8489Z" fill="#0CB33E"/>
<path opacity="0.2" d="M283.205 67.8489H274.198V76.7748H283.205V67.8489Z" fill="#0CB33E"/>
<path opacity="0.2" d="M295.513 67.8489H286.506V76.7748H295.513V67.8489Z" fill="#0CB33E"/>
<path opacity="0.2" d="M307.825 67.8489H298.818V76.7748H307.825V67.8489Z" fill="#0CB33E"/>
<path d="M320.133 67.8489H311.126V76.7748H320.133V67.8489Z" fill="#0CB33E"/>
<path d="M189.015 91.8591C191.566 68.2602 194.512 80.5001 227.883 84.6257C267.833 89.5645 266.649 78.6679 268.101 92.5682C266.575 98.5447 265.561 110.893 229.195 104.115C198.262 111.44 191.387 93.9916 189.015 91.8591Z" fill="#2F2E41"/>
<path d="M252.883 124.492C260.092 124.492 265.937 118.874 265.937 111.943C265.937 105.012 260.092 99.3938 252.883 99.3938C245.674 99.3938 239.829 105.012 239.829 111.943C239.829 118.874 245.674 124.492 252.883 124.492Z" fill="#FF9362"/>
<path d="M256.72 100.017C258.857 100.017 260.957 100.602 262.815 101.714C264.673 102.826 266.225 104.428 267.32 106.362C268.415 108.296 269.016 110.496 269.063 112.748C269.11 115 268.601 117.226 267.588 119.209C268.658 117.797 269.438 116.166 269.877 114.419C270.316 112.672 270.405 110.847 270.139 109.062C269.872 107.277 269.256 105.57 268.329 104.049C267.402 102.529 266.185 101.229 264.755 100.232C263.325 99.235 261.714 98.5629 260.024 98.2587C258.334 97.9545 256.603 98.0247 254.94 98.465C253.278 98.9052 251.72 99.7057 250.367 100.816C249.014 101.925 247.895 103.32 247.082 104.911C248.236 103.384 249.702 102.15 251.371 101.303C253.039 100.456 254.868 100.016 256.72 100.017Z" fill="#FF9362"/>
<path d="M199.434 37.0275C221.59 45.1821 218.397 37.9848 211.093 74.3541C203.921 110.061 208.837 86.3203 205.404 98.7616C200.023 95.9392 170.927 97.4128 181.859 67.0343C174.64 44.605 196.753 38.5298 199.434 37.0275Z" fill="#2F2E41"/>
<path d="M258.724 38.38C236.566 46.5691 239.769 39.3631 247.011 75.7451C254.121 111.465 249.246 87.7157 252.657 100.16C258.04 97.3287 284.793 99.3726 276.09 68.3295C283.342 45.8768 261.402 39.8796 258.724 38.38Z" fill="#2F2E41"/>
<path d="M228.951 112.604C249.378 112.604 265.937 96.0445 265.937 75.6169C265.937 55.1893 249.378 38.6294 228.951 38.6294C208.524 38.6294 191.965 55.1893 191.965 75.6169C191.965 96.0445 208.524 112.604 228.951 112.604Z" fill="#F28B5C"/>
<path d="M238.867 97.2625C238.87 97.2617 238.877 97.2583 238.869 97.2598C238.868 97.2601 238.864 97.2618 238.866 97.2609" stroke="#CE7952" stroke-opacity="0.59" stroke-linecap="round" stroke-linejoin="round"/>
<path d="M200.257 52.5508C206.62 45.4606 215.514 41.0972 225.062 40.3814C234.61 39.6656 244.065 42.6535 251.432 48.7145C251.13 48.4301 250.831 48.1433 250.518 47.867C243.198 41.4224 233.594 38.1224 223.819 38.6927C214.044 39.2631 204.898 43.657 198.392 50.9083C191.886 58.1595 188.554 67.6743 189.127 77.3599C189.7 87.0456 194.133 96.109 201.45 102.557C201.763 102.833 202.086 103.094 202.406 103.358C195.468 96.8183 191.366 87.8641 190.965 78.3847C190.564 68.9053 193.896 59.6423 200.257 52.5508Z" fill="#FF9362"/>
<path d="M229.067 112.908C242.284 112.908 252.999 101.966 252.999 88.4696C252.999 74.9728 242.284 64.0314 229.067 64.0314C215.85 64.0314 205.135 74.9728 205.135 88.4696C205.135 101.966 215.85 112.908 229.067 112.908Z" fill="#FFB8B8"/>
<path d="M249.976 93.4259C249.978 93.4251 249.985 93.4217 249.977 93.4232C249.976 93.4235 249.972 93.4251 249.974 93.4243" stroke="#CE7952" stroke-opacity="0.59" stroke-linecap="round" stroke-linejoin="round"/>
<path d="M233.736 95.1755C233.738 95.1746 233.745 95.1712 233.737 95.1727C233.736 95.173 233.732 95.1747 233.734 95.1739" stroke="#CE7952" stroke-opacity="0.59" stroke-linecap="round" stroke-linejoin="round"/>
<path d="M247.858 99.3742C247.86 99.3734 247.867 99.37 247.859 99.3715C247.858 99.3718 247.854 99.3735 247.856 99.3726" stroke="#CE7952" stroke-opacity="0.59" stroke-linecap="round" stroke-linejoin="round"/>
<path d="M217.847 100.074C217.849 100.073 217.856 100.07 217.849 100.071C217.847 100.072 217.843 100.073 217.845 100.072" stroke="#CE7952" stroke-opacity="0.59" stroke-linecap="round" stroke-linejoin="round"/>
<path d="M212.905 91.3265C212.907 91.3257 212.914 91.3223 212.906 91.3238C212.905 91.3241 212.901 91.3258 212.903 91.3249" stroke="#CE7952" stroke-opacity="0.59" stroke-linecap="round" stroke-linejoin="round"/>
<path d="M209.374 94.1257C209.377 94.1249 209.383 94.1215 209.376 94.123C209.374 94.1233 209.371 94.125 209.373 94.1241" stroke="#CE7952" stroke-opacity="0.59" stroke-linecap="round" stroke-linejoin="round"/>
<path d="M247.505 91.3265C247.507 91.3257 247.514 91.3223 247.507 91.3238C247.505 91.3241 247.502 91.3258 247.503 91.3249" stroke="#CE7952" stroke-linecap="round" stroke-linejoin="round"/>
<path d="M241.855 90.6268C241.857 90.6259 241.864 90.6225 241.856 90.624C241.855 90.6243 241.851 90.626 241.853 90.6252" stroke="#CE7952" stroke-opacity="0.59" stroke-linecap="round" stroke-linejoin="round"/>
<path d="M230.557 93.076C230.559 93.0752 230.566 93.0718 230.559 93.0733C230.557 93.0736 230.553 93.0753 230.555 93.0745" stroke="#CE7952" stroke-opacity="0.59" stroke-linecap="round" stroke-linejoin="round"/>
<path d="M211.813 96.7523C211.813 96.7523 215.02 124.724 209.89 127.764C204.76 130.804 239.387 135.061 239.387 135.061C239.387 135.061 234.257 104.657 247.082 96.7523H211.813Z" fill="#FFB8B8"/>
<path d="M211.139 99.7241C211.141 99.7233 211.148 99.7199 211.141 99.7214C211.139 99.7217 211.135 99.7234 211.137 99.7225" stroke="#CE7952" stroke-opacity="0.59" stroke-linecap="round" stroke-linejoin="round"/>
<path d="M209.371 58.444V82.2216H214.786L221.678 74.7129L220.755 82.2216H244.691L243.214 74.7129L246.168 82.2216H249.983V58.444H209.371Z" fill="#F28B5C"/>
<path d="M204.293 86.1835C205.494 86.1835 206.468 84.705 206.468 82.8811C206.468 81.0572 205.494 79.5786 204.293 79.5786C203.091 79.5786 202.117 81.0572 202.117 82.8811C202.117 84.705 203.091 86.1835 204.293 86.1835Z" fill="#FFB8B8"/>
<path d="M252.882 86.1835C253.683 86.1835 254.333 84.705 254.333 82.8811C254.333 81.0572 253.683 79.5786 252.882 79.5786C252.081 79.5786 251.432 81.0572 251.432 82.8811C251.432 84.705 252.081 86.1835 252.882 86.1835Z" fill="#FFB8B8"/>
<path d="M247.084 96.7554C247.086 96.7546 247.093 96.7512 247.086 96.7527C247.084 96.753 247.081 96.7547 247.083 96.7538" stroke="#CE7952" stroke-opacity="0.59" stroke-linecap="round" stroke-linejoin="round"/>
<path d="M216.624 94.1133C216.627 94.1125 216.633 94.1091 216.626 94.1105C216.624 94.1108 216.621 94.1125 216.623 94.1117" stroke="#CE7952" stroke-opacity="0.59" stroke-linecap="round" stroke-linejoin="round"/>
<path d="M225.615 95.8752C225.617 95.8744 225.624 95.871 225.616 95.8725C225.615 95.8728 225.611 95.8745 225.613 95.8736" stroke="#CE7952" stroke-opacity="0.59" stroke-linecap="round" stroke-linejoin="round"/>
<path d="M221.024 90.6268C221.026 90.6259 221.033 90.6225 221.025 90.624C221.024 90.6243 221.02 90.626 221.022 90.6252" stroke="#CE7952" stroke-opacity="0.59" stroke-linecap="round" stroke-linejoin="round"/>
<path d="M236.561 91.3265C236.563 91.3257 236.57 91.3223 236.562 91.3238C236.561 91.3241 236.557 91.3258 236.559 91.3249" stroke="#CE7952" stroke-linecap="round" stroke-linejoin="round"/>
<path d="M212.273 96.7554C212.275 96.7546 212.282 96.7512 212.274 96.7527C212.273 96.753 212.269 96.7547 212.271 96.7538" stroke="#CE7952" stroke-linecap="round" stroke-linejoin="round"/>
<path d="M238.38 96.7554C238.382 96.7546 238.389 96.7512 238.382 96.7527C238.38 96.753 238.377 96.7547 238.378 96.7538" stroke="#CE7952" stroke-opacity="0.59" stroke-linecap="round" stroke-linejoin="round"/>
<path d="M242.732 94.1133C242.734 94.1125 242.741 94.1091 242.733 94.1105C242.732 94.1108 242.728 94.1125 242.73 94.1117" stroke="#CE7952" stroke-opacity="0.59" stroke-linecap="round" stroke-linejoin="round"/>
<path d="M220.976 96.7554C220.978 96.7546 220.985 96.7512 220.977 96.7527C220.976 96.753 220.972 96.7547 220.974 96.7538" stroke="#CE7952" stroke-opacity="0.59" stroke-linecap="round" stroke-linejoin="round"/>
<path d="M225.615 93.076C225.617 93.0752 225.624 93.0718 225.616 93.0733C225.615 93.0736 225.611 93.0753 225.613 93.0745" stroke="#CE7952" stroke-opacity="0.59" stroke-linecap="round" stroke-linejoin="round"/>
<path d="M264.486 41.3672C260.186 64.4461 265.131 48.7066 229.467 48.7066C194.452 48.7066 194.866 55.2115 194.865 41.3651C196.709 35.5954 208.583 20.4091 230.084 30.8887C257.234 22.777 262.643 39.0593 264.486 41.3672Z" fill="#2F2E41"/>
<path d="M263.813 53.6352C263.732 56.1876 247.116 50.5553 229.1 50.0839C211.084 49.6126 194.802 56.3665 194.883 53.8141C194.964 51.2617 206.469 41.9309 229.391 40.8409C247.408 41.3122 263.893 51.0828 263.813 53.6352Z" fill="#24233D"/>
<path d="M228.215 35.1309C228.076 36.0977 228.106 37.0678 228.301 37.9462C228.497 38.8246 227.747 40.0499 228.226 40.6109C227.779 41.0796 227.344 38.3082 227.981 38.4056C228.618 38.503 227.672 38.3378 228.301 37.9462C227.831 38.3828 228.883 41.2714 228.883 41.2714C228.158 41.2714 228.158 40.6109 228.883 41.2714C228.354 41.2714 228.651 41.2457 228.158 41.2714C227.786 40.8005 227.945 39.455 227.754 38.7742C227.564 38.0934 227.477 37.3416 227.501 36.5666C227.524 35.7916 227.656 35.0104 227.889 34.2729C228.122 33.5354 228.451 32.8577 228.854 32.283C229.257 31.7082 229.727 31.2491 230.231 30.9348C229.722 31.4054 229.277 32.0271 228.928 32.7536C228.578 33.4801 228.335 34.2927 228.215 35.1309Z" fill="#24233D"/>
<path d="M271.972 70.3707C271.094 70.6747 270.171 70.8308 269.295 70.8239C268.418 70.817 267.446 71.7078 266.799 71.3918C266.467 71.8733 269.189 71.7351 268.94 71.1923C268.691 70.6496 269.08 71.452 269.295 70.8239C268.999 71.3207 266.014 70.937 266.014 70.937C266.193 71.5759 266.816 71.4516 266.014 70.937C266.144 71.4029 266.096 71.1366 266.193 71.5759C266.728 71.8149 267.959 71.422 268.648 71.4618C269.337 71.5015 270.068 71.4362 270.793 71.2699C271.519 71.1036 272.223 70.84 272.862 70.496C273.5 70.152 274.058 69.735 274.501 69.2716C274.944 68.8083 275.262 68.3087 275.434 67.8048C275.116 68.3417 274.639 68.8513 274.039 69.2955C273.44 69.7398 272.733 70.1073 271.972 70.3707Z" fill="#24233D"/>
<path d="M184.983 68.7069C185.642 68.935 186.349 69.0166 187.035 68.9437C187.721 68.8708 188.4 69.6601 188.935 69.3052C189.151 69.7464 187.035 69.8181 187.279 69.2737C187.523 68.7293 187.146 69.5357 187.035 68.9437C187.221 69.4024 189.59 68.8055 189.59 68.8055C189.392 69.4376 188.916 69.3644 189.59 68.8055C189.446 69.2664 189.508 69.0049 189.392 69.4376C188.951 69.7096 188.025 69.422 187.483 69.5126C186.94 69.6031 186.375 69.595 185.823 69.4887C185.27 69.3825 184.744 69.1804 184.276 68.8954C183.808 68.6105 183.409 68.2488 183.105 67.8335C182.801 67.4182 182.598 66.9584 182.509 66.4834C182.709 66.9793 183.036 67.4368 183.464 67.8218C183.892 68.2067 184.412 68.5093 184.983 68.7069Z" fill="#24233D"/>
<path d="M197.947 43.0859C198.526 43.906 199.236 44.6294 200.008 45.1855C200.779 45.7416 201.075 47.1182 201.838 47.2654C201.829 47.8858 199.533 46.0246 200.089 45.7246C200.644 45.4246 199.805 45.8545 200.008 45.1855C199.958 45.7957 202.808 47.3836 202.808 47.3836C202.254 47.8099 201.786 47.3053 202.808 47.3836C202.405 47.6944 202.613 47.5004 202.254 47.8099C201.637 47.6688 200.804 46.5477 200.176 46.1396C199.549 45.7316 198.95 45.2081 198.418 44.6024C197.887 43.9967 197.435 43.3222 197.09 42.6219C196.745 41.9215 196.516 41.2107 196.417 40.5347C196.318 39.8586 196.351 39.2322 196.514 38.6954C196.458 39.354 196.558 40.0908 196.806 40.851C197.055 41.6112 197.444 42.3751 197.947 43.0859Z" fill="#24233D"/>
<path d="M262.421 45.6481C261.79 46.4355 261.034 47.1193 260.227 47.6329C259.421 48.1464 259.036 49.5046 258.265 49.6105C258.233 50.2303 260.646 48.496 260.111 48.1667C259.576 47.8373 260.387 48.3117 260.227 47.6329C260.238 48.2447 257.289 49.6762 257.289 49.6762C257.814 50.1316 258.314 49.6532 257.289 49.6762C257.672 50.0083 257.476 49.8033 257.814 50.1316C258.44 50.024 259.344 48.9498 259.997 48.5763C260.65 48.2028 261.282 47.7124 261.852 47.1365C262.422 46.5605 262.917 45.9116 263.307 45.231C263.696 44.5505 263.971 43.8532 264.114 43.1837C264.257 42.5142 264.265 41.8871 264.137 41.3424C264.149 42.0029 264.002 42.733 263.705 43.4785C263.408 44.224 262.969 44.9656 262.421 45.6481Z" fill="#24233D"/>
<path d="M216.788 99.0243C216.791 99.0235 216.797 99.0201 216.79 99.0216C216.788 99.0219 216.785 99.0236 216.787 99.0228" stroke="#CE7952" stroke-linecap="round" stroke-linejoin="round"/>
<path d="M216.624 94.1134C216.627 94.1126 216.633 94.1092 216.626 94.1107C216.624 94.111 216.621 94.1127 216.623 94.1119" stroke="#CE7952" stroke-linecap="round" stroke-linejoin="round"/>
<path d="M242.563 98.6744C242.565 98.6735 242.572 98.6701 242.564 98.6716C242.563 98.6719 242.559 98.6736 242.561 98.6728" stroke="#CE7952" stroke-linecap="round" stroke-linejoin="round"/>
<path d="M242.231 121.354C242.231 121.354 251.758 116.945 238.038 118.515C224.317 120.085 212.48 114.062 212.48 114.062C212.48 114.062 208.322 109.941 207.683 114.379C207.043 118.817 209.602 127.06 195.527 128.328C181.451 129.596 168.655 125.792 163.537 135.302C158.419 144.813 160.978 186.026 160.978 186.026C160.978 186.026 170.575 220.264 178.252 225.336C185.93 230.409 253.108 223.434 253.108 223.434L272.302 189.196V149.251C272.302 149.251 269.743 135.302 251.828 139.107C251.828 139.107 240.312 136.571 240.952 130.864C241.592 125.158 242.231 121.354 242.231 121.354Z" fill="#CCDDFF"/>
<path d="M180.79 249.566C181.185 247.858 181.45 246.893 181.45 246.893L181.245 245.504L179.137 231.319L178.251 225.335C185.927 222.165 187.847 207.582 187.847 207.582L188.137 207.41L189.447 206.633V206.63L194.15 203.834L194.245 203.778L196.145 205.031L200.004 207.582C213.505 217.421 227.254 217.246 235.738 215.696C240.925 214.748 244.148 213.288 244.148 213.288L253.455 210.213L253.745 210.118L254.031 210.16L259.489 210.979L259.588 210.997L260.04 211.063L258.776 219.723L256.944 232.309C261.784 234.849 266.088 239.622 269.852 245.504C270.685 246.805 271.493 248.159 272.274 249.566C273.291 251.385 274.262 253.278 275.187 255.217C275.3 255.448 275.409 255.682 275.519 255.917C275.875 256.676 276.228 257.442 276.571 258.212H179.095C179.222 257.439 179.349 256.7 179.473 255.99C179.479 255.966 179.484 255.941 179.487 255.917C179.533 255.679 179.575 255.448 179.614 255.217C180.045 252.907 180.461 250.979 180.79 249.566Z" fill="#2F2E41"/>
<path d="M176.973 127.694C176.973 127.694 184.01 140.375 181.451 156.226C178.892 172.077 189.129 211.387 189.129 211.387L196.806 209.485C196.806 209.485 191.688 176.515 192.967 168.907C194.247 161.298 194.247 131.498 187.849 127.694C181.451 123.89 176.973 127.694 176.973 127.694Z" fill="#2F2E41"/>
<path d="M251.379 140.872L254.068 211.071L259.186 214.241C259.186 214.241 266.544 137.205 262.705 137.205H254.894C254.417 137.205 253.944 137.301 253.506 137.488C253.067 137.674 252.671 137.947 252.342 138.29C252.013 138.633 251.758 139.039 251.593 139.483C251.427 139.927 251.354 140.399 251.379 140.872Z" fill="#2F2E41"/>
<path d="M192.646 209.802C194.413 209.802 195.845 208.383 195.845 206.632C195.845 204.881 194.413 203.462 192.646 203.462C190.879 203.462 189.447 204.881 189.447 206.632C189.447 208.383 190.879 209.802 192.646 209.802Z" fill="#8D5FCD"/>
<path d="M256.627 212.972C258.393 212.972 259.826 211.553 259.826 209.802C259.826 208.051 258.393 206.632 256.627 206.632C254.86 206.632 253.428 208.051 253.428 209.802C253.428 211.553 254.86 212.972 256.627 212.972Z" fill="#8D5FCD"/>
<path d="M266.542 209.485C266.542 209.485 237.432 204.096 235.512 213.606C233.593 223.117 267.822 218.996 267.822 218.996L266.542 209.485Z" fill="#FFB8B8"/>
<path d="M265.904 144.179C265.904 144.179 335.642 199.34 322.846 212.655C310.05 225.97 261.426 222.166 261.426 222.166L264.625 206.315L292.776 203.145L278.7 189.196L265.904 190.464V144.179Z" fill="#CCDDFF"/>
<path d="M162.896 236.115L171.854 243.09C171.854 243.09 178.252 262.745 187.848 257.038C197.445 251.332 178.891 231.043 178.891 231.043L168.015 227.238L162.896 236.115Z" fill="#FFB8B8"/>
<path d="M171.854 134.034L162.921 136.698C162.921 136.698 100.837 182.222 98.2774 194.902C95.7183 207.583 110.433 214.558 110.433 214.558L166.095 240.553L171.854 225.336L145.622 212.021C145.622 212.021 147.541 208.217 139.864 207.583C132.186 206.949 130.907 198.707 130.907 198.707C130.907 198.707 146.262 175.247 154.579 180.319C162.897 185.392 165.456 189.196 165.456 189.196L171.854 134.034Z" fill="#CCDDFF"/>
<path d="M299.264 251.739V253.863C299.265 254.445 299.156 255.023 298.943 255.567C298.848 255.809 298.733 256.043 298.6 256.266C298.179 256.966 297.582 257.546 296.867 257.948C296.152 258.351 295.344 258.562 294.522 258.562H136.858C136.036 258.562 135.228 258.351 134.513 257.948C133.798 257.546 133.201 256.966 132.78 256.266C132.647 256.043 132.532 255.809 132.438 255.567C132.224 255.023 132.115 254.445 132.116 253.863V251.739C132.116 251.122 132.239 250.51 132.477 249.94C132.715 249.37 133.064 248.852 133.505 248.416C133.945 247.979 134.468 247.633 135.043 247.397C135.619 247.161 136.235 247.039 136.858 247.04H145.946V246.049C145.946 246.024 145.951 245.998 145.961 245.974C145.971 245.951 145.985 245.929 146.004 245.911C146.022 245.892 146.044 245.878 146.068 245.868C146.092 245.858 146.118 245.853 146.144 245.853H150.886C150.911 245.853 150.937 245.858 150.961 245.868C150.985 245.878 151.007 245.892 151.025 245.911C151.044 245.929 151.058 245.951 151.068 245.974C151.078 245.998 151.083 246.024 151.083 246.049V247.04H154.046V246.049C154.045 246.024 154.051 245.998 154.06 245.974C154.07 245.951 154.085 245.929 154.103 245.911C154.122 245.892 154.144 245.878 154.168 245.868C154.192 245.858 154.217 245.853 154.243 245.853H158.985C159.011 245.853 159.037 245.858 159.061 245.868C159.085 245.878 159.107 245.892 159.125 245.911C159.143 245.929 159.158 245.951 159.168 245.974C159.178 245.998 159.183 246.024 159.183 246.049V247.04H162.149V246.049C162.148 246.024 162.154 245.998 162.163 245.974C162.173 245.951 162.188 245.929 162.206 245.911C162.225 245.892 162.247 245.878 162.271 245.868C162.295 245.858 162.32 245.853 162.346 245.853H167.088C167.114 245.853 167.14 245.858 167.164 245.868C167.188 245.878 167.21 245.892 167.228 245.911C167.246 245.929 167.261 245.951 167.271 245.974C167.281 245.998 167.286 246.024 167.286 246.049V247.04H170.248V246.049C170.248 246.024 170.253 245.998 170.263 245.974C170.273 245.951 170.287 245.929 170.306 245.911C170.324 245.892 170.346 245.878 170.37 245.868C170.394 245.858 170.42 245.853 170.446 245.853H175.187C175.213 245.853 175.239 245.858 175.263 245.868C175.287 245.878 175.309 245.892 175.327 245.911C175.346 245.929 175.36 245.951 175.37 245.974C175.38 245.998 175.385 246.024 175.385 246.049V247.04H178.347V246.049C178.347 246.024 178.352 245.998 178.362 245.974C178.372 245.951 178.387 245.929 178.405 245.911C178.424 245.892 178.445 245.878 178.469 245.868C178.493 245.858 178.519 245.853 178.545 245.853H183.287C183.313 245.853 183.339 245.858 183.363 245.868C183.387 245.878 183.408 245.892 183.427 245.911C183.445 245.929 183.46 245.951 183.47 245.974C183.48 245.998 183.485 246.024 183.485 246.049V247.04H186.45V246.049C186.45 246.024 186.455 245.998 186.465 245.974C186.475 245.951 186.49 245.929 186.508 245.911C186.527 245.892 186.548 245.878 186.572 245.868C186.596 245.858 186.622 245.853 186.648 245.853H191.39C191.416 245.853 191.442 245.858 191.466 245.868C191.49 245.878 191.511 245.892 191.53 245.911C191.548 245.929 191.563 245.951 191.573 245.974C191.583 245.998 191.588 246.024 191.588 246.049V247.04H194.55V246.049C194.55 246.024 194.555 245.998 194.565 245.974C194.575 245.951 194.589 245.929 194.608 245.911C194.626 245.892 194.648 245.878 194.672 245.868C194.696 245.858 194.722 245.853 194.748 245.853H231.891C231.917 245.853 231.942 245.858 231.967 245.868C231.991 245.878 232.012 245.892 232.031 245.911C232.049 245.929 232.064 245.951 232.074 245.974C232.083 245.998 232.089 246.024 232.089 246.049V247.04H235.054V246.049C235.054 246.024 235.059 245.998 235.069 245.974C235.079 245.951 235.094 245.929 235.112 245.911C235.131 245.892 235.152 245.878 235.176 245.868C235.2 245.858 235.226 245.853 235.252 245.853H239.994C240.046 245.854 240.096 245.875 240.133 245.911C240.17 245.948 240.191 245.998 240.192 246.049V247.04H243.154V246.049C243.154 246.024 243.159 245.998 243.169 245.974C243.179 245.951 243.193 245.929 243.212 245.911C243.23 245.892 243.252 245.878 243.276 245.868C243.3 245.858 243.326 245.853 243.352 245.853H248.093C248.119 245.853 248.145 245.858 248.169 245.868C248.193 245.878 248.215 245.892 248.233 245.911C248.252 245.929 248.266 245.951 248.276 245.974C248.286 245.998 248.291 246.024 248.291 246.049V247.04H251.253V246.049C251.253 246.024 251.258 245.998 251.268 245.974C251.278 245.951 251.293 245.929 251.311 245.911C251.329 245.892 251.351 245.878 251.375 245.868C251.399 245.858 251.425 245.853 251.451 245.853H256.193C256.219 245.853 256.244 245.858 256.268 245.868C256.292 245.878 256.314 245.892 256.333 245.911C256.351 245.929 256.366 245.951 256.375 245.974C256.385 245.998 256.39 246.024 256.39 246.049V247.04H259.356V246.049C259.356 246.024 259.361 245.998 259.371 245.974C259.381 245.951 259.396 245.929 259.414 245.911C259.432 245.892 259.454 245.878 259.478 245.868C259.502 245.858 259.528 245.853 259.554 245.853H264.296C264.348 245.854 264.397 245.875 264.434 245.912C264.47 245.948 264.49 245.998 264.49 246.049V247.04H267.456V246.049C267.456 246.024 267.461 245.998 267.471 245.974C267.481 245.951 267.495 245.929 267.514 245.911C267.532 245.892 267.554 245.878 267.578 245.868C267.602 245.858 267.627 245.853 267.653 245.853H272.395C272.421 245.853 272.447 245.858 272.471 245.868C272.495 245.878 272.517 245.892 272.535 245.911C272.553 245.929 272.568 245.951 272.578 245.974C272.588 245.998 272.593 246.024 272.593 246.049V247.04H275.555V246.049C275.555 246.024 275.56 245.998 275.57 245.974C275.58 245.951 275.595 245.929 275.613 245.911C275.631 245.892 275.653 245.878 275.677 245.868C275.701 245.858 275.727 245.853 275.753 245.853H280.495C280.521 245.853 280.546 245.858 280.57 245.868C280.594 245.878 280.616 245.892 280.635 245.911C280.653 245.929 280.668 245.951 280.677 245.974C280.687 245.998 280.692 246.024 280.692 246.049V247.04H294.522C295.145 247.039 295.762 247.161 296.337 247.397C296.912 247.633 297.435 247.979 297.876 248.416C298.316 248.852 298.665 249.37 298.903 249.94C299.142 250.51 299.264 251.122 299.264 251.739Z" fill="#3F3D56"/>
<path d="M345.109 255.565H86.3076V256.265H345.109V255.565Z" fill="#462F66"/>
<path d="M286.568 162.293H227.801V161.093H201.155V162.293H142.146C141.092 162.293 140.081 162.708 139.335 163.447C138.59 164.186 138.171 165.188 138.171 166.232V245.978C138.171 247.023 138.59 248.025 139.335 248.764C140.081 249.503 141.092 249.918 142.146 249.918H286.568C287.622 249.918 288.633 249.503 289.379 248.764C290.124 248.025 290.543 247.023 290.543 245.978V166.232C290.543 165.715 290.44 165.203 290.24 164.725C290.041 164.247 289.748 163.813 289.379 163.447C289.009 163.081 288.571 162.791 288.089 162.593C287.607 162.395 287.09 162.293 286.568 162.293Z" fill="#3F3D56"/>
<path d="M214.473 198.882C219.348 198.882 223.3 194.965 223.3 190.134C223.3 185.303 219.348 181.387 214.473 181.387C209.598 181.387 205.646 185.303 205.646 190.134C205.646 194.965 209.598 198.882 214.473 198.882Z" stroke="#CCDDFF" stroke-width="2" stroke-miterlimit="10"/>
<path d="M211.647 202.031C216.522 202.031 220.474 198.114 220.474 193.283C220.474 188.452 216.522 184.536 211.647 184.536C206.772 184.536 202.82 188.452 202.82 193.283C202.82 198.114 206.772 202.031 211.647 202.031Z" fill="#CCDDFF"/>
<path d="M105.223 268.209H38.4922V269H105.223V268.209Z" fill="#462F66"/>
<path d="M396.507 268.209H329.776V269H396.507V268.209Z" fill="#462F66"/>
<path d="M77.3716 242.724C70.3416 254.098 72.7603 268.246 72.7603 268.246C72.7603 268.246 86.5768 263.953 93.6069 252.579C100.637 241.205 98.2182 227.057 98.2182 227.057C98.2182 227.057 84.4016 231.35 77.3716 242.724Z" fill="#462F66"/>
<path d="M72.4735 268.34L72.0738 268.278C71.9293 268.255 57.5421 265.893 48.9257 255.676C40.3092 245.459 40.5166 231.008 40.5194 230.864L40.528 230.463L40.9277 230.525C41.0722 230.548 55.4594 232.911 64.0759 243.127C72.6923 253.344 72.4849 267.795 72.4821 267.94L72.4735 268.34Z" fill="#8D5FCD"/>
<path d="M73.0403 268.7L72.6541 268.58C72.5145 268.536 58.6299 264.117 51.6119 252.762C44.5939 241.408 46.9292 227.142 46.9533 226.999L47.0209 226.604L47.4071 226.724C47.5467 226.767 61.4314 231.187 68.4493 242.541C75.4673 253.896 73.132 268.161 73.1079 268.304L73.0403 268.7ZM47.5905 227.524C47.2709 229.919 45.9969 242.338 52.2139 252.397C58.4313 262.455 70.1737 266.973 72.4707 267.779C72.7903 265.385 74.0644 252.966 67.8473 242.907C61.63 232.848 49.8876 228.331 47.5905 227.524H47.5905Z" fill="#462F66"/>
<path d="M73.1982 231.391C77.4882 231.391 80.9658 227.945 80.9658 223.694C80.9658 219.442 77.4882 215.996 73.1982 215.996C68.9083 215.996 65.4307 219.442 65.4307 223.694C65.4307 227.945 68.9083 231.391 73.1982 231.391Z" fill="#462F66"/>
<path d="M302.992 164.452L339.409 132.76H356.602V132.262H339.168L339.084 132.336L302.582 164.102L302.992 164.452Z" fill="#462F66"/>
<path d="M119.717 162.003L90.6784 135.822H76.9692V135.411H90.8706L90.938 135.472L120.044 161.714L119.717 162.003Z" fill="#462F66"/>
<path d="M51.5484 113.468H0V123.572H51.5484V113.468Z" fill="#CCDDFF"/>
<path d="M51.5484 128.972H0V139.076H51.5484V128.972Z" fill="#CCDDFF"/>
<path d="M51.5484 144.477H0V154.581H51.5484V144.477Z" fill="#CCDDFF"/>
<path opacity="0.15" d="M21.3251 113.468H0V123.572H21.3251V113.468Z" fill="black"/>
<path opacity="0.15" d="M34.3656 144.477H0V154.581H34.3656V144.477Z" fill="black"/>
<path d="M434.001 114.657H382.373V119.216H434.001V114.657Z" fill="#CCDDFF"/>
<path d="M373.256 114.067H363.033V124.198H373.256V114.067Z" fill="#8D5FCD"/>
<path d="M373.256 129.264H363.033V139.396H373.256V129.264Z" fill="#8D5FCD"/>
<path d="M373.256 144.461H363.033V154.592H373.256V144.461Z" fill="#8D5FCD"/>
<path d="M376.081 122.099H365.151V111.268H376.081V122.099ZM365.858 121.399H375.375V111.967H365.858V121.399Z" fill="#462F66"/>
<path d="M434.001 129.854H382.373V134.413H434.001V129.854Z" fill="#CCDDFF"/>
<path d="M376.081 137.296H365.151V126.465H376.081V137.296ZM365.858 136.596H375.375V127.165H365.858V136.596Z" fill="#462F66"/>
<path d="M434.001 145.051H382.373V149.61H434.001V145.051Z" fill="#CCDDFF"/>
<path d="M376.081 152.493H365.151V141.662H376.081V152.493ZM365.858 151.793H375.375V142.361H365.858V151.793Z" fill="#462F66"/>
<path d="M66.7302 124.214C69.8501 124.214 72.3794 121.707 72.3794 118.616C72.3794 115.524 69.8501 113.017 66.7302 113.017C63.6103 113.017 61.0811 115.524 61.0811 118.616C61.0811 121.707 63.6103 124.214 66.7302 124.214Z" fill="#8D5FCD"/>
<path d="M66.7302 141.009C69.8501 141.009 72.3794 138.503 72.3794 135.411C72.3794 132.319 69.8501 129.812 66.7302 129.812C63.6103 129.812 61.0811 132.319 61.0811 135.411C61.0811 138.503 63.6103 141.009 66.7302 141.009Z" fill="#8D5FCD"/>
<path d="M66.7302 156.055C69.8501 156.055 72.3794 153.548 72.3794 150.456C72.3794 147.364 69.8501 144.858 66.7302 144.858C63.6103 144.858 61.0811 147.364 61.0811 150.456C61.0811 153.548 63.6103 156.055 66.7302 156.055Z" fill="#8D5FCD"/>
<path d="M63.9055 123.164C62.7184 123.164 61.558 122.815 60.5709 122.162C59.5838 121.508 58.8145 120.579 58.3602 119.492C57.9059 118.405 57.7871 117.209 58.0187 116.056C58.2503 114.902 58.8219 113.842 59.6613 113.01C60.5008 112.178 61.5703 111.612 62.7346 111.382C63.8989 111.152 65.1057 111.27 66.2025 111.72C67.2993 112.171 68.2367 112.933 68.8962 113.911C69.5557 114.889 69.9078 116.04 69.9078 117.216C69.906 118.793 69.273 120.305 68.1478 121.42C67.0225 122.535 65.4969 123.162 63.9055 123.164ZM63.9055 111.968C62.8581 111.968 61.8341 112.275 60.9632 112.852C60.0923 113.429 59.4135 114.248 59.0126 115.207C58.6118 116.167 58.5069 117.222 58.7112 118.24C58.9156 119.258 59.42 120.193 60.1607 120.927C60.9013 121.661 61.845 122.161 62.8723 122.364C63.8997 122.566 64.9645 122.462 65.9323 122.065C66.9 121.668 67.7271 120.995 68.3091 120.132C68.891 119.269 69.2016 118.254 69.2016 117.216C69.2 115.824 68.6415 114.49 67.6487 113.506C66.6558 112.523 65.3097 111.969 63.9055 111.968Z" fill="#462F66"/>
<path d="M63.9055 139.959C62.7184 139.959 61.558 139.61 60.5709 138.957C59.5838 138.303 58.8145 137.374 58.3602 136.287C57.9059 135.2 57.7871 134.004 58.0187 132.851C58.2503 131.697 58.8219 130.637 59.6613 129.805C60.5008 128.973 61.5703 128.407 62.7346 128.177C63.8989 127.948 65.1057 128.065 66.2025 128.516C67.2993 128.966 68.2367 129.728 68.8962 130.706C69.5557 131.685 69.9078 132.835 69.9078 134.011C69.906 135.588 69.273 137.1 68.1478 138.215C67.0225 139.33 65.4969 139.958 63.9055 139.959ZM63.9055 128.763C62.8581 128.763 61.8341 129.07 60.9632 129.647C60.0923 130.224 59.4135 131.044 59.0126 132.003C58.6118 132.962 58.5069 134.017 58.7112 135.035C58.9156 136.053 59.42 136.988 60.1607 137.722C60.9013 138.456 61.845 138.956 62.8723 139.159C63.8997 139.361 64.9645 139.257 65.9323 138.86C66.9 138.463 67.7271 137.79 68.3091 136.927C68.891 136.064 69.2016 135.049 69.2016 134.011C69.2 132.62 68.6415 131.286 67.6487 130.302C66.6558 129.318 65.3097 128.764 63.9055 128.763Z" fill="#462F66"/>
<path d="M63.9055 155.005C62.7184 155.005 61.558 154.656 60.5709 154.002C59.5838 153.349 58.8145 152.42 58.3602 151.333C57.9059 150.246 57.7871 149.05 58.0187 147.896C58.2503 146.742 58.8219 145.682 59.6613 144.851C60.5008 144.019 61.5703 143.452 62.7346 143.223C63.8989 142.993 65.1057 143.111 66.2025 143.561C67.2993 144.011 68.2367 144.774 68.8962 145.752C69.5557 146.73 69.9078 147.88 69.9078 149.057C69.906 150.634 69.273 152.146 68.1478 153.261C67.0225 154.376 65.4969 155.003 63.9055 155.005ZM63.9055 143.808C62.8581 143.808 61.8341 144.116 60.9632 144.693C60.0923 145.269 59.4135 146.089 59.0126 147.048C58.6118 148.007 58.5069 149.062 58.7112 150.081C58.9156 151.099 59.42 152.034 60.1607 152.768C60.9013 153.502 61.845 154.002 62.8723 154.204C63.8997 154.407 64.9645 154.303 65.9323 153.906C66.9 153.508 67.7271 152.836 68.3091 151.973C68.891 151.109 69.2016 150.095 69.2016 149.057C69.2 147.665 68.6415 146.331 67.6487 145.347C66.6558 144.363 65.3097 143.81 63.9055 143.808Z" fill="#462F66"/>
<path d="M378.492 244.591H377.786V239.342C377.786 239.064 377.898 238.797 378.097 238.6C378.295 238.403 378.564 238.293 378.845 238.292H380.611C380.704 238.292 380.794 238.255 380.86 238.19C380.926 238.124 380.964 238.035 380.964 237.942V234.444C380.964 234.351 380.926 234.262 380.86 234.196C380.794 234.131 380.704 234.094 380.611 234.094H378.845C378.564 234.093 378.295 233.983 378.097 233.786C377.898 233.589 377.786 233.322 377.786 233.044V231.294C377.786 231.202 377.749 231.113 377.683 231.047C377.616 230.981 377.527 230.945 377.433 230.945H374.255C373.975 230.944 373.705 230.834 373.507 230.637C373.308 230.44 373.196 230.173 373.196 229.895V229.545C373.196 229.452 373.159 229.363 373.093 229.298C373.026 229.232 372.937 229.195 372.843 229.195H360.132C360.039 229.195 359.949 229.232 359.883 229.298C359.817 229.363 359.779 229.452 359.779 229.545V229.895C359.779 230.173 359.667 230.44 359.469 230.637C359.27 230.834 359.001 230.944 358.72 230.945H355.543C355.449 230.945 355.359 230.981 355.293 231.047C355.227 231.113 355.19 231.202 355.189 231.294V233.044C355.189 233.322 355.077 233.589 354.879 233.786C354.68 233.983 354.411 234.093 354.13 234.094H352.365C352.271 234.094 352.181 234.131 352.115 234.196C352.049 234.262 352.012 234.351 352.012 234.444V237.942C352.012 238.035 352.049 238.124 352.115 238.19C352.181 238.255 352.271 238.292 352.365 238.292H354.483C354.764 238.293 355.033 238.403 355.232 238.6C355.431 238.797 355.542 239.064 355.543 239.342V244.591H354.836V239.342C354.836 239.249 354.799 239.16 354.733 239.095C354.667 239.029 354.577 238.992 354.483 238.992H352.365C352.084 238.992 351.815 238.881 351.616 238.684C351.418 238.488 351.306 238.221 351.306 237.942V234.444C351.306 234.165 351.418 233.898 351.616 233.702C351.815 233.505 352.084 233.394 352.365 233.394H354.13C354.224 233.394 354.314 233.357 354.38 233.291C354.446 233.226 354.483 233.137 354.483 233.044V231.294C354.484 231.016 354.595 230.749 354.794 230.553C354.992 230.356 355.262 230.245 355.543 230.245H358.72C358.814 230.245 358.904 230.208 358.97 230.142C359.036 230.077 359.073 229.988 359.073 229.895V229.545C359.074 229.267 359.185 229 359.384 228.803C359.582 228.606 359.852 228.496 360.132 228.495H372.843C373.124 228.496 373.393 228.606 373.592 228.803C373.79 229 373.902 229.267 373.902 229.545V229.895C373.902 229.988 373.94 230.077 374.006 230.142C374.072 230.208 374.162 230.245 374.255 230.245H377.433C377.714 230.245 377.983 230.356 378.182 230.553C378.38 230.749 378.492 231.016 378.492 231.294V233.044C378.492 233.137 378.529 233.226 378.596 233.291C378.662 233.357 378.752 233.394 378.845 233.394H380.611C380.891 233.394 381.161 233.505 381.359 233.702C381.558 233.898 381.67 234.165 381.67 234.444V237.942C381.67 238.221 381.558 238.488 381.359 238.684C381.161 238.881 380.891 238.992 380.611 238.992H378.845C378.752 238.992 378.662 239.029 378.596 239.095C378.529 239.16 378.492 239.249 378.492 239.342V244.591Z" fill="#462F66"/>
<path d="M379.73 253.338H353.25C352.969 253.338 352.7 253.227 352.501 253.03C352.302 252.833 352.191 252.567 352.19 252.288V245.29C352.191 245.012 352.302 244.745 352.501 244.548C352.7 244.352 352.969 244.241 353.25 244.241H379.73C380.011 244.241 380.28 244.352 380.479 244.548C380.677 244.745 380.789 245.012 380.789 245.29V252.288C380.789 252.567 380.677 252.833 380.479 253.03C380.28 253.227 380.011 253.338 379.73 253.338ZM353.25 244.94C353.156 244.941 353.066 244.977 353 245.043C352.934 245.109 352.897 245.198 352.897 245.29V252.288C352.897 252.381 352.934 252.47 353 252.536C353.066 252.601 353.156 252.638 353.25 252.638H379.73C379.824 252.638 379.913 252.601 379.98 252.536C380.046 252.47 380.083 252.381 380.083 252.288V245.29C380.083 245.198 380.046 245.109 379.98 245.043C379.913 244.977 379.824 244.941 379.73 244.94H353.25Z" fill="#462F66"/>
<path d="M365.782 226.046C364.844 219.78 364.596 213.432 365.043 207.112L365.782 196.654C361.707 204.69 362.628 215.266 365.782 226.046V226.046Z" fill="#CCDDFF"/>
<path d="M368.96 227.795C368.508 224.056 368.389 220.285 368.604 216.526L368.96 210.301C366.999 215.084 367.442 221.379 368.96 227.795Z" fill="#CCDDFF"/>
</svg>
