<svg width="24" height="24" viewBox="0 0 24 24" fill="none" xmlns="http://www.w3.org/2000/svg">
<path d="M24 12.0469C24 17.6719 20.0577 22.3828 14.8125 23.6484L13.3781 19.0922H10.6219L9.23438 23.6484C3.98914 22.3828 0 17.6719 0 12.0469C0 5.4516 5.40472 0 12 0C18.5953 0 24 5.4516 24 12.0469Z" fill="#384949"/>
<path d="M24 12.0469C24 17.6719 20.0577 22.3828 14.8125 23.6484L13.3781 19.0922H12V0C18.5953 0 24 5.4516 24 12.0469Z" fill="#293939"/>
<path d="M8.4978 20.159C8.21289 20.159 7.93475 20.1183 7.66211 20.0381C6.95294 19.8287 6.37671 19.3563 5.94897 18.6359C5.75397 18.3071 5.55072 18.0791 5.31122 17.9183C5.07556 17.7598 4.88751 17.6993 4.68903 17.7138L4.56543 16.313C5.08655 16.2684 5.58514 16.4097 6.09326 16.7498C6.50726 17.0264 6.85535 17.4089 7.1582 17.9176C7.40686 18.3358 7.69305 18.581 8.06055 18.6896C8.47327 18.811 8.90155 18.7603 9.44958 18.5268L10.0031 19.819C9.47357 20.0457 8.97516 20.159 8.4978 20.159Z" fill="#ECECF1"/>
<path d="M18.7918 13.4672C18.2994 14.775 17.062 16.4344 13.9261 16.8984C14.3339 17.5031 14.8261 17.8266 14.812 19.0922V23.6484C13.9121 23.8735 12.9698 24 11.9995 24C11.0292 24 10.1339 23.8735 9.23389 23.6484V19.0358C9.23389 17.7843 9.7074 17.4327 10.0729 16.8984C6.93701 16.4343 5.69959 14.775 5.20722 13.4672C4.54639 11.7233 4.89795 9.55774 6.05115 8.17969C6.07916 8.15149 6.12146 8.08118 6.10736 8.03906C5.57288 6.43597 6.21979 5.10004 6.24799 4.95941C6.8526 5.14215 6.95111 4.77649 8.90576 5.9718L9.24323 6.16882C9.38385 6.25305 9.34174 6.19684 9.48236 6.19684C10.2979 5.9718 11.1558 5.84528 11.9995 5.84528C12.8574 5.84528 13.7011 5.9718 14.5588 6.19684L14.6573 6.21094C14.6573 6.21094 14.6853 6.21094 14.7558 6.16882C17.1885 4.69208 17.1041 5.17035 17.765 4.95941C17.7791 5.10004 18.426 6.44989 17.8917 8.03906C17.8214 8.25 20.001 10.2468 18.7918 13.4672Z" fill="#ECECF1"/>
<path d="M18.7923 13.4672C18.2999 14.775 17.0625 16.4344 13.9266 16.8984C14.3344 17.5031 14.8266 17.8266 14.8125 19.0922V23.6484C13.9125 23.8735 12.9703 24 12 24V5.84528C12.8579 5.84528 13.7016 5.9718 14.5595 6.19684L14.6578 6.21094C14.6578 6.21094 14.686 6.21094 14.7563 6.16882C17.189 4.69208 17.1046 5.17035 17.7656 4.95941C17.7797 5.10004 18.4266 6.44989 17.8922 8.03906C17.8219 8.25 20.0015 10.2468 18.7923 13.4672Z" fill="#E2E2E7"/>
</svg>
