<svg width="583" height="356" viewBox="0 0 583 356" fill="none" xmlns="http://www.w3.org/2000/svg">
<path d="M338.801 17.0717H0.145508V247.77H338.801V17.0717Z" fill="#E6E6E6"/>
<path d="M329.115 46.0073H9.82715V234.123H329.115V46.0073Z" fill="#F9FCFE"/>
<path d="M338.656 16.8678H0V32.1711H338.656V16.8678Z" fill="#8DE6DC"/>
<path d="M238.772 63.6268H134.823C134.601 63.5957 134.397 63.4799 134.249 63.3009C134.102 63.1219 134.021 62.8919 134.021 62.6539C134.021 62.4158 134.102 62.1859 134.249 62.0069C134.397 61.8279 134.601 61.712 134.823 61.6809H238.772C238.994 61.712 239.198 61.8279 239.346 62.0069C239.493 62.1859 239.575 62.4158 239.575 62.6539C239.575 62.8919 239.493 63.1219 239.346 63.3009C239.198 63.4799 238.994 63.5957 238.772 63.6268V63.6268Z" fill="#CCCCCC"/>
<path d="M166.745 74.3294H100.654C100.432 74.2982 100.228 74.1824 100.08 74.0034C99.9329 73.8244 99.8516 73.5944 99.8516 73.3564C99.8516 73.1183 99.9329 72.8884 100.08 72.7094C100.228 72.5304 100.432 72.4145 100.654 72.3834H166.745C166.967 72.4145 167.171 72.5304 167.318 72.7094C167.466 72.8884 167.547 73.1183 167.547 73.3564C167.547 73.5944 167.466 73.8244 167.318 74.0034C167.171 74.1824 166.967 74.2982 166.745 74.3294V74.3294Z" fill="#CCCCCC"/>
<path d="M238.773 74.5242H172.681C172.459 74.4931 172.255 74.3772 172.108 74.1982C171.96 74.0192 171.879 73.7893 171.879 73.5512C171.879 73.3131 171.96 73.0832 172.108 72.9042C172.255 72.7252 172.459 72.6094 172.681 72.5782H238.773C238.994 72.6094 239.198 72.7252 239.346 72.9042C239.493 73.0832 239.575 73.3131 239.575 73.5512C239.575 73.7893 239.493 74.0192 239.346 74.1982C239.198 74.3772 238.994 74.4931 238.773 74.5242H238.773Z" fill="#CCCCCC"/>
<path d="M166.906 85.032H100.815C100.593 85.0009 100.389 84.885 100.242 84.706C100.094 84.527 100.013 84.2971 100.013 84.059C100.013 83.821 100.094 83.591 100.242 83.412C100.389 83.233 100.593 83.1172 100.815 83.0861H166.906C167.128 83.1172 167.332 83.233 167.479 83.412C167.627 83.591 167.708 83.821 167.708 84.059C167.708 84.2971 167.627 84.527 167.479 84.706C167.332 84.885 167.128 85.0009 166.906 85.032V85.032Z" fill="#CCCCCC"/>
<path d="M167.067 95.7346H100.975C100.753 95.7035 100.549 95.5877 100.402 95.4087C100.254 95.2297 100.173 94.9997 100.173 94.7617C100.173 94.5236 100.254 94.2937 100.402 94.1147C100.549 93.9357 100.753 93.8198 100.975 93.7887H167.067C167.288 93.8198 167.492 93.9357 167.64 94.1147C167.787 94.2937 167.869 94.5236 167.869 94.7617C167.869 94.9997 167.787 95.2297 167.64 95.4087C167.492 95.5877 167.288 95.7035 167.067 95.7346V95.7346Z" fill="#CCCCCC"/>
<path d="M197.064 85.032H178.135C177.913 85.0009 177.709 84.885 177.562 84.706C177.414 84.527 177.333 84.2971 177.333 84.059C177.333 83.821 177.414 83.591 177.562 83.412C177.709 83.233 177.913 83.1172 178.135 83.0861H197.064C197.286 83.1172 197.49 83.233 197.637 83.412C197.785 83.591 197.866 83.821 197.866 84.059C197.866 84.2971 197.785 84.527 197.637 84.706C197.49 84.885 197.286 85.0009 197.064 85.032V85.032Z" fill="#CCCCCC"/>
<path d="M197.064 95.5402H178.135C177.913 95.5091 177.709 95.3932 177.562 95.2142C177.414 95.0352 177.333 94.8053 177.333 94.5672C177.333 94.3292 177.414 94.0992 177.562 93.9202C177.709 93.7412 177.913 93.6253 178.135 93.5942H197.064C197.286 93.6253 197.49 93.7412 197.637 93.9202C197.785 94.0992 197.866 94.3292 197.866 94.5672C197.866 94.8053 197.785 95.0352 197.637 95.2142C197.49 95.3932 197.286 95.5091 197.064 95.5402V95.5402Z" fill="#CCCCCC"/>
<path d="M228.827 95.5402H209.898C209.676 95.5091 209.472 95.3932 209.325 95.2142C209.177 95.0352 209.096 94.8053 209.096 94.5672C209.096 94.3292 209.177 94.0992 209.325 93.9202C209.472 93.7412 209.676 93.6253 209.898 93.5942H228.827C229.049 93.6253 229.253 93.7412 229.4 93.9202C229.548 94.0992 229.629 94.3292 229.629 94.5672C229.629 94.8053 229.548 95.0352 229.4 95.2142C229.253 95.3932 229.049 95.5091 228.827 95.5402V95.5402Z" fill="#CCCCCC"/>
<path d="M119.101 63.6268H100.172C99.9503 63.5957 99.7466 63.4799 99.599 63.3009C99.4515 63.1219 99.3701 62.8919 99.3701 62.6539C99.3701 62.4158 99.4515 62.1859 99.599 62.0069C99.7466 61.8279 99.9503 61.712 100.172 61.6809H119.101C119.323 61.712 119.527 61.8279 119.675 62.0069C119.822 62.1859 119.903 62.4158 119.903 62.6539C119.903 62.8919 119.822 63.1219 119.675 63.3009C119.527 63.4799 119.323 63.5957 119.101 63.6268Z" fill="#CCCCCC"/>
<path d="M166.505 186.341H100.413C100.192 186.31 99.9878 186.194 99.8402 186.015C99.6927 185.836 99.6113 185.606 99.6113 185.368C99.6113 185.13 99.6927 184.9 99.8402 184.721C99.9878 184.542 100.192 184.426 100.413 184.395H166.505C166.727 184.426 166.931 184.542 167.078 184.721C167.226 184.9 167.307 185.13 167.307 185.368C167.307 185.606 167.226 185.836 167.078 186.015C166.931 186.194 166.727 186.31 166.505 186.341H166.505Z" fill="#CCCCCC"/>
<path d="M166.184 207.746H100.092C99.8702 207.715 99.6665 207.6 99.519 207.421C99.3714 207.242 99.29 207.012 99.29 206.773C99.29 206.535 99.3714 206.305 99.519 206.126C99.6665 205.947 99.8702 205.832 100.092 205.801H166.184C166.406 205.832 166.609 205.947 166.757 206.126C166.904 206.305 166.986 206.535 166.986 206.773C166.986 207.012 166.904 207.242 166.757 207.421C166.609 207.6 166.406 207.715 166.184 207.746H166.184Z" fill="#CCCCCC"/>
<path d="M166.345 218.449H100.253C100.031 218.418 99.8277 218.302 99.6801 218.123C99.5325 217.944 99.4512 217.714 99.4512 217.476C99.4512 217.238 99.5325 217.008 99.6801 216.829C99.8277 216.65 100.031 216.534 100.253 216.503H166.345C166.567 216.534 166.77 216.65 166.918 216.829C167.066 217.008 167.147 217.238 167.147 217.476C167.147 217.714 167.066 217.944 166.918 218.123C166.77 218.302 166.567 218.418 166.345 218.449H166.345Z" fill="#CCCCCC"/>
<path d="M194.578 207.941H175.649C175.427 207.91 175.223 207.794 175.076 207.615C174.928 207.436 174.847 207.206 174.847 206.968C174.847 206.73 174.928 206.5 175.076 206.321C175.223 206.142 175.427 206.026 175.649 205.995H194.578C194.8 206.026 195.004 206.142 195.151 206.321C195.299 206.5 195.38 206.73 195.38 206.968C195.38 207.206 195.299 207.436 195.151 207.615C195.004 207.794 194.8 207.91 194.578 207.941V207.941Z" fill="#CCCCCC"/>
<path d="M194.578 218.449H175.649C175.427 218.418 175.223 218.302 175.076 218.123C174.928 217.944 174.847 217.714 174.847 217.476C174.847 217.238 174.928 217.008 175.076 216.829C175.223 216.65 175.427 216.534 175.649 216.503H194.578C194.8 216.534 195.004 216.65 195.151 216.829C195.299 217.008 195.38 217.238 195.38 217.476C195.38 217.714 195.299 217.944 195.151 218.123C195.004 218.302 194.8 218.418 194.578 218.449V218.449Z" fill="#CCCCCC"/>
<path d="M226.34 207.941H207.41C207.189 207.91 206.985 207.794 206.837 207.615C206.69 207.436 206.608 207.206 206.608 206.968C206.608 206.73 206.69 206.5 206.837 206.321C206.985 206.142 207.189 206.026 207.41 205.995H226.34C226.562 206.026 226.765 206.142 226.913 206.321C227.06 206.5 227.142 206.73 227.142 206.968C227.142 207.206 227.06 207.436 226.913 207.615C226.765 207.794 226.562 207.91 226.34 207.941V207.941Z" fill="#CCCCCC"/>
<path d="M238.852 197.044H134.903C134.681 197.013 134.477 196.897 134.33 196.718C134.182 196.539 134.101 196.309 134.101 196.071C134.101 195.833 134.182 195.603 134.33 195.424C134.477 195.245 134.681 195.129 134.903 195.098H238.852C239.074 195.129 239.278 195.245 239.426 195.424C239.573 195.603 239.655 195.833 239.655 196.071C239.655 196.309 239.573 196.539 239.426 196.718C239.278 196.897 239.074 197.013 238.852 197.044V197.044Z" fill="#CCCCCC"/>
<path d="M119.182 197.044H100.253C100.031 197.013 99.8277 196.897 99.6801 196.718C99.5325 196.539 99.4512 196.309 99.4512 196.071C99.4512 195.833 99.5325 195.603 99.6801 195.424C99.8277 195.245 100.031 195.129 100.253 195.098H119.182C119.404 195.129 119.608 195.245 119.756 195.424C119.903 195.603 119.984 195.833 119.984 196.071C119.984 196.309 119.903 196.539 119.756 196.718C119.608 196.897 119.404 197.013 119.182 197.044V197.044Z" fill="#CCCCCC"/>
<path d="M150.544 113.023L124.877 139.983L150.544 166.942L156.319 160.799L136.908 140.153L156.479 119.336L150.544 113.023Z" fill="#E6E6E6"/>
<path d="M188.402 113.023L214.069 139.983L188.402 166.942L182.627 160.799L202.038 140.153L182.467 119.336L188.402 113.023Z" fill="#E6E6E6"/>
<path d="M150.544 113.023L124.877 139.983L150.544 166.942L156.319 160.799L136.908 140.153L156.479 119.336L150.544 113.023Z" fill="#6CCBBC"/>
<path d="M188.402 113.023L214.069 139.983L188.402 166.942L182.627 160.799L202.038 140.153L182.467 119.336L188.402 113.023Z" fill="#68C9BA"/>
<path d="M167.935 317.152C175.922 328.528 192.5 329.726 192.5 329.726C192.5 329.726 196.129 312.479 188.143 301.102C180.157 289.726 163.579 288.529 163.579 288.529C163.579 288.529 159.949 305.776 167.935 317.152Z" fill="#E6E6E6"/>
<path d="M208.619 321.429C203.35 328.936 192.41 329.726 192.41 329.726C192.41 329.726 190.015 318.345 195.285 310.838C200.555 303.331 211.494 302.541 211.494 302.541C211.494 302.541 213.889 313.922 208.619 321.429Z" fill="#E6E6E6"/>
<path d="M131.667 328.356H520.969V329.676H131.667V328.356Z" fill="#3F3D56"/>
<path d="M350.385 328.539H583V329.717H350.385V328.539Z" fill="#3F3D56"/>
<path d="M433.597 66.0086L471.972 67.0224L477.138 18.351H433.597V66.0086Z" fill="#F28B5C"/>
<path d="M437.183 314.25C437.183 314.25 444.105 322.353 439.556 329.681C435.006 337.01 443.709 338.444 443.709 338.444L454.694 334.576L458.195 330.614C458.195 330.614 451.676 318.163 452.131 312.568C452.586 306.973 437.183 314.25 437.183 314.25Z" fill="#FFB8B8"/>
<path d="M441.537 320.595C441.537 320.595 442.127 323.223 441.776 324.189C438.066 330.507 446.261 341.619 446.261 341.619L455.676 338.332L453.664 321.543C453.664 321.543 454.246 322.689 452.917 319.431C449.688 320.449 441.537 320.595 441.537 320.595Z" fill="#B9B4DA"/>
<path d="M437.183 314.25C437.183 314.25 444.105 322.353 439.556 329.681C435.006 337.01 443.709 338.444 443.709 338.444L454.694 334.576L458.195 330.614C458.195 330.614 451.676 318.163 452.131 312.568C452.586 306.973 437.183 314.25 437.183 314.25Z" fill="#FFB8B8"/>
<path d="M440.64 321.325C440.64 321.325 441.236 324.277 440.818 325.377C436.501 332.602 444.236 339.47 444.236 339.47L458.647 331.163L454.213 322.088C454.213 322.088 454.836 323.367 453.428 319.723C449.783 320.953 440.64 321.325 440.64 321.325Z" fill="#B9B4DA"/>
<path d="M456.025 324.056C455.098 325.632 453.903 327.042 452.477 328.245C450.161 330.169 446.088 327.568 446.088 327.568C446.088 327.568 441.741 322.562 440.339 323.779C438.937 324.996 431.566 330.967 431.566 330.967C431.566 330.967 409.633 338.67 425.419 345.935C442.271 345.115 458.872 343.163 458.872 343.163C458.872 343.163 459.595 344.057 460.723 340.435C461.851 336.814 456.025 324.056 456.025 324.056Z" fill="#222132"/>
<path d="M487.999 311.153C487.999 311.153 494.688 319.475 489.933 326.654C485.178 333.833 493.836 335.546 493.836 335.546L504.926 332.033L508.537 328.184C508.537 328.184 502.374 315.53 502.988 309.952C503.601 304.374 487.999 311.153 487.999 311.153Z" fill="#FFB8B8"/>
<path d="M492.171 317.635C492.171 317.635 492.687 320.281 492.309 321.236C488.421 327.431 496.297 338.801 496.297 338.801L505.802 335.818L504.266 318.973C504.266 318.973 504.816 320.137 503.58 316.838C500.324 317.751 492.171 317.635 492.171 317.635Z" fill="#B9B4DA"/>
<path d="M487.999 311.153C487.999 311.153 494.688 319.475 489.933 326.654C485.178 333.833 493.836 335.546 493.836 335.546L504.926 332.033L508.537 328.184C508.537 328.184 502.374 315.53 502.988 309.952C503.601 304.374 487.999 311.153 487.999 311.153Z" fill="#FFB8B8"/>
<path d="M491.338 318.707C491.338 318.707 491.737 321.584 491.373 322.706C487.415 330.16 495.476 336.591 495.476 336.591L509.461 327.498L504.63 318.707C504.63 318.707 504.076 316.94 504.076 316.351C500.496 317.781 491.338 318.707 491.338 318.707Z" fill="#B9B4DA"/>
<path d="M505.509 320.12C504.737 321.775 503.709 323.29 502.455 324.621C500.418 326.754 496.506 324.557 496.506 324.557C496.506 324.557 492.208 319.996 490.977 321.339C489.747 322.682 483.254 329.32 483.254 329.32C483.254 329.32 463.379 339.065 478.387 344.782C493.938 342.36 509.193 338.838 509.193 338.838C509.193 338.838 509.911 339.657 510.756 335.95C511.602 332.243 505.509 320.12 505.509 320.12Z" fill="#222132"/>
<path d="M472.231 129.604L478.6 142.27L480.538 149.044L481.923 159.354L488.226 232.406C488.226 232.406 500.366 269.158 501.3 287.037L505.035 312.862L488.226 316.836L470.483 244.325L446.203 178.768L449.005 254.258L454.608 315.842L437.799 318.822L427.526 240.352L416.32 182.741C416.32 182.741 407.916 133.076 420.99 128.11L472.231 129.604Z" fill="#2F2E41"/>
<path d="M454.608 45.6664C444.808 45.6664 436.865 37.2169 436.865 26.7938C436.865 16.3708 444.808 7.92126 454.608 7.92126C464.407 7.92126 472.351 16.3708 472.351 26.7938C472.351 37.2169 464.407 45.6664 454.608 45.6664Z" fill="#FFB8B8"/>
<path d="M464.88 37.7202L468.615 59.5726L452.74 67.519L449.005 39.7067L464.88 37.7202Z" fill="#FFB8B8"/>
<path d="M452.846 54.1981L456.475 53.6127L467.681 47.653L471.417 52.6194L483.557 56.5926L467.681 110.752L469.549 136.056C469.549 136.056 421.923 139.036 420.989 131.09C420.056 123.143 430.328 101.291 430.328 101.291C430.328 101.291 427.526 90.3646 428.46 84.4048L432.196 60.5658L447.137 55.5993L450.549 51.2082L453.674 56.5926L452.846 54.1981Z" fill="#C7C2E4"/>
<path d="M434.694 212.563L397.172 189.521L418.835 149.61L456.357 172.653L434.694 212.563Z" fill="#8DE6DC"/>
<path d="M466.748 141.023L447.137 155.922C447.137 155.922 438.733 178.768 432.196 174.795C425.659 170.822 439.667 150.956 439.667 150.956L455.542 134.07L466.748 141.023Z" fill="#FFB8B8"/>
<path d="M410.718 134.07L408.85 145.989C408.85 145.989 413.519 170.822 419.122 165.855C424.725 160.889 417.255 144.996 417.255 144.996L418.188 135.063L410.718 134.07Z" fill="#FFB8B8"/>
<path d="M439.667 62.5525L432.196 60.5659C432.196 60.5659 427.527 62.5525 425.659 69.5055C423.792 76.4586 413.52 111.224 414.453 114.204C415.387 117.184 406.049 137.049 406.049 137.049L419.123 138.043L426.593 117.184L434.064 96.3245L439.667 62.5525Z" fill="#C1BAE8"/>
<path d="M478.32 54.6993C478.32 54.6993 472.439 62.63 472.119 73.9979C471.798 85.3658 460.294 111.771 460.294 111.771L456.61 109.734C456.61 109.734 464.08 87.1658 464.205 81.7039C464.33 76.2421 467.766 55.5347 471.824 53.5257C475.882 51.5166 478.32 54.6993 478.32 54.6993Z" fill="#2F2E41"/>
<path d="M471.142 32.5139C470.061 32.5139 469.185 31.0229 469.185 29.1836C469.185 27.3444 470.061 25.8534 471.142 25.8534C472.223 25.8534 473.099 27.3444 473.099 29.1836C473.099 31.0229 472.223 32.5139 471.142 32.5139Z" fill="#FFB8B8"/>
<path d="M468.63 78.9408L452.014 78.9407L440.66 76.5843L435.399 88.6609L429.861 111.636L427.922 117.822L421.276 133.728L437.293 137.945L450.823 138.321L459.768 130.782L463.092 111.9L468.076 91.6065L470.015 77.7625L468.63 78.9408Z" fill="#2F2E41"/>
<path d="M480.755 58.5795L483.557 56.5929C483.557 56.5929 489.16 57.5862 491.027 65.5325C492.895 73.4789 491.027 109.237 486.358 116.19C481.689 123.144 468.615 144.003 468.615 144.003L450.872 135.063L469.549 112.217L474.218 83.4118L475.553 70.6932L480.755 58.5795Z" fill="#C1BAE8"/>
<path d="M448.358 63.907L434.083 111.664L430.193 111.241C430.193 111.241 441.391 57.3957 443.426 58.4531L447.566 60.6047C447.819 60.7362 448.042 60.9276 448.22 61.1672C448.398 61.4069 448.528 61.6898 448.602 61.9987C448.676 62.3076 448.692 62.6361 448.65 62.9641C448.608 63.2922 448.509 63.613 448.358 63.907Z" fill="#2F2E41"/>
<path d="M485.36 44.7166C481.618 42.531 479.877 37.6253 479.753 33.0866C479.629 28.5478 480.664 24.0559 480.745 19.516C480.787 18.5872 480.712 17.6566 480.524 16.7487C480.213 15.6217 479.73 14.5571 479.093 13.598C474.227 5.66737 465.768 0.0886792 456.859 0.000902163C455.572 -0.0170427 454.294 0.232873 453.097 0.736586C452.176 1.12897 451.874 1.08095 451.698 2.28395C449.587 1.54335 447.299 1.62077 445.237 2.50251C443.194 3.38571 441.289 4.59248 439.586 6.08184C438.574 6.8824 437.619 7.7618 436.729 8.71276C432.021 13.901 430.937 21.8971 432.301 28.9606C432.744 31.2571 430.617 33.4741 428.856 34.8846C427.096 36.2951 425.063 37.5903 424.198 39.7468C423.367 41.8213 423.823 44.1937 423.656 46.4419C423.468 48.567 422.725 50.594 421.512 52.294C420.298 53.994 418.662 55.2993 416.788 56.0627C417.17 56.5496 417.669 56.9177 418.232 57.1282C418.794 57.3386 419.4 57.3836 419.985 57.2585C421.205 56.985 422.347 56.4068 423.316 55.5717C426.96 52.6996 429.567 48.5847 430.702 43.9141C431.219 46.4157 431.019 48.996 431 51.5573C431.045 54.4157 430.55 57.2546 429.544 59.9057C428.521 62.5694 426.648 64.7639 424.253 66.1028C426.562 67.3057 429.107 66.4339 431.064 64.6595C433.022 62.8852 434.177 60.3096 434.984 57.7127C436.297 53.4807 436.83 49.0189 436.553 44.5722C438.701 48.419 439.486 52.9557 438.766 57.3639C438.015 61.8584 435.808 65.9315 432.53 68.8776C438.246 68.8261 443.868 67.3203 448.925 64.4858C450.231 63.8563 451.382 62.9134 452.288 61.7312C453.915 59.33 453.53 56.0549 453.074 53.1348C452.713 50.8259 455.425 47.488 453.872 45.8301C453.41 45.3451 452.794 45.0632 452.145 45.0408C447.413 44.5562 443.032 42.0285 440.507 37.7449C438.737 34.743 437.565 31.3151 437.565 28.109C437.566 25.5847 438.08 23.0904 439.071 20.7966C440.062 18.5029 441.507 16.4638 443.307 14.8186C445.107 13.1735 447.219 11.9612 449.501 11.2646C451.782 10.5679 454.177 10.4034 456.524 10.7822C458.87 11.161 461.112 12.0742 463.096 13.4595C465.08 14.8447 466.759 16.6692 468.019 18.8084C469.279 20.9475 470.09 23.3508 470.397 25.854C470.703 28.3572 470.498 30.9013 469.795 33.3123C469.234 35.2525 468.833 37.2406 468.595 39.2545C468.313 41.5912 467.866 43.902 467.257 46.167C466.081 50.5199 464.09 54.9615 460.406 57.2319C461.644 57.9526 463.077 57.985 464.48 58.1494C469.103 58.6913 473.964 58.5716 478.149 56.412C482.333 54.2523 485.658 49.6533 485.36 44.7166Z" fill="#F28B5C"/>
<path d="M475.262 25.0534C461.985 19.3934 448.897 18.1861 436.149 25.0534V13.6449C436.149 12.6691 436.33 11.7029 436.681 10.8014C437.032 9.89991 437.547 9.08078 438.195 8.3908C438.844 7.70082 439.614 7.15349 440.462 6.78008C441.309 6.40666 442.218 6.21448 443.135 6.21448H469.743C471.207 6.21448 472.61 6.83293 473.645 7.9338C474.68 9.03466 475.262 10.5278 475.262 12.0846V25.0534Z" fill="#F28B5C"/>
<path d="M467.002 30.0033C467.004 30.0024 467.011 29.9986 467.004 30.0005C467.004 30.0005 466.999 30.0028 467 30.0019" stroke="#CE7952" stroke-opacity="0.58" stroke-width="1.5" stroke-linecap="round" stroke-linejoin="round"/>
<path d="M447.002 30.0033C447.004 30.0024 447.011 29.9986 447.004 30.0005C447.004 30.0005 446.999 30.0028 447 30.0019" stroke="#CE7952" stroke-opacity="0.58" stroke-width="1.5" stroke-linecap="round" stroke-linejoin="round"/>
<path d="M466.002 35.0033C466.005 35.0024 466.011 34.9986 466.004 35.0005C466.002 35.0009 465.999 35.0028 466.001 35.0019" stroke="#CE7952" stroke-opacity="0.58" stroke-width="1.5" stroke-linecap="round" stroke-linejoin="round"/>
<path d="M468.002 33.0033C468.005 33.0024 468.011 32.9986 468.004 33.0005C468.002 33.0009 467.999 33.0028 468.001 33.0019" stroke="#CE7952" stroke-opacity="0.58" stroke-width="1.5" stroke-linecap="round" stroke-linejoin="round"/>
<path d="M458.002 34.0033C458.005 34.0024 458.011 33.9986 458.004 34.0005C458.002 34.0009 457.999 34.0028 458.001 34.0019" stroke="#CE7952" stroke-opacity="0.58" stroke-width="1.5" stroke-linecap="round" stroke-linejoin="round"/>
<path d="M441.002 33.0033C441.005 33.0024 441.011 32.9986 441.004 33.0005C441.002 33.0009 440.999 33.0028 441.001 33.0019" stroke="#CE7952" stroke-opacity="0.58" stroke-width="1.5" stroke-linecap="round" stroke-linejoin="round"/>
<path d="M450.002 35.0033C450.005 35.0024 450.011 34.9986 450.004 35.0005C450.002 35.0009 449.999 35.0028 450.001 35.0019" stroke="#CE7952" stroke-opacity="0.58" stroke-width="1.5" stroke-linecap="round" stroke-linejoin="round"/>
<path d="M443.002 31.0033C443.004 31.0024 443.011 30.9986 443.004 31.0005C443.004 31.0005 442.999 31.0028 443 31.0019" stroke="#CE7952" stroke-opacity="0.58" stroke-width="1.5" stroke-linecap="round" stroke-linejoin="round"/>
<path d="M452.002 33.0033C452.004 33.0024 452.011 32.9986 452.004 33.0005C452.004 33.0005 451.999 33.0028 452 33.0019" stroke="#CE7952" stroke-opacity="0.58" stroke-width="1.5" stroke-linecap="round" stroke-linejoin="round"/>
<path d="M444.002 35.0033C444.004 35.0024 444.011 34.9986 444.004 35.0005C444.004 35.0005 443.999 35.0028 444 35.0019" stroke="#CE7952" stroke-opacity="0.58" stroke-width="1.5" stroke-linecap="round" stroke-linejoin="round"/>
<path d="M460.002 36.0033C460.004 36.0024 460.011 35.9986 460.004 36.0005C460.004 36.0005 459.999 36.0028 460 36.0019" stroke="#CE7952" stroke-opacity="0.58" stroke-width="1.5" stroke-linecap="round" stroke-linejoin="round"/>
<path d="M465.002 32.0033C465.004 32.0024 465.011 31.9986 465.004 32.0005C465.004 32.0005 464.999 32.0028 465 32.0019" stroke="#CE7952" stroke-opacity="0.58" stroke-width="1.5" stroke-linecap="round" stroke-linejoin="round"/>
<path d="M461.002 32.0033C461.004 32.0024 461.011 31.9986 461.004 32.0005C461.004 32.0005 460.999 32.0028 461 32.0019" stroke="#CE7952" stroke-opacity="0.58" stroke-width="1.5" stroke-linecap="round" stroke-linejoin="round"/>
<path d="M463.002 29.0033C463.004 29.0024 463.011 28.9986 463.004 29.0005C463.004 29.0005 462.999 29.0028 463 29.0019" stroke="#CE7952" stroke-opacity="0.58" stroke-width="1.5" stroke-linecap="round" stroke-linejoin="round"/>
<path d="M458.002 30.0033C458.004 30.0024 458.011 29.9986 458.004 30.0005C458.004 30.0005 457.999 30.0028 458 30.0019" stroke="#CE7952" stroke-opacity="0.58" stroke-width="1.5" stroke-linecap="round" stroke-linejoin="round"/>
<path d="M455.002 33.0033C455.004 33.0024 455.011 32.9986 455.004 33.0005C455.004 33.0005 454.999 33.0028 455 33.0019" stroke="#CE7952" stroke-opacity="0.58" stroke-width="1.5" stroke-linecap="round" stroke-linejoin="round"/>
<path d="M446.002 33.0033C446.004 33.0024 446.011 32.9986 446.004 33.0005C446.004 33.0005 445.999 33.0028 446 33.0019" stroke="#CE7952" stroke-opacity="0.58" stroke-width="1.5" stroke-linecap="round" stroke-linejoin="round"/>
<path d="M442.002 37.0033C442.004 37.0024 442.011 36.9986 442.004 37.0005C442.004 37.0005 441.999 37.0028 442 37.0019" stroke="#CE7952" stroke-opacity="0.58" stroke-width="1.5" stroke-linecap="round" stroke-linejoin="round"/>
<path d="M463.002 34.0033C463.005 34.0024 463.011 33.9986 463.004 34.0005C463.002 34.0009 462.999 34.0028 463.001 34.0019" stroke="#CE7952" stroke-opacity="0.58" stroke-width="1.5" stroke-linecap="round" stroke-linejoin="round"/>
<path d="M463.002 36.0033C463.005 36.0024 463.011 35.9986 463.004 36.0005C463.002 36.0009 462.999 36.0028 463.001 36.0019" stroke="#CE7952" stroke-opacity="0.58" stroke-width="1.5" stroke-linecap="round" stroke-linejoin="round"/>
<path d="M447.002 37.0033C447.005 37.0024 447.011 36.9986 447.004 37.0005C447.002 37.0009 446.999 37.0028 447.001 37.0019" stroke="#CE7952" stroke-opacity="0.58" stroke-width="1.5" stroke-linecap="round" stroke-linejoin="round"/>
<path d="M450.143 31.3627C450.145 31.3618 450.152 31.358 450.145 31.3599C450.143 31.3603 450.139 31.3622 450.141 31.3612" stroke="#CE7952" stroke-opacity="0.58" stroke-width="1.5" stroke-linecap="round" stroke-linejoin="round"/>
</svg>
