<svg width="520" height="388" viewBox="0 0 520 388" fill="none" xmlns="http://www.w3.org/2000/svg">
<g clip-path="url(#clip0)">
<path opacity="0.1" d="M131.29 71.7356C135.328 47.6468 156.178 30.0002 180.603 30.0002H470.285C497.899 30.0002 520.285 52.386 520.285 80.0002V338C520.285 365.614 497.899 388 470.285 388H137.362C106.447 388 82.9401 360.226 88.0502 329.736L131.29 71.7356Z" fill="#68C9BA"/>
<path d="M488.014 124.03C513.738 153.207 483.363 181.381 429.903 182.141C323.616 175.137 299.631 81.0075 307.664 59.9029C315.697 38.7983 339.615 38.2222 375.054 81.2152C410.493 124.208 455.858 87.5574 488.014 124.03Z" stroke="white" stroke-width="1.5"/>
<ellipse cx="383.633" cy="89.1503" rx="16.8481" ry="9.95569" transform="rotate(20.7184 383.633 89.1503)" stroke="white" stroke-width="1.5"/>
<path d="M125.772 189.858C125.772 189.858 138.782 191.554 141.494 191.044L148.721 184.599C148.721 184.599 155.588 189.517 144.744 192.74L124.507 194.945L125.772 189.858Z" fill="#FDC2CC"/>
<path opacity="0.05" d="M125.772 190.065C125.772 190.065 138.782 192.075 141.493 191.472L148.838 184.407C148.838 184.407 155.588 189.662 144.744 193.482L124.507 196.095L125.772 190.065Z" fill="black"/>
<path d="M139.104 107H143.436V110.921H147.397V107H151.729V118.879H147.397V114.902H143.436V118.879H139.104V107ZM157.425 110.94H153.61V107H165.571V110.94H161.756V118.879H157.429V110.94H157.425ZM167.472 107H171.991L174.772 111.175L177.548 107H182.067V118.879H177.752V112.992L174.772 117.215H174.698L171.714 112.992V118.879H167.472V107ZM184.221 107H188.552V114.951H194.659V118.876H184.233V107H184.221Z" fill="black"/>
<path d="M73.4958 269.677C74.239 269.105 74.7807 268.332 75.0489 267.462C75.2517 266.581 74.8543 265.527 73.9622 265.205C72.9646 264.845 71.8981 265.497 71.0912 266.159C70.2842 266.822 69.3556 267.573 68.2972 267.432C68.8412 266.966 69.2481 266.375 69.4784 265.716C69.7086 265.057 69.7543 264.353 69.6111 263.672C69.5653 263.39 69.4391 263.125 69.2461 262.906C68.6905 262.347 67.6889 262.588 67.0239 263.029C64.9153 264.431 64.3273 267.137 64.3151 269.574C64.1042 268.696 64.2827 267.78 64.2745 266.891C64.2664 266.002 64.0069 264.975 63.204 264.508C62.7061 264.255 62.147 264.13 61.582 264.144C60.6331 264.109 59.5788 264.201 58.93 264.857C58.119 265.669 58.3338 267.037 59.0354 267.922C59.7369 268.807 60.7993 269.378 61.7807 269.999C62.5672 270.441 63.2381 271.045 63.7434 271.766C63.8028 271.866 63.8517 271.971 63.8893 272.08H69.83C71.1611 271.439 72.3942 270.631 73.4958 269.677Z" fill="#8DE6DC"/>
<path d="M200.337 127.31L194.167 191.792L166.435 198.969L138.779 191.792L132.617 127.31H200.337Z" fill="#E44D26"/>
<path d="M166.679 193.221L189.009 187.46L194.253 132.675H166.679V193.221Z" fill="#F16529"/>
<path d="M155.363 147.104H167.486V139.189H145.998L146.203 141.313L148.311 163.124H167.49V155.209H156.148L155.363 147.104ZM157.311 167.082H148.716L149.915 179.51L167.449 184.024H167.49V175.764H167.453L157.908 173.383L157.311 167.082Z" fill="#EBEBEB"/>
<path d="M167.085 163.126H177.439L176.463 173.392L167.085 175.773V184.024L184.328 179.526L184.452 178.188L186.428 157.35L186.633 155.226H167.085V163.141V163.126ZM167.085 147.089V147.108H187.4L187.569 145.327L187.971 141.313L188.171 139.189H167.085V147.085V147.089Z" fill="white"/>
<path d="M191.728 243.803C191.728 243.803 188.33 248.019 193.297 254.342C198.265 260.664 202.368 266.037 200.702 269.992C200.702 269.992 193.208 258.216 187.109 258.051C181.01 257.886 185.017 250.885 191.728 243.803Z" fill="#8DE6DC"/>
<path opacity="0.1" d="M191.727 243.803C191.424 244.208 191.184 244.652 191.013 245.122C185.061 251.728 181.894 257.894 187.611 258.051C192.94 258.197 199.33 267.198 200.863 269.474C200.813 269.65 200.752 269.822 200.681 269.992C200.681 269.992 193.187 258.216 187.088 258.051C180.989 257.886 185.016 250.885 191.727 243.803Z" fill="black"/>
<path d="M185.41 249.157C185.41 250.636 185.584 251.839 185.815 251.839C186.046 251.839 186.221 250.64 186.221 249.157C186.221 247.674 186.002 248.39 185.787 248.39C185.572 248.39 185.41 247.678 185.41 249.157Z" fill="#FFD037"/>
<path d="M183.24 250.92C184.614 251.629 185.811 252.069 185.912 251.874C186.013 251.678 184.987 250.973 183.613 250.268C182.238 249.563 182.782 250.077 182.676 250.268C182.571 250.46 181.869 250.211 183.24 250.92Z" fill="#FFD037"/>
<path d="M209.667 243.803C209.667 243.803 213.066 248.019 208.098 254.342C203.131 260.664 199.035 266.033 200.693 269.988C200.693 269.988 208.187 258.212 214.286 258.047C220.385 257.882 216.387 250.885 209.667 243.803Z" fill="#8DE6DC"/>
<path opacity="0.1" d="M209.667 243.803C209.964 244.21 210.197 244.653 210.361 245.122C216.314 251.728 219.481 257.894 213.763 258.051C208.435 258.197 202.044 267.198 200.511 269.474C200.562 269.65 200.622 269.822 200.693 269.992C200.693 269.992 208.187 258.216 214.286 258.051C220.385 257.886 216.387 250.885 209.667 243.803Z" fill="black"/>
<path d="M215.993 249.157C215.993 250.636 215.819 251.839 215.588 251.839C215.357 251.839 215.182 250.64 215.182 249.157C215.182 247.674 215.401 248.39 215.616 248.39C215.831 248.39 215.993 247.678 215.993 249.157Z" fill="#FFD037"/>
<path d="M218.163 250.92C216.789 251.629 215.593 252.069 215.491 251.874C215.39 251.678 216.416 250.973 217.79 250.268C219.165 249.563 218.622 250.077 218.727 250.268C218.833 250.46 219.534 250.211 218.163 250.92Z" fill="#FFD037"/>
<path d="M214.911 269.44C214.911 269.44 205.41 269.164 202.547 267.236C199.684 265.309 187.949 263.021 187.223 266.087C186.497 269.152 172.945 281.457 183.671 281.537C194.396 281.618 208.593 279.958 211.452 278.315C214.311 276.671 214.911 269.44 214.911 269.44Z" fill="#A8A8A8"/>
<path opacity="0.2" d="M183.48 280.472C194.206 280.553 208.403 278.893 211.262 277.249C213.439 275.996 214.307 271.501 214.595 269.428H214.911C214.911 269.428 214.311 276.671 211.452 278.315C208.593 279.959 194.396 281.622 183.671 281.537C180.573 281.514 179.506 280.472 179.563 278.932C179.993 279.874 181.173 280.457 183.48 280.472Z" fill="black"/>
<path opacity="0.1" d="M128.709 296C81.3733 296 43.0004 288.952 43.0004 280.258C43.0004 271.564 81.3733 264.516 128.709 264.516C176.044 264.516 214.417 271.564 214.417 280.258C214.417 288.952 176.044 296 128.709 296Z" fill="#8DE6DC"/>
<path d="M114.596 272.54C114.596 272.54 111.803 276.429 114.385 279.291C116.967 282.152 112.939 283.295 112.939 283.295L107.52 282.305L105.633 280.821C105.633 280.821 107.979 275.095 107.434 272.727C106.889 270.359 114.596 272.54 114.596 272.54Z" fill="#FFB8B8"/>
<path d="M114.596 272.54C114.596 272.54 111.803 276.429 114.385 279.291C116.967 282.152 112.939 283.295 112.939 283.295L107.52 282.305L105.633 280.821C105.633 280.821 107.979 275.095 107.434 272.727C106.889 270.359 114.596 272.54 114.596 272.54Z" fill="#FFB8B8"/>
<path d="M113.353 275.879C113.353 275.879 113.246 277.179 113.508 277.625C115.974 280.456 112.492 286.278 112.492 286.278L105.255 280.701L106.985 277.03C106.985 277.03 106.766 277.615 107.216 275.969C109.012 276.275 113.353 275.879 113.353 275.879Z" fill="#B9B4DA"/>
<path d="M121.091 272.541C121.091 272.541 118.299 276.43 120.88 279.292C123.462 282.154 119.434 283.296 119.434 283.296L114.016 282.307L112.128 280.823C112.128 280.823 114.474 275.096 113.929 272.728C113.384 270.36 121.091 272.541 121.091 272.541Z" fill="#FFB8B8"/>
<path d="M119.409 275.522C119.409 275.522 119.285 276.683 119.508 277.075C121.633 279.555 118.416 284.81 118.416 284.81L113.774 283.974L113.735 276.664C113.735 276.664 113.527 277.19 113.963 275.714C115.549 275.954 119.409 275.522 119.409 275.522Z" fill="#B9B4DA"/>
<path d="M121.091 272.541C121.091 272.541 118.299 276.43 120.88 279.292C123.462 282.154 119.434 283.296 119.434 283.296L114.016 282.307L112.128 280.823C112.128 280.823 114.474 275.096 113.929 272.728C113.384 270.36 121.091 272.541 121.091 272.541Z" fill="#FFB8B8"/>
<path d="M119.877 275.78C119.877 275.78 119.769 277.08 120.031 277.526C122.497 280.357 119.248 283.767 119.248 283.767L111.949 281.085L113.509 276.931C113.509 276.931 113.289 277.516 113.74 275.87C115.535 276.176 119.877 275.78 119.877 275.78Z" fill="#B9B4DA"/>
<path d="M113.054 277.397C113.541 278.048 114.15 278.62 114.863 279.096C116.02 279.856 117.883 278.613 117.883 278.613C117.883 278.613 119.805 276.325 120.507 276.808C121.21 277.29 124.888 279.644 124.888 279.644C124.888 279.644 135.544 282.308 128.245 285.912C120.206 286.062 112.253 285.717 112.253 285.717C112.253 285.717 111.935 286.124 111.294 284.597C110.652 283.07 113.054 277.397 113.054 277.397Z" fill="#222132"/>
<path d="M106.272 277.985C106.691 278.678 107.239 279.302 107.902 279.839C108.977 280.7 110.956 279.63 110.956 279.63C110.956 279.63 113.1 277.526 113.75 278.07C114.401 278.613 117.826 281.287 117.826 281.287C117.826 281.287 128.164 284.897 120.536 287.828C112.518 287.255 104.636 286.196 104.636 286.196C104.636 286.196 104.278 286.573 103.794 284.994C103.309 283.416 106.272 277.985 106.272 277.985Z" fill="#2F2E41"/>
<path d="M111.935 273.693C113.667 274.594 115.179 274.46 117.207 274.651C121.059 274.46 120.857 273.885 120.857 273.885C121.262 271.202 127.953 251.659 127.953 251.659C133.788 249.003 132.008 242.079 132.008 242.079L133.225 222.919L133.022 216.596L132.008 210.656L129.981 203.95L127.547 198.777L125.856 199.026L121.087 202.474L116.562 205.755C116.267 206.798 116.077 207.866 115.994 208.943C115.467 216.45 121.748 218.216 121.748 218.216C121.748 218.216 119.153 225.773 121.534 232.721C123.914 239.668 119.806 245.795 119.806 245.795C119.806 245.795 112.024 267.04 113.318 268.266C114.611 269.493 111.935 273.693 111.935 273.693Z" fill="#262626"/>
<path opacity="0.05" d="M113.154 274.076C114.573 274.076 115.546 274.383 117.209 274.46C120.988 274.628 122.886 273.693 122.886 273.693C121.872 271.202 128.36 252.042 128.36 252.042C133.835 249.36 132.213 242.271 132.213 242.271L133.227 225.984L132.415 217.937L131.806 210.848L129.576 202.801L126.779 199.735L122.01 203.184L117.485 206.464C117.19 207.508 117 208.575 116.917 209.652C116.39 217.159 122.671 218.926 122.671 218.926C122.671 218.926 120.076 226.483 122.456 233.43C124.837 240.378 120.729 246.505 120.729 246.505C120.729 246.505 112.947 267.75 114.241 268.976C115.534 270.202 113.154 274.076 113.154 274.076Z" fill="black"/>
<path d="M107.072 273.31C111.533 274.459 113.966 274.076 113.966 274.076C113.629 274.076 111.533 274.076 113.966 274.076C114.574 270.053 122.481 251.084 122.481 251.084C128.317 248.428 127.55 242.654 127.55 242.654L130.506 226.367L130.997 218.129L130.506 209.993L129.779 203.95L128.968 201.843L127.549 198.777L121.873 199.735L118.426 200.31H108.486C106.457 203.95 106.867 208.357 106.868 208.932C107.678 215.446 112.95 218.129 112.95 218.129C112.95 218.129 115.061 227.514 115.79 234.798C118.171 241.745 113.56 249.743 113.56 249.743C113.56 249.743 107.68 268.328 107.275 271.969C107.058 273.916 107.072 273.31 107.072 273.31Z" fill="#313132"/>
<path d="M113.124 184.418L115.841 184.882L114.113 188.035L112.26 188.966L110.533 190.131L110.038 188.851L111.275 186.399L113.124 184.418Z" fill="#FDC2CC"/>
<path d="M115.099 184.651H116.579V186.636L115.099 189.786C115.099 189.786 113.124 190.135 112.998 190.135C112.873 190.135 111.271 189.786 111.271 189.786L110.776 188.97C110.776 188.97 116.21 186.981 115.099 184.651Z" fill="#E6E6F0"/>
<path d="M113.627 156.544C113.627 156.544 108.87 162.874 110.602 167.166C112.333 171.458 101.523 162.671 101.523 162.671C101.523 162.671 104.982 156.927 103.25 150.796L113.627 156.544Z" fill="#FDC2CC"/>
<path d="M97.6764 172.719C98.4468 177.103 103.218 182.837 106.664 190.155C108.287 193.604 107.272 195.712 108.489 200.885C110.719 200.925 109.908 200.885 109.908 200.885C112.341 201.076 116.802 200.502 116.802 200.502C116.802 200.502 118.423 200.502 123.087 199.735C127.953 198.935 127.547 198.777 127.547 198.777C125.114 193.796 121.059 178.276 121.059 178.276C121.059 178.276 121.54 174.061 120.652 172.719C119.765 171.378 115.806 167.546 114.975 166.971C111.373 164.481 110.971 162.459 110.92 161.99C108.11 161.787 106.046 160.422 106.046 160.422L100.641 159.606V162.261C100.577 162.288 100.517 162.323 100.462 162.365C98.7547 162.948 98.4347 164.822 97.6764 166.971C97.0555 168.712 97.3563 170.908 97.6764 172.719Z" fill="#C1BAE8"/>
<path d="M116.375 174.635C117.145 179.019 120.454 189.926 123.899 197.244C125.523 200.693 107.295 195.988 108.512 201.161C110.743 201.202 109.932 201.161 109.932 201.161C112.365 201.353 116.825 200.778 116.825 200.778C116.825 200.778 118.447 200.778 123.11 200.012C127.976 199.212 127.571 199.054 127.571 199.054C125.138 194.072 121.083 178.552 121.083 178.552C121.083 178.552 121.542 173.869 120.655 172.528C119.768 171.187 116.306 167.944 115.586 167.248C112.676 164.431 112.139 164.48 111.937 164.097C109.126 163.894 105.854 161.99 105.854 161.99L103.826 161.223L101.596 161.99C101.895 161.721 101.596 161.36 101.596 161.99C99.8885 162.573 104.84 161.99 110.112 166.78C111.531 168.069 116.055 172.824 116.375 174.635Z" fill="#313132"/>
<path d="M122.478 192.454L124.742 192.19L142.092 190.168C152.605 186.825 145.945 181.725 145.945 181.725L138.941 188.409C136.921 188.815 128.993 187.868 125.442 187.419C124.377 187.281 123.704 187.188 123.704 187.188L122.478 192.454Z" fill="#FDC2CC"/>
<path opacity="0.1" d="M101.522 164.901C101.522 164.901 107.142 160.613 115.589 174.5C124.036 188.388 125.966 186.142 125.966 186.142C125.966 186.142 124.238 192.273 125.102 193.496C125.102 193.496 119.267 193.086 117.105 193.496C114.944 193.906 101.542 177.972 101.542 177.972C101.542 177.972 94.6038 168.986 101.522 164.901Z" fill="black"/>
<path opacity="0.1" d="M101.629 164.339C101.629 164.339 107.249 160.051 115.68 173.938C124.11 187.825 126.057 185.58 126.057 185.58C126.057 185.58 119.358 192.524 117.196 192.934C115.035 193.344 101.633 177.41 101.633 177.41C101.633 177.41 94.7108 168.424 101.629 164.339Z" fill="black"/>
<path opacity="0.1" d="M125.281 192.181C125.192 190.668 125.796 188.008 126.145 186.629C124.831 186.468 123.999 186.361 123.999 186.361L122.487 192.492L125.281 192.181Z" fill="black"/>
<path d="M101.522 164.491C101.522 164.491 107.142 160.203 115.589 174.094C124.036 187.985 125.966 185.736 125.966 185.736C125.966 185.736 124.238 191.867 125.102 193.09C125.102 193.09 119.267 192.68 117.105 193.09C114.944 193.5 101.542 177.566 101.542 177.566C101.542 177.566 94.6038 168.576 101.522 164.491Z" fill="#C1BAE8"/>
<path opacity="0.1" d="M103.019 151.213L113.412 156.927C112.972 157.53 112.566 158.154 112.196 158.797C111.598 158.912 110.989 158.969 110.379 158.969C107.609 158.969 106.324 156.222 104.649 154.371C104.771 152.899 103.497 152.861 103.019 151.213Z" fill="black"/>
<path d="M110.601 158.571C105.587 158.571 101.522 154.729 101.522 149.991C101.522 145.252 105.587 141.411 110.601 141.411C115.616 141.411 119.681 145.252 119.681 149.991C119.681 154.729 115.616 158.571 110.601 158.571Z" fill="#FDC2CC"/>
<path d="M119.413 144.906C118.882 146.162 117.297 146.638 115.906 146.963C113.919 147.423 111.778 147.875 109.876 147.163C109.629 147.032 109.345 146.979 109.065 147.013C108.839 147.099 108.65 147.254 108.53 147.454C106.433 150.274 106.774 154.033 106.23 157.444C106.06 158.505 105.772 159.601 105.014 160.395C103.538 161.927 100.752 161.87 99.3935 163.498C98.4973 164.571 98.4892 166.062 98.4973 167.43C98.4973 168.889 98.4838 170.349 98.4568 171.81C98.4324 172.768 98.3837 173.761 97.9255 174.611C97.1469 176.052 95.4114 176.738 93.8096 177.294C92.8121 177.646 91.7821 178.003 90.7115 177.907C89.641 177.811 88.5704 177.141 88.4326 176.129C88.242 174.757 89.7383 173.799 90.7683 172.81C92.4147 171.235 93.0919 168.944 93.1527 166.729C93.2106 165.834 93.0725 164.938 92.7472 164.096C92.3701 163.226 91.6969 162.495 91.2914 161.636C90.0424 158.992 91.5834 155.934 93.4284 153.62C95.2735 151.305 97.5403 149.048 97.9336 146.178C97.9679 145.557 98.0616 144.94 98.2134 144.335C98.4973 143.499 99.1704 141.192 99.9125 140.663C101.101 139.818 102.495 139.269 103.968 139.069C105.107 138.912 106.271 138.97 107.402 138.763C108.724 138.521 109.953 137.927 111.275 137.705C114.134 137.226 117.236 140.365 118.489 142.84C118.834 143.599 119.738 144.135 119.413 144.906Z" fill="#F28B5C"/>
<path d="M106.259 161.415L109.706 162.565L110.517 162.948L116.194 168.46H114.166L106.259 161.415Z" fill="#C1BAE8"/>
<path d="M110.001 153.001C110.001 153.001 110.001 153 110.001 153C110 153 110 153.001 110 153.001" stroke="#CE7952" stroke-width="0.2" stroke-linecap="round" stroke-linejoin="round"/>
<path d="M104.001 154.001C104.001 154.001 104.001 154 104.001 154C104 154 104 154.001 104 154.001" stroke="#CE7952" stroke-width="0.2" stroke-linecap="round" stroke-linejoin="round"/>
<path d="M104.001 156.001C104.001 156.001 104.001 156 104.001 156C104 156 104 156.001 104 156.001" stroke="#CE7952" stroke-width="0.2" stroke-linecap="round" stroke-linejoin="round"/>
<path d="M108.001 153.001C108.001 153.001 108.001 153 108.001 153C108 153 108 153.001 108 153.001" stroke="#CE7952" stroke-width="0.2" stroke-linecap="round" stroke-linejoin="round"/>
<path d="M109.001 154.001C109.001 154.001 109.001 154 109.001 154C109 154 109 154.001 109 154.001" stroke="#CE7952" stroke-width="0.2" stroke-linecap="round" stroke-linejoin="round"/>
<path d="M102.001 155.001C102.001 155.001 102.001 155 102.001 155C102 155 102 155.001 102 155.001" stroke="#CE7952" stroke-width="0.2" stroke-linecap="round" stroke-linejoin="round"/>
<path d="M106.001 154.001C106.001 154.001 106.001 154 106.001 154C106 154 106 154.001 106 154.001" stroke="#CE7952" stroke-width="0.2" stroke-linecap="round" stroke-linejoin="round"/>
</g>
<defs>
<clipPath id="clip0">
<rect width="520" height="388" fill="white"/>
</clipPath>
</defs>
</svg>
