<svg width="443" height="390" viewBox="0 0 443 390" fill="none" xmlns="http://www.w3.org/2000/svg">
<path opacity="0.1" d="M53.2904 73.7357C57.3276 49.6468 78.1778 32.0003 102.603 32.0003H392.285C419.899 32.0003 442.285 54.3861 442.285 82.0003V340C442.285 367.615 419.899 390 392.285 390H59.3624C28.4471 390 4.94011 362.226 10.0502 331.736L53.2904 73.7357Z" fill="#68C9BA"/>
<path d="M410.014 126.03C435.738 155.207 405.363 183.381 351.903 184.141C245.616 177.137 221.631 83.0076 229.664 61.903C237.697 40.7983 261.615 40.2223 297.054 83.2153C332.493 126.208 377.858 89.5574 410.014 126.03Z" stroke="white" stroke-width="1.5"/>
<ellipse cx="305.633" cy="91.1504" rx="16.8481" ry="9.95569" transform="rotate(20.7184 305.633 91.1504)" stroke="white" stroke-width="1.5"/>
</svg>
