<svg width="176" height="189" viewBox="0 0 176 189" fill="none" xmlns="http://www.w3.org/2000/svg">
<path d="M82.7716 82.8577C82.7716 82.8577 95.7817 84.5534 98.4935 84.0444L105.721 77.5985C105.721 77.5985 112.588 82.5172 101.744 85.7402L81.5072 87.945L82.7716 82.8577Z" fill="#FDC2CC"/>
<path opacity="0.05" d="M82.7715 83.0652C82.7715 83.0652 95.7816 85.075 98.4935 84.4717L105.838 77.407C105.838 77.407 112.588 82.6618 101.744 86.4815L81.5072 89.0947L82.7715 83.0652Z" fill="black"/>
<path d="M96.1045 0H100.436V3.92121H104.397V0H108.729V11.8793H104.397V7.9021H100.436V11.8793H96.1045V0ZM114.425 3.93986H110.61V0H122.571V3.93986H118.756V11.8793H114.429V3.93986H114.425ZM124.472 0H128.991L131.772 4.17491L134.548 0H139.067V11.8793H134.752V5.99187L131.772 10.2153H131.698L128.714 5.99187V11.8793H124.472V0ZM141.221 0H145.552V7.95061H151.659V11.8756H141.233V0H141.221Z" fill="black"/>
<path d="M30.4958 162.677C31.239 162.104 31.7807 161.332 32.0489 160.462C32.2517 159.581 31.8543 158.527 30.9622 158.205C29.9646 157.845 28.8981 158.496 28.0912 159.159C27.2842 159.822 26.3556 160.573 25.2972 160.431C25.8412 159.965 26.2481 159.374 26.4784 158.715C26.7086 158.057 26.7543 157.353 26.6111 156.672C26.5653 156.39 26.4391 156.125 26.2461 155.906C25.6905 155.346 24.6889 155.588 24.0239 156.028C21.9153 157.431 21.3273 160.136 21.3151 162.574C21.1042 161.696 21.2827 160.78 21.2745 159.891C21.2664 159.002 21.0069 157.975 20.204 157.508C19.7061 157.255 19.147 157.129 18.582 157.144C17.6331 157.109 16.5788 157.201 15.93 157.856C15.119 158.669 15.3338 160.037 16.0354 160.922C16.7369 161.807 17.7993 162.378 18.7807 162.999C19.5672 163.441 20.2381 164.045 20.7434 164.765C20.8028 164.865 20.8517 164.971 20.8893 165.08H26.83C28.1611 164.439 29.3942 163.631 30.4958 162.677Z" fill="#8DE6DC"/>
<path d="M157.337 20.3098L151.167 84.7915L123.435 91.9687L95.7791 84.7915L89.6172 20.3098H157.337Z" fill="#E44D26"/>
<path d="M123.679 86.2207L146.009 80.4598L151.253 25.6747H123.679V86.2207Z" fill="#F16529"/>
<path d="M112.363 40.1043H124.486V32.189H102.998L103.203 34.3133L105.311 56.124H124.49V48.2086H113.148L112.363 40.1043ZM114.311 60.0816H105.716L106.915 72.5103L124.449 77.0236H124.49V68.7643H124.453L114.908 66.3829L114.311 60.0816Z" fill="#EBEBEB"/>
<path d="M124.085 56.1257H134.439L133.463 66.3914L124.085 68.7726V77.0236L141.328 72.5258L141.452 71.1878L143.428 50.3504L143.633 48.2262H124.085V56.1409V56.1257ZM124.085 40.0885V40.1074H144.4L144.569 38.3272L144.971 34.3131L145.171 32.189H124.085V40.0847V40.0885Z" fill="white"/>
<path d="M148.728 136.803C148.728 136.803 145.33 141.019 150.297 147.341C155.265 153.664 159.368 159.037 157.702 162.991C157.702 162.991 150.208 151.216 144.109 151.051C138.01 150.886 142.017 143.885 148.728 136.803Z" fill="#8DE6DC"/>
<path opacity="0.1" d="M148.727 136.803C148.424 137.208 148.184 137.652 148.013 138.122C142.061 144.728 138.894 150.894 144.611 151.051C149.94 151.196 156.33 160.198 157.863 162.474C157.813 162.65 157.752 162.822 157.681 162.991C157.681 162.991 150.187 151.216 144.088 151.051C137.989 150.886 142.016 143.885 148.727 136.803Z" fill="black"/>
<path d="M142.41 142.157C142.41 143.636 142.584 144.839 142.815 144.839C143.046 144.839 143.221 143.64 143.221 142.157C143.221 140.674 143.002 141.39 142.787 141.39C142.572 141.39 142.41 140.678 142.41 142.157Z" fill="#FFD037"/>
<path d="M140.24 143.919C141.614 144.628 142.811 145.069 142.912 144.874C143.013 144.678 141.987 143.973 140.613 143.268C139.238 142.563 139.782 143.076 139.676 143.268C139.571 143.46 138.869 143.211 140.24 143.919Z" fill="#FFD037"/>
<path d="M166.667 136.803C166.667 136.803 170.066 141.019 165.098 147.341C160.131 153.664 156.035 159.033 157.693 162.988C157.693 162.988 165.187 151.212 171.286 151.047C177.385 150.882 173.387 143.885 166.667 136.803Z" fill="#8DE6DC"/>
<path opacity="0.1" d="M166.667 136.803C166.964 137.209 167.197 137.653 167.361 138.122C173.314 144.728 176.481 150.894 170.763 151.051C165.435 151.196 159.044 160.198 157.511 162.474C157.562 162.65 157.622 162.822 157.693 162.991C157.693 162.991 165.187 151.216 171.286 151.051C177.385 150.886 173.387 143.885 166.667 136.803Z" fill="black"/>
<path d="M172.993 142.157C172.993 143.636 172.819 144.839 172.588 144.839C172.357 144.839 172.182 143.64 172.182 142.157C172.182 140.674 172.401 141.39 172.616 141.39C172.831 141.39 172.993 140.678 172.993 142.157Z" fill="#FFD037"/>
<path d="M175.163 143.919C173.789 144.628 172.593 145.069 172.491 144.874C172.39 144.678 173.416 143.973 174.79 143.268C176.165 142.563 175.622 143.076 175.727 143.268C175.833 143.46 176.534 143.211 175.163 143.919Z" fill="#FFD037"/>
<path d="M171.911 162.439C171.911 162.439 162.41 162.164 159.547 160.236C156.684 158.309 144.949 156.021 144.223 159.086C143.497 162.152 129.945 174.457 140.671 174.537C151.396 174.618 165.593 172.958 168.452 171.314C171.311 169.67 171.911 162.439 171.911 162.439Z" fill="#A8A8A8"/>
<path opacity="0.2" d="M140.48 173.472C151.206 173.552 165.403 171.893 168.262 170.249C170.439 168.996 171.307 164.501 171.595 162.428H171.911C171.911 162.428 171.311 169.671 168.452 171.315C165.593 172.958 151.396 174.622 140.671 174.537C137.573 174.514 136.506 173.472 136.563 171.932C136.993 172.874 138.173 173.457 140.48 173.472Z" fill="black"/>
<path opacity="0.1" d="M85.7087 189C38.3733 189 0.000366211 181.952 0.000366211 173.258C0.000366211 164.564 38.3733 157.516 85.7087 157.516C133.044 157.516 171.417 164.564 171.417 173.258C171.417 181.952 133.044 189 85.7087 189Z" fill="#8DE6DC"/>
<path d="M71.596 165.539C71.596 165.539 68.8034 169.429 71.385 172.291C73.9666 175.152 69.9392 176.294 69.9392 176.294L64.5205 175.305L62.6328 173.821C62.6328 173.821 64.9792 168.095 64.4343 165.727C63.8893 163.359 71.596 165.539 71.596 165.539Z" fill="#FFB8B8"/>
<path d="M71.596 165.539C71.596 165.539 68.8034 169.429 71.385 172.291C73.9666 175.152 69.9392 176.294 69.9392 176.294L64.5205 175.305L62.6328 173.821C62.6328 173.821 64.9792 168.095 64.4343 165.727C63.8893 163.359 71.596 165.539 71.596 165.539Z" fill="#FFB8B8"/>
<path d="M70.3533 168.879C70.3533 168.879 70.2457 170.179 70.508 170.624C72.9741 173.456 69.4918 179.278 69.4918 179.278L62.2546 173.701L63.9854 170.029C63.9854 170.029 63.766 170.615 64.2165 168.969C66.0116 169.275 70.3533 168.879 70.3533 168.879Z" fill="#B9B4DA"/>
<path d="M78.0911 165.541C78.0911 165.541 75.2986 169.43 77.8802 172.292C80.4618 175.154 76.4343 176.296 76.4343 176.296L71.0156 175.307L69.128 173.822C69.128 173.822 71.4743 168.096 70.9294 165.728C70.3844 163.36 78.0911 165.541 78.0911 165.541Z" fill="#FFB8B8"/>
<path d="M76.4088 168.522C76.4088 168.522 76.2848 169.683 76.5077 170.075C78.6332 172.555 75.4163 177.81 75.4163 177.81L70.7736 176.974L70.7345 169.664C70.7345 169.664 70.5271 170.19 70.9628 168.714C72.5485 168.954 76.4088 168.522 76.4088 168.522Z" fill="#B9B4DA"/>
<path d="M78.0911 165.541C78.0911 165.541 75.2986 169.43 77.8802 172.292C80.4618 175.154 76.4343 176.296 76.4343 176.296L71.0156 175.307L69.128 173.822C69.128 173.822 71.4743 168.096 70.9294 165.728C70.3844 163.36 78.0911 165.541 78.0911 165.541Z" fill="#FFB8B8"/>
<path d="M76.8768 168.78C76.8768 168.78 76.7691 170.08 77.0314 170.525C79.4975 173.357 76.2476 176.767 76.2476 176.767L68.9487 174.085L70.5088 169.93C70.5088 169.93 70.2895 170.516 70.7399 168.87C72.535 169.176 76.8768 168.78 76.8768 168.78Z" fill="#B9B4DA"/>
<path d="M70.0544 170.396C70.5412 171.048 71.1502 171.62 71.8634 172.095C73.0204 172.856 74.8826 171.613 74.8826 171.613C74.8826 171.613 76.8054 169.325 77.5075 169.807C78.2096 170.29 81.8883 172.644 81.8883 172.644C81.8883 172.644 92.5439 175.308 85.2454 178.911C77.2058 179.062 69.2533 178.717 69.2533 178.717C69.2533 178.717 68.9351 179.124 68.2937 177.597C67.6523 176.069 70.0544 170.396 70.0544 170.396Z" fill="#222132"/>
<path d="M63.2719 170.985C63.6909 171.677 64.2394 172.302 64.9015 172.839C65.9767 173.7 67.9556 172.63 67.9556 172.63C67.9556 172.63 70.1002 170.526 70.7504 171.069C71.4007 171.613 74.8256 174.287 74.8256 174.287C74.8256 174.287 85.1645 177.897 77.5361 180.828C69.5179 180.254 61.6363 179.196 61.6363 179.196C61.6363 179.196 61.2785 179.572 60.7938 177.994C60.3092 176.416 63.2719 170.985 63.2719 170.985Z" fill="#2F2E41"/>
<path d="M68.9354 166.693C70.6672 167.594 72.1795 167.459 74.207 167.651C78.0593 167.459 77.8566 166.885 77.8566 166.885C78.2621 164.202 84.953 144.659 84.953 144.659C90.7883 142.003 89.0081 135.079 89.0081 135.079L90.2246 115.919L90.0219 109.596L89.0081 103.656L86.9805 96.9502L84.5475 91.777L82.8563 92.0255L78.0875 95.4743L73.562 98.7545C73.2672 99.798 73.0771 100.865 72.9943 101.943C72.4671 109.45 78.7484 111.216 78.7484 111.216C78.7484 111.216 76.1532 118.773 78.5335 125.72C80.9139 132.668 76.8061 138.795 76.8061 138.795C76.8061 138.795 69.0243 160.04 70.3179 161.266C71.6115 162.493 68.9354 166.693 68.9354 166.693Z" fill="#262626"/>
<path opacity="0.05" d="M70.1539 167.076C71.5732 167.076 72.5464 167.383 74.209 167.459C77.9883 167.628 79.8861 166.693 79.8861 166.693C78.8724 164.202 85.3605 145.042 85.3605 145.042C90.8348 142.36 89.2128 135.27 89.2128 135.27L90.2266 118.984L89.4148 110.937L88.8065 103.848L86.5762 95.8006L83.779 92.735L79.0102 96.1838L74.4847 99.464C74.1899 100.508 73.9998 101.575 73.917 102.652C73.3898 110.159 79.6712 111.926 79.6712 111.926C79.6712 111.926 77.0759 119.483 79.4562 126.43C81.8366 133.377 77.7288 139.505 77.7288 139.505C77.7288 139.505 69.9471 160.75 71.2406 161.976C72.5342 163.202 70.1539 167.076 70.1539 167.076Z" fill="black"/>
<path d="M64.0721 166.31C68.5327 167.459 70.9657 167.076 70.9657 167.076C70.6294 167.076 68.5327 167.076 70.9657 167.076C71.574 163.052 79.4814 144.084 79.4814 144.084C85.3167 141.428 84.5502 135.653 84.5502 135.653L87.5061 119.367L87.9971 111.129L87.5061 102.992L86.7794 96.9502L85.9683 94.8426L84.5491 91.777L78.8731 92.735L75.4263 93.3098H65.4858C63.4571 96.9502 63.8673 101.357 63.8677 101.932C64.6783 108.446 69.95 111.129 69.95 111.129C69.95 111.129 72.0609 120.514 72.7905 127.798C75.1708 134.745 70.5602 142.743 70.5602 142.743C70.5602 142.743 64.6803 161.328 64.2748 164.968C64.0579 166.916 64.0721 166.31 64.0721 166.31Z" fill="#313132"/>
<path d="M70.1239 77.4177L72.8408 77.8814L71.1134 81.0351L69.2602 81.9663L67.5327 83.1313L67.038 81.8514L68.2748 79.3989L70.1239 77.4177Z" fill="#FDC2CC"/>
<path d="M72.099 77.6514H73.5791V79.6364L72.099 82.7863C72.099 82.7863 70.1242 83.135 69.9985 83.135C69.8727 83.135 68.271 82.7863 68.271 82.7863L67.7763 81.9701C67.7763 81.9701 73.2101 79.9812 72.099 77.6514Z" fill="#E6E6F0"/>
<path d="M70.627 49.5434C70.627 49.5434 65.8703 55.874 67.6019 60.1658C69.3334 64.4577 58.5225 55.6708 58.5225 55.6708C58.5225 55.6708 61.9815 49.9266 60.25 43.7954L70.627 49.5434Z" fill="#FDC2CC"/>
<path d="M54.6764 65.7193C55.4468 70.1031 60.2183 75.8367 63.6637 83.155C65.2873 86.6038 64.272 88.7114 65.4889 93.8847C67.7192 93.9251 66.9082 93.8847 66.9082 93.8847C69.3412 94.0763 73.8018 93.5015 73.8018 93.5015C73.8018 93.5015 75.4235 93.5015 80.0868 92.7351C84.9529 91.9353 84.5473 91.7771 84.5473 91.7771C82.1143 86.7954 78.0592 71.2757 78.0592 71.2757C78.0592 71.2757 78.5396 67.0605 77.6521 65.7193C76.7647 64.3781 72.8063 60.5461 71.975 59.9713C68.373 57.4804 67.9708 55.4585 67.9199 54.9896C65.1098 54.7865 63.0461 53.4217 63.0461 53.4217L57.6406 52.6055V55.2611C57.5767 55.2881 57.5167 55.3229 57.4622 55.3645C55.7547 55.9476 55.4347 57.8215 54.6764 59.9713C54.0555 61.7119 54.3563 63.9075 54.6764 65.7193Z" fill="#C1BAE8"/>
<path d="M73.3749 67.6352C74.1454 72.0191 77.4537 82.9259 80.899 90.2442C82.5227 93.693 64.2954 88.9879 65.5124 94.1611C67.7427 94.2016 66.9316 94.1611 66.9316 94.1611C69.3647 94.3528 73.8253 93.7779 73.8253 93.7779C73.8253 93.7779 75.4469 93.7779 80.1103 93.0115C84.9764 92.2118 84.5708 92.0535 84.5708 92.0535C82.1378 87.0719 78.0827 71.5522 78.0827 71.5522C78.0827 71.5522 78.5424 66.8688 77.655 65.5276C76.7676 64.1864 73.3057 60.9442 72.5861 60.2477C69.6759 57.4309 69.1393 57.4804 68.9365 57.0972C66.1264 56.8941 62.8539 54.9895 62.8539 54.9895L60.8264 54.2231L58.5961 54.9895C58.8954 54.7213 58.5961 54.3597 58.5961 54.9895C56.8885 55.5727 61.8401 54.9895 67.1117 59.7796C68.531 61.0692 73.0549 65.8234 73.3749 67.6352Z" fill="#313132"/>
<path d="M79.4783 85.4543L81.7419 85.1903L99.0918 83.1678C109.605 79.8255 102.945 74.7246 102.945 74.7246L95.9411 81.4092C93.9207 81.815 85.9932 80.8681 82.4417 80.4194C81.3773 80.2808 80.7038 80.1884 80.7038 80.1884L79.4783 85.4543Z" fill="#FDC2CC"/>
<path opacity="0.1" d="M58.5218 57.9011C58.5218 57.9011 64.1421 53.6131 72.5889 67.5004C81.0356 81.3876 82.9658 79.142 82.9658 79.142C82.9658 79.142 81.2384 85.2733 82.1021 86.4957C82.1021 86.4957 76.2668 86.0857 74.1055 86.4957C71.9441 86.9057 58.542 70.9722 58.542 70.9722C58.542 70.9722 51.6038 61.9861 58.5218 57.9011Z" fill="black"/>
<path opacity="0.1" d="M58.6288 57.3389C58.6288 57.3389 64.2492 53.0508 72.6797 66.9381C81.1102 80.8254 83.0566 78.5798 83.0566 78.5798C83.0566 78.5798 76.3576 85.5234 74.1963 85.9334C72.0349 86.3435 58.6329 70.4099 58.6329 70.4099C58.6329 70.4099 51.7108 61.4238 58.6288 57.3389Z" fill="black"/>
<path opacity="0.1" d="M82.2808 85.1813C82.1916 83.6677 82.7958 81.0082 83.1445 79.6287C81.8307 79.4678 80.9994 79.3605 80.9994 79.3605L79.4868 85.4917L82.2808 85.1813Z" fill="black"/>
<path d="M58.5218 57.491C58.5218 57.491 64.1421 53.203 72.5889 67.0941C81.0356 80.9852 82.9658 78.7358 82.9658 78.7358C82.9658 78.7358 81.2384 84.867 82.1021 86.0894C82.1021 86.0894 76.2668 85.6794 74.1055 86.0894C71.9441 86.4994 58.542 70.5659 58.542 70.5659C58.542 70.5659 51.6038 61.5759 58.5218 57.491Z" fill="#C1BAE8"/>
<path opacity="0.1" d="M60.0189 44.2131L70.4121 49.9267C69.9723 50.5295 69.5662 51.1537 69.1956 51.7967C68.5977 51.9115 67.989 51.9692 67.3789 51.9691C64.6093 51.9691 63.3238 49.2216 61.6491 47.3707C61.7707 45.8992 60.4974 45.8609 60.0189 44.2131Z" fill="black"/>
<path d="M67.6013 51.5706C62.587 51.5706 58.522 47.7292 58.522 42.9907C58.522 38.2521 62.587 34.4108 67.6013 34.4108C72.6157 34.4108 76.6807 38.2521 76.6807 42.9907C76.6807 47.7292 72.6157 51.5706 67.6013 51.5706Z" fill="#FDC2CC"/>
<path d="M76.4134 37.9054C75.8822 39.1623 74.2967 39.6375 72.9058 39.9632C70.9188 40.423 68.7777 40.8752 66.8759 40.1625C66.6295 40.0318 66.3451 39.9794 66.0648 40.013C65.8389 40.0986 65.6503 40.2539 65.5296 40.4537C63.4331 43.2741 63.7737 47.0333 63.2303 50.4438C63.06 51.5052 62.7721 52.6012 62.0138 53.3944C60.5378 54.9272 57.7519 54.8698 56.3935 56.4984C55.4973 57.5713 55.4892 59.062 55.4973 60.43C55.4973 61.8887 55.4838 63.3488 55.4568 64.81C55.4324 65.768 55.3837 66.7605 54.9255 67.6112C54.1469 69.0521 52.4114 69.738 50.8096 70.2937C49.8121 70.6462 48.7821 71.0026 47.7115 70.9068C46.641 70.811 45.5704 70.1404 45.4326 69.1287C45.242 67.7569 46.7383 66.7989 47.7683 65.8102C49.4147 64.2352 50.0919 61.9437 50.1527 59.7288C50.2106 58.8342 50.0725 57.938 49.7472 57.0962C49.3701 56.2263 48.6969 55.4944 48.2914 54.636C47.0424 51.9919 48.5834 48.934 50.4284 46.6194C52.2735 44.3049 54.5403 42.0478 54.9336 39.1776C54.9679 38.5565 55.0616 37.9396 55.2134 37.3344C55.4973 36.499 56.1704 34.1922 56.9125 33.6633C58.1005 32.8176 59.4954 32.2693 60.9676 32.0692C62.1071 31.9121 63.2709 31.9696 64.4023 31.7627C65.7242 31.5212 66.9529 30.9273 68.2749 30.705C71.1337 30.226 74.2359 33.3644 75.4889 35.8399C75.8336 36.5987 76.7378 37.1351 76.4134 37.9054Z" fill="#F28B5C"/>
<path d="M63.2588 54.4148L66.7056 55.5644L67.5166 55.9476L73.1938 61.4599H71.1662L63.2588 54.4148Z" fill="#C1BAE8"/>
</svg>
