<svg width="24" height="24" viewBox="0 0 24 24" fill="none" xmlns="http://www.w3.org/2000/svg">
<path d="M20.4844 0H3.51562C1.57507 0 0 1.57507 0 3.51562V20.4844C0 22.4249 1.57507 24 3.51562 24H20.4844C22.4249 24 24 22.4249 24 20.4844V3.51562C24 1.57507 22.4249 0 20.4844 0Z" fill="#FF5B5B"/>
<path d="M24 3.51562V20.4844C24 22.4249 22.4249 24 20.4844 24H12V0H20.4844C22.4249 0 24 1.57507 24 3.51562Z" fill="#FF3997"/>
<path d="M19.0781 7.03125C17.915 7.03125 16.9688 6.08496 16.9688 4.92188C16.9688 3.75879 17.915 2.8125 19.0781 2.8125C20.2412 2.8125 21.1875 3.75879 21.1875 4.92188C21.1875 6.08496 20.2412 7.03125 19.0781 7.03125ZM19.0781 4.21875C18.6901 4.21875 18.375 4.53387 18.375 4.92188C18.375 5.30988 18.6901 5.625 19.0781 5.625C19.4661 5.625 19.7812 5.30988 19.7812 4.92188C19.7812 4.53387 19.4661 4.21875 19.0781 4.21875Z" fill="#E2E2E7"/>
<path d="M12 5.625C8.51257 5.625 5.67188 8.46552 5.67188 11.9531C5.67188 15.4406 8.51257 18.2812 12 18.2812C15.4874 18.2812 18.375 15.4406 18.375 11.9531C18.375 8.46552 15.4874 5.625 12 5.625ZM12 16.875C9.28601 16.875 7.07812 14.6671 7.07812 11.9531C7.07812 9.23914 9.28601 7.03125 12 7.03125C14.714 7.03125 16.9688 9.23914 16.9688 11.9531C16.9688 14.6671 14.714 16.875 12 16.875Z" fill="#ECECF1"/>
<path d="M18.375 11.9531C18.375 15.4406 15.4874 18.2812 12 18.2812V16.875C14.714 16.875 16.9688 14.6671 16.9688 11.9531C16.9688 9.23914 14.714 7.03125 12 7.03125V5.625C15.4874 5.625 18.375 8.46552 18.375 11.9531Z" fill="#E2E2E7"/>
</svg>
