<svg width="317" height="218" viewBox="0 0 317 218" fill="none" xmlns="http://www.w3.org/2000/svg">
<path opacity="0.1" d="M158.5 218C246.037 218 317 203.897 317 186.5C317 169.103 246.037 155 158.5 155C70.9629 155 0 169.103 0 186.5C0 203.897 70.9629 218 158.5 218Z" fill="#8DE6DC"/>
<path opacity="0.5" d="M155.382 42.5568C154.122 42.89 152.58 43.7578 151.82 46.131C150.331 50.7828 153.791 53.9456 152.651 58.7948C152.334 60.0812 151.732 61.2916 150.883 62.3485C149.491 64.1047 147.979 64.9355 146.512 66.1653C144.651 67.7364 143.318 69.7746 142.672 72.0345C141.964 74.5289 141.905 77.1442 142.5 79.6641C143.021 81.7699 143.909 83.3041 144.687 85.011C145.654 87.1881 146.41 89.4414 146.945 91.7439C147.239 92.8652 147.405 94.0122 147.44 95.1659C147.418 96.6987 147.271 98.2277 146.998 99.7395L144.882 113.485C144.56 115.282 144.367 117.097 144.303 118.918C144.33 120.743 144.557 122.561 144.979 124.343C145.721 127.979 146.521 131.747 148.223 133.672C149.924 135.596 152.823 134.905 154.604 131.01C156.297 127.284 156.336 122.312 157.83 118.33C160.185 112.058 164.865 111.215 167.464 105.23C169.956 99.4722 169.192 92.4472 170.456 85.8994C171.34 81.2065 173.289 76.929 174.433 72.2936C176.077 65.6183 175.914 58.6879 174.601 53.5549C173.603 49.3374 171.443 45.4339 168.335 42.2278C167.234 41.0967 166.054 40.089 164.671 39.9862C163.199 39.8793 161.913 41.6026 160.459 42.1208C158.78 42.7337 157.092 42.1044 155.382 42.5568Z" fill="#8DE6DC"/>
<path opacity="0.5" d="M163.349 40.3359C163.349 40.3359 160.857 99.7026 150.374 134.708" stroke="#535461" stroke-width="2" stroke-miterlimit="10"/>
<path opacity="0.5" d="M151.758 46.4106C151.758 46.4106 162.961 55.9034 160.835 73.9676" stroke="#535461" stroke-width="2" stroke-miterlimit="10"/>
<path opacity="0.5" d="M142.358 73.4248C142.358 73.4248 160.747 76.8674 159.381 87.1046" stroke="#535461" stroke-width="2" stroke-miterlimit="10"/>
<path opacity="0.5" d="M174.632 53.4316C174.632 53.4316 167.19 59.4942 160.562 76.6658" stroke="#535461" stroke-width="2" stroke-miterlimit="10"/>
<path opacity="0.5" d="M167.361 105.329C167.361 105.329 162.284 109.031 158.209 96.0708" stroke="#535461" stroke-width="2" stroke-miterlimit="10"/>
<path opacity="0.5" d="M145.451 112.901C145.451 112.901 155.805 111.643 156.76 105.609" stroke="#535461" stroke-width="2" stroke-miterlimit="10"/>
<path d="M180.412 2.73917C177.848 3.09289 174.764 4.19928 173.495 7.60894C171.007 14.2966 178.569 19.3597 176.828 26.3477C176.308 28.2707 175.214 30.0176 173.672 31.3861C171.021 33.8168 167.989 34.878 165.117 36.5273C162.244 38.1766 159.261 40.7719 157.913 44.7532C156.618 48.5824 157.18 52.8105 158.527 55.9693C159.875 59.1281 161.913 61.4848 163.733 64.0842C165.946 67.2837 167.796 70.6883 169.253 74.2433C169.988 75.8636 170.482 77.5698 170.72 79.3146C170.954 81.4533 170.658 83.7525 170.362 86.0023L167.733 106.049C167.384 108.714 167.03 111.42 167.229 113.987C167.454 116.944 168.396 119.527 169.324 122.048C171.321 127.486 173.46 133.153 177.23 136.148C180.999 139.142 186.912 138.5 190.099 132.931C193.13 127.63 192.573 120.313 195.159 114.616C199.233 105.638 208.814 104.91 213.424 96.3875C217.843 88.2109 215.372 77.7516 217.149 68.2507C218.422 61.4437 221.869 55.3565 223.636 48.6564C226.186 39.0033 224.962 28.7825 221.595 21.0995C218.227 13.4165 212.902 7.93798 207.188 3.7304C204.766 1.94126 202.199 0.324857 199.322 0.0287229C196.263 -0.287976 193.82 2.10577 190.881 2.71038C187.46 3.37257 183.89 2.25795 180.412 2.73917Z" fill="#8DE6DC"/>
<path d="M196.622 0.345215C196.622 0.345215 199.035 87.4951 181.791 137.891" stroke="#535461" stroke-width="2" stroke-miterlimit="10"/>
<path d="M173.398 8.02832C173.398 8.02832 197.793 23.2463 195.702 49.6352" stroke="#535461" stroke-width="2" stroke-miterlimit="10"/>
<path d="M157.388 46.7603C157.388 46.7603 195.888 53.8592 194.368 68.7811" stroke="#535461" stroke-width="2" stroke-miterlimit="10"/>
<path d="M221.64 20.8774C221.64 20.8774 207.008 28.9841 195.482 53.5386" stroke="#535461" stroke-width="2" stroke-miterlimit="10"/>
<path d="M233.657 53.0912C231.217 52.2296 227.969 51.7975 225.277 54.2453C219.998 59.0462 224.394 67.014 219.641 72.4243C218.297 73.8947 216.524 74.945 214.526 75.4536C211.055 76.397 207.874 75.9491 204.565 76.0967C201.256 76.2444 197.415 77.1819 194.391 80.1012C191.484 82.9096 190.042 86.924 189.791 90.3491C189.539 93.7742 190.269 96.8029 190.694 99.948C191.192 103.806 191.274 107.68 190.938 111.507C190.847 113.284 190.503 115.027 189.915 116.686C189.142 118.694 187.824 120.601 186.528 122.464L174.995 139.071C173.462 141.279 171.906 143.521 170.906 145.893C169.749 148.624 169.401 151.351 169.069 154.017C168.349 159.765 167.649 165.782 169.625 170.172C171.601 174.562 177.149 176.705 182.535 173.218C187.661 169.898 190.524 163.141 195.434 159.265C203.174 153.157 212.021 156.905 220.026 151.448C227.704 146.21 230.308 135.783 236.245 128.156C240.499 122.691 246.354 118.864 250.999 113.722C257.693 106.314 261.294 96.6708 261.827 88.2991C262.36 79.9274 260.141 72.6164 256.994 66.2563C255.663 63.5555 254.123 60.9413 251.703 59.3583C249.131 57.6739 245.861 58.6797 242.973 57.8686C239.629 56.8878 236.968 54.2592 233.657 53.0912Z" fill="#8DE6DC" fill-opacity="0.19"/>
<path d="M249.159 58.4013C249.159 58.4013 211.321 136.946 172.878 173.814" stroke="#535461" stroke-width="2" stroke-miterlimit="10"/>
<path d="M224.999 54.5737C224.999 54.5737 239.693 79.2872 225.729 101.776" stroke="#535461" stroke-width="2" stroke-miterlimit="10"/>
<path d="M193.003 81.6436C193.003 81.6436 223.956 105.614 215.759 118.176" stroke="#535461" stroke-width="2" stroke-miterlimit="10"/>
<path d="M261.969 88.1225C261.969 88.1225 245.248 88.6129 223.742 105.143" stroke="#535461" stroke-width="2" stroke-miterlimit="10"/>
<path d="M213.194 96.5028C213.194 96.5028 203.162 101.438 193.073 81.8564" stroke="#535461" stroke-width="2" stroke-miterlimit="10"/>
<path d="M168.812 105.226C168.812 105.226 190.081 104.515 191.292 95.7334" stroke="#535461" stroke-width="2" stroke-miterlimit="10"/>
<path opacity="0.1" d="M81.779 116.833C81.694 116.811 81.6112 116.782 81.5315 116.747C81.4019 116.81 81.2693 116.869 81.1338 116.923C81.3522 116.919 81.5691 116.889 81.779 116.833Z" fill="black"/>
<path d="M96.3359 78.5288H212.638V186.762H96.3359V78.5288Z" fill="#F7DF1E"/>
<path d="M126.922 168.977L135.822 163.964C137.541 166.797 139.101 169.195 142.849 169.195C146.442 169.195 148.704 167.887 148.704 162.804V128.218H159.633V162.944C159.633 173.477 153.004 178.273 143.317 178.273C134.576 178.273 129.503 174.057 126.926 168.973L126.922 168.977ZM165.568 167.883L174.464 163.088C176.806 166.649 179.851 169.257 185.238 169.257C189.768 169.257 192.654 167.151 192.654 164.243C192.654 160.756 189.689 159.522 184.699 157.486L181.968 156.396C174.084 153.274 168.852 149.35 168.852 141.067C168.852 133.437 175.096 127.625 184.854 127.625C191.801 127.625 196.786 129.879 200.388 135.761L191.881 140.849C190.007 137.723 187.978 136.489 184.854 136.489C181.654 136.489 179.622 138.377 179.622 140.849C179.622 143.901 181.65 145.134 186.334 147.018L189.066 148.108C198.346 151.81 203.587 155.59 203.587 164.091C203.587 173.247 195.858 178.26 185.468 178.26C175.304 178.26 168.763 173.736 165.582 167.871" fill="black"/>
<path d="M79.2841 197.029C80.3138 196.137 81.2816 195.084 81.5821 193.804C81.8826 192.525 81.2948 190.987 79.9779 190.514C78.5063 189.988 76.9286 190.925 75.7354 191.9C74.5422 192.875 73.1722 193.957 71.6122 193.751C72.4157 193.073 73.0167 192.212 73.3567 191.254C73.6967 190.295 73.7641 189.271 73.5523 188.281C73.4838 187.872 73.2975 187.488 73.0131 187.17C72.1956 186.348 70.7107 186.705 69.7341 187.347C66.6406 189.404 65.7567 193.323 65.7346 196.869C65.4209 195.589 65.686 194.257 65.6772 192.945C65.6683 191.633 65.2839 190.181 64.0951 189.473C63.3547 189.103 62.5223 188.922 61.6822 188.947C60.2812 188.898 58.7213 189.029 57.7667 189.984C56.5779 191.168 56.8828 193.155 57.9214 194.458C58.9599 195.762 60.5287 196.581 61.9738 197.481C63.1339 198.125 64.1233 199.004 64.8684 200.052C64.9568 200.199 65.0293 200.353 65.085 200.513H73.8661C75.8325 199.584 77.655 198.412 79.2841 197.029Z" fill="#8DE6DC"/>
</svg>
