<svg width="520" height="388" viewBox="0 0 520 388" fill="none" xmlns="http://www.w3.org/2000/svg">
<g clip-path="url(#clip0)">
<path opacity="0.1" d="M131.29 71.7354C135.328 47.6465 156.178 30 180.603 30H470.285C497.899 30 520.285 52.3858 520.285 80V338C520.285 365.614 497.899 388 470.285 388H137.362C106.447 388 82.9401 360.225 88.0502 329.735L131.29 71.7354Z" fill="#F063B8"/>
<ellipse cx="457.808" cy="86.427" rx="34.0274" ry="20.1071" transform="rotate(150 457.808 86.427)" stroke="white" stroke-width="1.5"/>
<path opacity="0.1" d="M132 304C197.722 304 251 289.897 251 272.5C251 255.103 197.722 241 132 241C66.2781 241 13 255.103 13 272.5C13 289.897 66.2781 304 132 304Z" fill="#8DE6DC"/>
<path opacity="0.5" d="M125.382 128.557C124.122 128.89 122.58 129.758 121.82 132.131C120.331 136.783 123.791 139.946 122.651 144.795C122.334 146.081 121.732 147.292 120.883 148.348C119.491 150.105 117.979 150.936 116.512 152.165C114.651 153.736 113.318 155.775 112.672 158.035C111.964 160.529 111.905 163.144 112.5 165.664C113.021 167.77 113.909 169.304 114.687 171.011C115.654 173.188 116.41 175.441 116.945 177.744C117.239 178.865 117.405 180.012 117.44 181.166C117.418 182.699 117.271 184.228 116.998 185.74L114.882 199.485C114.56 201.282 114.367 203.097 114.303 204.918C114.33 206.743 114.557 208.561 114.979 210.343C115.721 213.979 116.521 217.747 118.223 219.672C119.924 221.596 122.823 220.905 124.604 217.01C126.297 213.284 126.336 208.312 127.83 204.33C130.185 198.058 134.865 197.215 137.464 191.23C139.956 185.472 139.192 178.447 140.456 171.899C141.34 167.206 143.289 162.929 144.433 158.294C146.077 151.618 145.914 144.688 144.601 139.555C143.603 135.337 141.443 131.434 138.335 128.228C137.234 127.097 136.054 126.089 134.671 125.986C133.199 125.879 131.913 127.603 130.459 128.121C128.78 128.734 127.092 128.104 125.382 128.557Z" fill="#8DE6DC"/>
<path opacity="0.5" d="M133.349 126.336C133.349 126.336 130.857 185.703 120.374 220.708" stroke="#535461" stroke-width="2" stroke-miterlimit="10"/>
<path opacity="0.5" d="M121.758 132.411C121.758 132.411 132.961 141.903 130.835 159.968" stroke="#535461" stroke-width="2" stroke-miterlimit="10"/>
<path opacity="0.5" d="M112.358 159.425C112.358 159.425 130.747 162.867 129.381 173.105" stroke="#535461" stroke-width="2" stroke-miterlimit="10"/>
<path opacity="0.5" d="M144.632 139.432C144.632 139.432 137.19 145.494 130.562 162.666" stroke="#535461" stroke-width="2" stroke-miterlimit="10"/>
<path opacity="0.5" d="M137.361 191.329C137.361 191.329 132.284 195.031 128.209 182.071" stroke="#535461" stroke-width="2" stroke-miterlimit="10"/>
<path opacity="0.5" d="M115.451 198.901C115.451 198.901 125.805 197.643 126.76 191.609" stroke="#535461" stroke-width="2" stroke-miterlimit="10"/>
<path d="M150.412 88.7392C147.848 89.0929 144.764 90.1993 143.495 93.6089C141.007 100.297 148.569 105.36 146.828 112.348C146.308 114.271 145.214 116.018 143.672 117.386C141.021 119.817 137.989 120.878 135.117 122.527C132.244 124.177 129.261 126.772 127.913 130.753C126.618 134.582 127.18 138.811 128.527 141.969C129.875 145.128 131.913 147.485 133.733 150.084C135.946 153.284 137.796 156.688 139.253 160.243C139.988 161.864 140.482 163.57 140.72 165.315C140.954 167.453 140.658 169.752 140.362 172.002L137.733 192.049C137.384 194.714 137.03 197.42 137.229 199.987C137.454 202.944 138.396 205.527 139.324 208.048C141.321 213.486 143.46 219.153 147.23 222.148C150.999 225.142 156.912 224.5 160.099 218.931C163.13 213.63 162.573 206.313 165.159 200.616C169.233 191.638 178.814 190.91 183.424 182.388C187.843 174.211 185.372 163.752 187.149 154.251C188.422 147.444 191.869 141.356 193.636 134.656C196.186 125.003 194.962 114.783 191.595 107.1C188.227 99.4165 182.902 93.938 177.188 89.7304C174.766 87.9413 172.199 86.3249 169.322 86.0287C166.263 85.712 163.82 88.1058 160.881 88.7104C157.46 89.3726 153.89 88.258 150.412 88.7392Z" fill="#8DE6DC"/>
<path d="M166.622 86.3452C166.622 86.3452 169.035 173.495 151.791 223.891" stroke="#535461" stroke-width="2" stroke-miterlimit="10"/>
<path d="M143.398 94.0283C143.398 94.0283 167.793 109.246 165.702 135.635" stroke="#535461" stroke-width="2" stroke-miterlimit="10"/>
<path d="M127.388 132.76C127.388 132.76 165.888 139.859 164.368 154.781" stroke="#535461" stroke-width="2" stroke-miterlimit="10"/>
<path d="M191.64 106.877C191.64 106.877 177.008 114.984 165.482 139.539" stroke="#535461" stroke-width="2" stroke-miterlimit="10"/>
<path d="M203.657 139.091C201.217 138.23 197.969 137.798 195.277 140.245C189.998 145.046 194.394 153.014 189.641 158.424C188.297 159.895 186.524 160.945 184.526 161.454C181.055 162.397 177.874 161.949 174.565 162.097C171.256 162.244 167.415 163.182 164.391 166.101C161.484 168.91 160.042 172.924 159.791 176.349C159.539 179.774 160.269 182.803 160.694 185.948C161.192 189.806 161.274 193.68 160.938 197.507C160.847 199.284 160.503 201.027 159.915 202.686C159.142 204.694 157.824 206.601 156.528 208.464L144.995 225.071C143.462 227.279 141.906 229.521 140.906 231.893C139.749 234.624 139.401 237.351 139.069 240.017C138.349 245.765 137.649 251.782 139.625 256.172C141.601 260.562 147.149 262.705 152.535 259.218C157.661 255.898 160.524 249.141 165.434 245.265C173.174 239.157 182.021 242.905 190.026 237.448C197.704 232.21 200.308 221.783 206.245 214.156C210.499 208.691 216.354 204.864 220.999 199.722C227.693 192.314 231.294 182.671 231.827 174.299C232.36 165.927 230.141 158.616 226.994 152.256C225.663 149.555 224.123 146.941 221.703 145.358C219.131 143.674 215.861 144.68 212.973 143.869C209.629 142.888 206.968 140.259 203.657 139.091Z" fill="#8DE6DC" fill-opacity="0.19"/>
<path d="M219.159 144.401C219.159 144.401 181.321 222.946 142.878 259.814" stroke="#535461" stroke-width="2" stroke-miterlimit="10"/>
<path d="M194.999 140.574C194.999 140.574 209.693 165.287 195.729 187.776" stroke="#535461" stroke-width="2" stroke-miterlimit="10"/>
<path d="M163.003 167.644C163.003 167.644 193.956 191.614 185.759 204.176" stroke="#535461" stroke-width="2" stroke-miterlimit="10"/>
<path d="M231.969 174.123C231.969 174.123 215.248 174.613 193.742 191.143" stroke="#535461" stroke-width="2" stroke-miterlimit="10"/>
<path d="M183.194 182.503C183.194 182.503 173.162 187.438 163.073 167.856" stroke="#535461" stroke-width="2" stroke-miterlimit="10"/>
<path d="M138.812 191.226C138.812 191.226 160.081 190.515 161.292 181.733" stroke="#535461" stroke-width="2" stroke-miterlimit="10"/>
<path opacity="0.1" d="M51.779 202.833C51.694 202.811 51.6112 202.782 51.5315 202.747C51.4019 202.81 51.2693 202.869 51.1338 202.923C51.3522 202.919 51.5691 202.889 51.779 202.833Z" fill="black"/>
<path d="M66.3359 164.529H182.638V272.762H66.3359V164.529Z" fill="#F7DF1E"/>
<path d="M96.9219 254.977L105.822 249.964C107.541 252.797 109.101 255.195 112.849 255.195C116.442 255.195 118.704 253.887 118.704 248.804V214.218H129.633V248.944C129.633 259.477 123.004 264.273 113.317 264.273C104.576 264.273 99.5027 260.057 96.9263 254.973L96.9219 254.977ZM135.568 253.883L144.464 249.088C146.806 252.649 149.851 255.257 155.238 255.257C159.768 255.257 162.654 253.151 162.654 250.243C162.654 246.756 159.689 245.522 154.699 243.486L151.968 242.396C144.084 239.274 138.852 235.35 138.852 227.067C138.852 219.437 145.096 213.625 154.854 213.625C161.801 213.625 166.786 215.879 170.388 221.761L161.881 226.849C160.007 223.723 157.978 222.489 154.854 222.489C151.654 222.489 149.622 224.377 149.622 226.849C149.622 229.901 151.65 231.134 156.334 233.018L159.066 234.108C168.346 237.81 173.587 241.59 173.587 250.091C173.587 259.247 165.858 264.26 155.468 264.26C145.304 264.26 138.763 259.736 135.582 253.871" fill="black"/>
<path d="M59.2841 280.337C60.3138 279.444 61.2816 278.392 61.5821 277.112C61.8826 275.833 61.2948 274.295 59.9779 273.822C58.5063 273.296 56.9286 274.233 55.7354 275.208C54.5422 276.183 53.1722 277.265 51.6122 277.059C52.4157 276.381 53.0167 275.52 53.3567 274.562C53.6967 273.603 53.7641 272.579 53.5523 271.589C53.4838 271.18 53.2975 270.796 53.0131 270.478C52.1956 269.656 50.7107 270.013 49.7341 270.655C46.6406 272.712 45.7567 276.631 45.7346 280.177C45.4209 278.897 45.686 277.565 45.6772 276.253C45.6683 274.941 45.2839 273.489 44.0951 272.781C43.3547 272.411 42.5223 272.229 41.6822 272.255C40.2812 272.206 38.7213 272.337 37.7667 273.291C36.5779 274.476 36.8828 276.463 37.9214 277.766C38.9599 279.07 40.5287 279.889 41.9738 280.789C43.1339 281.433 44.1233 282.312 44.8684 283.36C44.9568 283.507 45.0293 283.661 45.085 283.821H53.8661C55.8325 282.892 57.655 281.72 59.2841 280.337V280.337Z" fill="#8DE6DC"/>
</g>
<defs>
<clipPath id="clip0">
<rect width="520" height="388" fill="white"/>
</clipPath>
</defs>
</svg>
