<svg width="24" height="24" viewBox="0 0 24 24" fill="none" xmlns="http://www.w3.org/2000/svg">
<path d="M20.4844 0H3.51562C1.57507 0 0 1.62195 0 3.5625V20.4844C0 22.4249 1.57507 24 3.51562 24H20.4844C22.4249 24 24 22.4249 24 20.4844V3.5625C24 1.62195 22.4249 0 20.4844 0Z" fill="#25D9F8"/>
<path d="M24 3.5625V20.4844C24 22.4249 22.4249 24 20.4844 24H12V0H20.4844C22.4249 0 24 1.62195 24 3.5625Z" fill="#00C0F1"/>
<path d="M5.67188 9.1875H8.48438V19.0781H5.67188V9.1875Z" fill="#ECECF1"/>
<path d="M5.67188 4.96875H8.48438V7.78125H5.67188V4.96875Z" fill="#ECECF1"/>
<path d="M18.3281 12.9282V19.0781H15.5156V13.4062C15.5156 12.6328 14.8828 12 14.1094 12C13.3359 12 12.7031 12.6328 12.7031 13.4062V19.0781H9.89062V9.1875H12.7031V9.7218C13.4344 9.48285 13.9125 9.1875 14.8125 9.1875C16.725 9.1875 18.3281 10.903 18.3281 12.9282Z" fill="#ECECF1"/>
<path d="M18.3281 12.9282V19.0781H15.5156V13.4062C15.5156 12.6328 14.8828 12 14.1094 12C13.3359 12 12.7031 12.6328 12.7031 13.4062V19.0781H12V9.1875H12.7031V9.7218C13.4344 9.48285 13.9125 9.1875 14.8125 9.1875C16.725 9.1875 18.3281 10.903 18.3281 12.9282Z" fill="#E2E2E7"/>
</svg>
