<svg width="98" height="27" viewBox="0 0 98 27" fill="none" xmlns="http://www.w3.org/2000/svg">
<rect x="97.3945" width="26" height="64.3951" rx="13" transform="rotate(89.9715 97.3945 0)" fill="#F063B8"/>
<path d="M42.952 7.87915H45.272L48.36 16.4392L51.544 7.87915H53.72L49.144 19.2072H47.4L42.952 7.87915ZM54.9481 11.5272H56.8681V19.2072H54.9481V11.5272ZM54.6761 8.91915C54.6761 8.60982 54.7881 8.34315 55.0121 8.11915C55.2468 7.88449 55.5401 7.76715 55.8921 7.76715C56.2441 7.76715 56.5375 7.87915 56.7721 8.10315C57.0175 8.31649 57.1401 8.58849 57.1401 8.91915C57.1401 9.24982 57.0175 9.52715 56.7721 9.75115C56.5375 9.96449 56.2441 10.0712 55.8921 10.0712C55.5401 10.0712 55.2468 9.95915 55.0121 9.73515C54.7881 9.50049 54.6761 9.22849 54.6761 8.91915ZM59.1044 7.11115H61.0244V19.2072H59.1044V7.11115ZM62.1886 11.5272H64.2846L66.3326 16.9032H66.3646L68.4286 11.5272H70.3966L67.3726 19.2072H65.3246L62.1886 11.5272ZM71.1415 15.3672C71.1415 14.7592 71.2482 14.2098 71.4615 13.7192C71.6855 13.2178 71.9842 12.7912 72.3575 12.4392C72.7308 12.0872 73.1735 11.8152 73.6855 11.6232C74.1975 11.4312 74.7415 11.3352 75.3175 11.3352C75.8935 11.3352 76.4375 11.4312 76.9495 11.6232C77.4615 11.8152 77.9042 12.0872 78.2775 12.4392C78.6508 12.7912 78.9442 13.2178 79.1575 13.7192C79.3815 14.2098 79.4935 14.7592 79.4935 15.3672C79.4935 15.9752 79.3815 16.5298 79.1575 17.0312C78.9442 17.5218 78.6508 17.9432 78.2775 18.2952C77.9042 18.6472 77.4615 18.9192 76.9495 19.1112C76.4375 19.3032 75.8935 19.3992 75.3175 19.3992C74.7415 19.3992 74.1975 19.3032 73.6855 19.1112C73.1735 18.9192 72.7308 18.6472 72.3575 18.2952C71.9842 17.9432 71.6855 17.5218 71.4615 17.0312C71.2482 16.5298 71.1415 15.9752 71.1415 15.3672ZM73.0615 15.3672C73.0615 15.6658 73.1095 15.9538 73.2055 16.2312C73.3122 16.5085 73.4615 16.7538 73.6535 16.9672C73.8562 17.1805 74.0962 17.3512 74.3735 17.4792C74.6508 17.6072 74.9655 17.6712 75.3175 17.6712C75.6695 17.6712 75.9842 17.6072 76.2615 17.4792C76.5388 17.3512 76.7735 17.1805 76.9655 16.9672C77.1682 16.7538 77.3175 16.5085 77.4135 16.2312C77.5202 15.9538 77.5735 15.6658 77.5735 15.3672C77.5735 15.0685 77.5202 14.7805 77.4135 14.5032C77.3175 14.2258 77.1682 13.9805 76.9655 13.7672C76.7735 13.5538 76.5388 13.3832 76.2615 13.2552C75.9842 13.1272 75.6695 13.0632 75.3175 13.0632C74.9655 13.0632 74.6508 13.1272 74.3735 13.2552C74.0962 13.3832 73.8562 13.5538 73.6535 13.7672C73.4615 13.9805 73.3122 14.2258 73.2055 14.5032C73.1095 14.7805 73.0615 15.0685 73.0615 15.3672ZM81.2911 7.11115H83.2111V14.7112L86.1711 11.5272H88.6351L85.3391 15.0152L88.8431 19.2072H86.2991L83.2431 15.2872H83.2111V19.2072H81.2911V7.11115Z" fill="#212353"/>
<rect y="0.00714111" width="26" height="26" rx="13" fill="#9C69E2"/>
<path d="M15.316 15.864C15.316 16.312 15.2413 16.744 15.092 17.16C14.9533 17.576 14.74 17.944 14.452 18.264C14.1747 18.5733 13.8227 18.8187 13.396 19C12.9693 19.192 12.4733 19.288 11.908 19.288C11.012 19.288 10.276 19.08 9.7 18.664C9.13467 18.248 8.76133 17.5867 8.58 16.68L10.468 16.232C10.532 16.6053 10.6813 16.904 10.916 17.128C11.1613 17.352 11.46 17.464 11.812 17.464C12.388 17.464 12.7773 17.272 12.98 16.888C13.1933 16.4933 13.3 15.9547 13.3 15.272V7.672H15.316V15.864Z" fill="#212353"/>
</svg>
