<svg width="520" height="388" viewBox="0 0 520 388" fill="none" xmlns="http://www.w3.org/2000/svg">
<path opacity="0.1" d="M131.005 71.7354C135.042 47.6465 155.893 30 180.317 30H470C497.614 30 520 52.3858 520 80V338C520 365.614 497.614 388 470 388H137.077C106.162 388 82.655 360.225 87.765 329.735L131.005 71.7354Z" fill="#2D9CDB"/>
<ellipse cx="460.674" cy="326.032" rx="30.9248" ry="18.2737" transform="rotate(20.7184 460.674 326.032)" stroke="white" stroke-width="1.5"/>
<path d="M186.726 267.712C126.191 279.919 111.567 215.795 152.958 141.691C246.954 1.12329 395.406 42.8654 418.045 70.6612C440.685 98.457 422.491 131.798 335.252 146.395C248.014 160.991 262.393 252.454 186.726 267.712Z" stroke="white" stroke-width="1.5"/>
<path d="M177.096 175.933L179.061 175.703C179.25 175.681 179.437 175.653 179.634 175.63C176.646 173.622 174.453 170.688 173.413 167.31C172.374 163.933 172.551 160.313 173.914 157.045C175.278 153.778 177.747 151.058 180.917 149.332C184.086 147.607 187.766 146.978 191.353 147.551L188.487 153.316L194.809 148.494L194.851 148.504C198.778 150.07 201.904 153.084 203.54 156.884C205.177 160.685 205.189 164.96 203.576 168.769C203.461 169.043 203.326 169.304 203.197 169.569C204.946 168.821 206.636 167.935 208.038 166.765C210.883 164.387 212.538 160.992 214.42 156.8C218.149 148.497 221.763 140.063 225.248 131.602C221.994 129.683 219.552 126.7 218.362 123.191C217.171 119.682 217.311 115.876 218.755 112.458C218.942 112.017 219.151 111.595 219.372 111.182C219.427 111.078 219.483 110.974 219.54 110.873C219.765 110.476 220 110.091 220.256 109.713C220.297 109.651 220.345 109.596 220.386 109.536C220.607 109.225 220.827 108.918 221.081 108.639C221.172 108.528 221.262 108.417 221.354 108.313C221.628 107.999 221.911 107.695 222.209 107.406C222.309 107.31 222.413 107.221 222.513 107.126C222.741 106.915 222.976 106.706 223.212 106.516C223.339 106.414 223.463 106.311 223.592 106.212L223.688 106.132C226.632 103.893 230.292 102.725 234.031 102.832C237.77 102.939 241.353 104.313 244.156 106.716L240.429 114.218L246.675 109.452C248.632 112.141 249.651 115.367 249.584 118.658C249.517 121.95 248.366 125.134 246.3 127.745L246.318 127.75C246.247 127.839 246.167 127.921 246.097 128.011C245.962 128.175 245.825 128.336 245.69 128.498C245.509 128.702 245.308 128.895 245.131 129.092C244.987 129.238 244.845 129.385 244.696 129.519C244.477 129.731 244.25 129.916 244.022 130.108C243.888 130.219 243.76 130.337 243.623 130.444C243.271 130.728 242.892 130.99 242.511 131.237C242.377 131.324 242.238 131.399 242.1 131.482C241.832 131.645 241.566 131.806 241.289 131.954C241.118 132.045 240.939 132.134 240.766 132.214C240.515 132.338 240.259 132.456 240.003 132.558C239.818 132.637 239.633 132.711 239.448 132.783C239.181 132.885 238.913 132.976 238.643 133.066C238.462 133.125 238.28 133.184 238.097 133.237C237.797 133.325 237.488 133.397 237.179 133.467C237.024 133.501 236.882 133.545 236.712 133.572C236.251 133.663 235.784 133.736 235.314 133.787C235.226 133.797 235.135 133.798 235.047 133.805C234.656 133.841 234.263 133.876 233.874 133.873C233.705 133.876 233.535 133.871 233.364 133.868C233.047 133.863 232.73 133.853 232.412 133.832C232.231 133.819 232.045 133.802 231.854 133.781C231.545 133.749 231.235 133.706 230.926 133.655C230.743 133.625 230.563 133.596 230.379 133.56C230.049 133.494 229.719 133.414 229.391 133.328C229.37 133.322 229.348 133.316 229.326 133.312C227.856 136.873 226.362 140.428 224.843 143.977C226.538 142.648 228.495 141.669 230.594 141.1C232.692 140.53 234.889 140.383 237.049 140.666C239.208 140.95 241.286 141.658 243.153 142.748C245.021 143.837 246.639 145.286 247.908 147.003L242.066 152.659L249.706 150.132C251.329 153.92 251.335 158.177 249.723 161.969C249.163 163.302 248.411 164.551 247.489 165.68C245.507 168.126 242.811 169.938 239.753 170.88C236.696 171.822 233.416 171.851 230.341 170.963C227.266 170.076 224.537 168.312 222.509 165.901C220.48 163.491 219.245 160.545 218.965 157.445C218.806 157.802 218.647 158.169 218.489 158.521C216.828 162.217 214.762 166.819 210.934 170.022C208.338 172.2 205.215 173.506 202.228 174.594C200.285 175.303 198.318 175.95 196.327 176.534C194.089 177.704 191.596 178.34 189.054 178.389C185.926 179.067 182.773 179.598 179.596 179.983L177.614 180.214C175.832 180.42 174.007 180.632 172.184 180.887C172.437 180.975 172.691 181.06 172.941 181.158C176.083 182.41 178.734 184.598 180.51 187.407C182.286 190.215 183.096 193.499 182.822 196.783L170.316 199.835L181.366 202.103C180.301 204.342 178.696 206.299 176.687 207.809C173.389 210.29 169.223 211.424 165.076 210.97C160.93 210.516 157.129 208.511 154.484 205.38L154.766 206.499C154.955 207.237 155.14 207.973 155.316 208.7C157.734 218.616 156.067 226.236 150.622 230.162L147.957 226.692C153.257 222.873 152.122 214.402 150.976 209.692C150.802 208.979 150.617 208.262 150.447 207.534C148.863 201.286 147.065 194.205 150.215 187.941C154.949 178.491 167.223 177.072 177.096 175.933Z" fill="#F2F2F2"/>
<path d="M58.0066 241.329L56.545 240.841C56.4037 240.795 56.2729 240.74 56.1263 240.695C58.7453 239.634 60.9144 237.741 62.2773 235.327C63.6402 232.913 64.1158 230.121 63.6259 227.41C63.136 224.699 61.7098 222.23 59.5816 220.409C57.4534 218.589 54.7498 217.524 51.9151 217.39L53.1305 222.248L49.1194 217.562L49.0847 217.563C47.4675 217.845 45.9235 218.434 44.5408 219.294C43.1582 220.155 41.9639 221.272 41.0264 222.58C40.0888 223.889 39.4263 225.364 39.0767 226.921C38.7271 228.478 38.6973 230.086 38.9889 231.654C39.031 231.884 39.0913 232.102 39.1439 232.326C37.9274 231.514 36.8416 230.532 35.9221 229.412C34.1556 227.148 33.4582 224.289 32.7276 220.79C31.2932 213.857 29.9599 206.844 28.7312 199.838C31.5394 198.887 33.9061 196.997 35.4058 194.506C36.9055 192.015 37.44 189.087 36.9131 186.248C36.8437 185.882 36.7559 185.527 36.6549 185.176L36.5795 184.919C36.4738 184.581 36.3602 184.248 36.2284 183.926C36.2073 183.873 36.181 183.822 36.1574 183.771C36.0411 183.498 35.9143 183.23 35.7798 182.968C35.7274 182.872 35.6775 182.773 35.6251 182.676C35.4683 182.394 35.3037 182.118 35.126 181.85C35.0658 181.759 35.0005 181.673 34.941 181.598C34.8012 181.401 34.6563 181.207 34.5089 181.021C34.4297 180.923 34.353 180.822 34.2712 180.727L34.2117 180.652C32.3416 178.475 29.7449 177.002 26.8719 176.488C23.999 175.974 21.0311 176.451 18.4832 177.837L20.0649 184.16L16.0964 179.529C14.1481 181.272 12.8253 183.574 12.3211 186.097C11.8168 188.621 12.1576 191.235 13.2935 193.558L13.2802 193.558C13.3184 193.637 13.3646 193.713 13.4055 193.792C13.4815 193.94 13.5574 194.085 13.6387 194.229C13.743 194.412 13.8526 194.592 13.9674 194.769C14.051 194.906 14.1345 195.04 14.2259 195.171C14.3573 195.36 14.5098 195.544 14.641 195.728C14.7259 195.833 14.803 195.945 14.8905 196.047C15.1165 196.319 15.3554 196.579 15.6046 196.831C15.6914 196.918 15.7859 196.997 15.8832 197.079C16.0591 197.246 16.2376 197.41 16.4242 197.576C16.5383 197.675 16.6601 197.766 16.7792 197.858C16.9511 197.994 17.1255 198.125 17.3022 198.249C17.4292 198.337 17.5588 198.423 17.6883 198.509C17.8756 198.628 18.0657 198.753 18.2548 198.851C18.3839 198.927 18.5129 198.999 18.6444 199.069C18.861 199.185 19.0823 199.287 19.3063 199.39C19.421 199.442 19.5305 199.498 19.6452 199.547C19.9833 199.689 20.3263 199.818 20.6765 199.931C20.7418 199.954 20.812 199.967 20.8771 199.988C21.1675 200.077 21.4629 200.158 21.763 200.227C21.8901 200.255 22.033 200.278 22.1518 200.302C22.3948 200.349 22.6377 200.393 22.8855 200.427L23.3187 200.477C23.5607 200.501 23.8051 200.517 24.0492 200.528C24.194 200.535 24.3361 200.539 24.4835 200.541C24.7513 200.543 25.0187 200.535 25.2858 200.521L25.3366 200.519C25.8581 203.478 26.3991 206.434 26.9595 209.387C25.8914 208.101 24.5635 207.041 23.0575 206.271C21.5514 205.5 19.899 205.037 18.2015 204.908C16.5041 204.78 14.7975 204.989 13.1866 205.524C11.5756 206.058 10.0942 206.906 8.83335 208.016L12.3107 213.232L6.90502 210.091C5.97348 211.395 5.31598 212.865 4.97005 214.415C4.62411 215.966 4.59653 217.568 4.88887 219.129C5.09254 220.237 5.45752 221.311 5.97286 222.319C7.07427 224.502 8.82665 226.313 11.0026 227.518C13.1786 228.723 15.6777 229.266 18.1757 229.076C20.6737 228.886 23.0553 227.973 25.0115 226.455C26.9677 224.936 28.4082 222.883 29.146 220.561C29.2071 220.857 29.2658 221.158 29.327 221.457C29.9701 224.546 30.7719 228.387 33.154 231.447C34.7703 233.52 36.9343 235.013 39.0313 236.318C40.3963 237.17 41.7888 237.978 43.209 238.744C44.7215 239.992 46.518 240.874 48.4508 241.318C50.7224 242.331 53.0432 243.243 55.4069 244.034L56.8795 244.527C58.2051 244.966 59.5634 245.417 60.9044 245.902C60.6967 245.929 60.4863 245.953 60.2764 245.99C57.6666 246.446 55.2738 247.695 53.4434 249.556C51.613 251.417 50.4397 253.794 50.0928 256.343L59.1153 260.648L50.2954 260.627C50.7706 262.625 51.7602 264.474 53.1717 266C54.5832 267.527 56.3706 268.682 58.367 269.357C60.3634 270.033 62.5037 270.207 64.5882 269.863C66.6726 269.519 68.6331 268.668 70.2868 267.39C70.151 267.655 70.018 267.92 69.8829 268.198C69.6141 268.729 69.3481 269.259 69.09 269.789C62.9964 268.968 64.8502 264.335 68.3463 268.198L71.4224 266.634C68.0194 262.878 71.088 272.384 72.7599 268.968C73.0052 268.452 72.749 270.2 73.0127 269.675C75.2769 265.168 77.8432 260.034 76.502 254.748C74.4932 246.797 65.3525 243.775 58.0066 241.329Z" fill="#F2F2F2"/>
<path d="M119.599 277.001C183.672 277.001 235.195 273.849 235.195 270.445C235.195 267.041 183.672 264.675 119.599 264.675C55.5263 264.675 3.58496 267.435 3.58496 270.838C3.58496 274.242 55.5263 277.001 119.599 277.001Z" fill="#3F3D56"/>
<path opacity="0.1" d="M119.24 277.001C185.094 277.001 238.48 274.242 238.48 270.838C238.48 267.435 185.094 264.675 119.24 264.675C53.3855 264.675 0 267.435 0 270.838C0 274.242 53.3855 277.001 119.24 277.001Z" fill="black"/>
<path d="M129.204 277.001C182.863 277.001 226.363 274.242 226.363 270.838C226.363 267.435 182.863 264.675 129.204 264.675C75.5452 264.675 32.0459 267.435 32.0459 270.838C32.0459 274.242 75.5452 277.001 129.204 277.001Z" fill="#3F3D56"/>
<path d="M26.3224 269.44C25.5199 268.011 26.4294 266.26 27.4672 264.984C28.5051 263.707 29.7704 262.39 29.7436 260.758C29.7062 258.423 27.1489 257.046 25.108 255.808C23.5936 254.889 22.1965 253.8 20.9458 252.563C20.423 252.086 19.9903 251.524 19.6672 250.903C19.2445 249.99 19.2579 248.952 19.2847 247.951C19.3738 244.62 19.5432 241.293 19.7929 237.969" stroke="#3F3D56" stroke-width="4" stroke-miterlimit="10"/>
<path d="M15.7068 236.303C15.7357 235.694 15.9224 235.101 16.2497 234.58C16.5769 234.059 17.0342 233.627 17.5793 233.322L18.4192 234.933L18.3951 232.982C18.7957 232.867 19.2135 232.818 19.631 232.837C20.3701 232.872 21.0819 233.119 21.6766 233.546C22.2713 233.973 22.7222 234.561 22.9724 235.237C23.2226 235.912 23.2608 236.644 23.0824 237.34C22.9039 238.037 22.5167 238.666 21.9696 239.15C21.4225 239.633 20.74 239.948 20.0084 240.055C19.2767 240.163 18.5287 240.058 17.8586 239.753C17.1886 239.448 16.6266 238.958 16.2437 238.344C15.8607 237.73 15.6739 237.02 15.7068 236.303V236.303Z" fill="#57B894"/>
<path d="M22.6148 262.429C22.9879 263.149 23.5973 263.728 24.3471 264.076C25.0969 264.423 25.9445 264.519 26.7565 264.347C27.5685 264.176 28.2988 263.748 28.8322 263.13C29.3657 262.512 29.6722 261.74 29.7034 260.935C29.7301 260.432 29.6471 259.929 29.46 259.459C29.1909 258.763 28.7085 258.165 28.0777 257.744C27.447 257.322 26.6983 257.099 25.9325 257.103C25.1667 257.107 24.4206 257.339 23.7949 257.767C23.1691 258.195 22.6938 258.799 22.4329 259.498L24.7788 261.347L22.2002 260.766C22.1988 261.345 22.341 261.915 22.6148 262.429V262.429Z" fill="#57B894"/>
<path d="M24.4682 255.36C25.4037 255.428 26.3316 255.154 27.0685 254.591C27.8054 254.028 28.2975 253.217 28.4474 252.319C28.5974 251.421 28.3943 250.501 27.8784 249.741C27.3624 248.981 26.5712 248.437 25.6612 248.216L25.68 249.718L24.8293 248.086C23.8343 248.041 22.8617 248.381 22.1252 249.031C21.3888 249.682 20.949 250.589 20.9025 251.554C20.8561 252.519 21.2068 253.463 21.8775 254.177C22.5482 254.891 23.4839 255.317 24.4789 255.362L24.4682 255.36Z" fill="#57B894"/>
<path d="M15.3549 249.479C15.8467 249.501 16.3383 249.43 16.8015 249.268C17.2647 249.106 17.6906 248.858 18.0547 248.536C18.4188 248.215 18.7141 247.827 18.9238 247.395C19.1334 246.963 19.2532 246.495 19.2764 246.018C19.2996 245.541 19.2257 245.065 19.0589 244.615C18.8921 244.166 18.6357 243.753 18.3044 243.4C17.973 243.047 17.5732 242.761 17.1277 242.557C16.6822 242.354 16.1998 242.238 15.708 242.215C15.006 242.182 14.3084 242.342 13.6965 242.677L14.3599 244.441L12.993 243.17C12.2619 243.819 11.8262 244.723 11.7812 245.684C11.7631 246.019 11.7956 246.356 11.8775 246.682C12.0642 247.452 12.5049 248.142 13.1325 248.646C13.7601 249.151 14.5404 249.443 15.3549 249.479V249.479Z" fill="#57B894"/>
<path opacity="0.1" d="M16.2124 237.273C17.0791 237.366 17.9217 237.628 18.791 237.68C19.6604 237.732 20.6153 237.53 21.1664 236.876C21.4633 236.521 21.6104 236.074 21.8592 235.69C22.0975 235.332 22.4225 235.035 22.8061 234.827C23.0326 235.286 23.1571 235.786 23.1714 236.295C23.1857 236.804 23.0896 237.31 22.8892 237.78C22.6889 238.251 22.3888 238.675 22.0084 239.026C21.628 239.377 21.1759 239.646 20.6813 239.816C20.1867 239.987 19.6607 240.054 19.1374 240.015C18.6141 239.975 18.1052 239.83 17.6437 239.587C17.1823 239.345 16.7785 239.011 16.4587 238.607C16.1388 238.203 15.91 237.739 15.7871 237.244C15.9289 237.25 16.0707 237.26 16.2124 237.273Z" fill="black"/>
<path opacity="0.1" d="M15.3551 249.479C16.0026 249.511 16.6475 249.379 17.2267 249.097C17.806 248.814 18.2997 248.391 18.6596 247.868C19.0196 247.345 19.2333 246.74 19.2801 246.113C19.3268 245.486 19.2048 244.858 18.9261 244.291C18.6281 244.486 18.372 244.735 18.1718 245.025C17.9043 245.416 17.7412 245.868 17.4282 246.228C16.8424 246.895 15.8446 247.113 14.9378 247.071C14.031 247.03 13.1563 246.783 12.2629 246.703C12.1372 246.703 12.0115 246.682 11.8857 246.68C12.0716 247.449 12.5108 248.138 13.1368 248.643C13.7629 249.148 14.5417 249.441 15.3551 249.479V249.479Z" fill="black"/>
<path opacity="0.1" d="M24.4684 255.36C25.1101 255.392 25.7494 255.263 26.325 254.986C26.9005 254.709 27.3929 254.293 27.7548 253.778C28.1167 253.263 28.336 252.667 28.3914 252.046C28.4469 251.425 28.3367 250.801 28.0715 250.234C27.7596 250.43 27.4876 250.681 27.269 250.973C26.9775 251.372 26.7956 251.832 26.4666 252.2C25.8353 252.885 24.7707 253.126 23.8104 253.103C22.8501 253.079 21.9861 252.861 21.0605 252.794C21.2865 253.51 21.7352 254.141 22.3453 254.6C22.9553 255.06 23.6969 255.325 24.4684 255.36V255.36Z" fill="black"/>
<path opacity="0.1" d="M22.6143 262.428C22.9873 263.149 23.5967 263.728 24.3465 264.075C25.0963 264.422 25.944 264.518 26.756 264.347C27.568 264.176 28.2982 263.748 28.8317 263.13C29.3652 262.512 29.6716 261.74 29.7028 260.934C29.7295 260.431 29.6466 259.928 29.4594 259.458C29.1501 259.654 28.8725 259.894 28.6355 260.169C28.2771 260.592 28.0444 261.069 27.6297 261.466C26.862 262.198 25.6235 262.504 24.5215 262.527C23.8843 262.53 23.2475 262.497 22.6143 262.428V262.428Z" fill="black"/>
<path d="M31.9907 267.796C31.9907 267.796 29.0269 267.707 28.1362 267.09C27.2454 266.473 23.5888 265.736 23.3561 266.727C23.1234 267.718 18.9023 271.656 22.2486 271.671C25.595 271.687 30.022 271.152 30.9127 270.633C31.8035 270.115 31.9907 267.796 31.9907 267.796Z" fill="#656380"/>
<path opacity="0.2" d="M22.1861 271.326C25.5324 271.352 29.9594 270.807 30.8529 270.288C31.5296 269.889 31.7998 268.449 31.8907 267.785H31.9897C31.9897 267.785 31.8025 270.102 30.9197 270.639C30.037 271.176 25.5993 271.697 22.2557 271.676C21.29 271.676 20.9556 271.336 20.9744 270.841C21.1001 271.134 21.4692 271.326 22.1861 271.326Z" fill="black"/>
<path opacity="0.2" d="M213.207 270.787C216.553 270.812 220.98 270.268 221.873 269.749C222.55 269.349 222.82 267.91 222.911 267.246H223.01C223.01 267.246 222.823 269.562 221.94 270.099C221.058 270.636 216.62 271.157 213.276 271.137C212.311 271.137 211.976 270.797 211.995 270.301C212.121 270.595 212.49 270.787 213.207 270.787Z" fill="black"/>
<path d="M168.67 176.239C166.901 175.651 165.118 175.106 163.32 174.605C163.616 173.431 163.892 172.25 164.147 171.064C168.197 151.995 165.549 136.633 156.505 131.577C147.833 126.726 133.65 131.784 119.323 143.87C117.911 145.067 116.531 146.295 115.185 147.554C114.281 146.715 113.363 145.893 112.43 145.087C97.4209 132.16 82.3851 126.715 73.3385 131.787C64.6744 136.651 62.1038 151.092 65.7551 169.165C66.1118 170.955 66.521 172.735 66.9829 174.504C64.8563 175.09 62.7993 175.715 60.8306 176.382C43.2322 182.32 31.9922 191.658 31.9922 201.332C31.9922 211.322 44.0588 221.343 62.39 227.418C63.8773 227.907 65.3753 228.362 66.8839 228.782C66.3953 230.685 65.9602 232.603 65.5786 234.536C62.1012 252.295 64.8189 266.397 73.4589 271.23C82.3851 276.226 97.3647 271.089 111.948 258.726C113.101 257.748 114.257 256.71 115.426 255.626C116.885 256.991 118.382 258.315 119.917 259.6C134.046 271.39 148.004 276.153 156.633 271.305C165.549 266.301 168.445 251.151 164.685 232.723C164.399 231.315 164.067 229.879 163.687 228.414C164.741 228.113 165.771 227.801 166.779 227.478C185.835 221.356 198.236 211.456 198.236 201.332C198.236 191.622 186.632 182.234 168.678 176.239H168.67Z" fill="#53C1DE"/>
<path d="M164.538 220.941C163.629 221.234 162.698 221.514 161.745 221.789C159.422 214.804 156.609 207.98 153.327 201.366C156.484 194.84 159.188 188.117 161.419 181.241C163.118 181.718 164.771 182.222 166.36 182.753C181.743 187.887 191.127 195.48 191.127 201.332C191.127 207.558 180.992 215.654 164.538 220.941ZM157.712 234.062C159.375 242.21 159.611 249.577 158.514 255.333C157.524 260.509 155.534 263.959 153.073 265.341C147.833 268.281 136.631 264.459 124.548 254.376C123.162 253.219 121.769 251.987 120.367 250.68C125.404 245.271 130.06 239.539 134.301 233.522C141.876 232.9 149.399 231.773 156.816 230.15C157.154 231.478 157.455 232.775 157.717 234.041L157.712 234.062ZM88.6665 264.838C83.5466 266.592 79.4701 266.641 77.0065 265.264C71.7636 262.33 69.5835 250.996 72.558 235.821C72.9147 234.027 73.3186 232.243 73.7698 230.469C81.1555 232.007 88.6401 233.058 96.1723 233.616C100.537 239.611 105.305 245.322 110.443 250.711C109.41 251.681 108.355 252.624 107.276 253.541C100.827 259.009 94.3614 262.88 88.6665 264.838ZM64.6884 220.902C56.5807 218.215 49.8881 214.723 45.2979 210.915C41.1758 207.491 39.0947 204.09 39.0947 201.332C39.0947 195.462 48.1199 187.973 63.1691 182.886C65.0593 182.248 66.9666 181.666 68.8907 181.14C71.1261 188.092 73.8327 194.893 76.9931 201.498C73.7934 208.199 71.0536 215.097 68.7917 222.147C67.4115 221.765 66.0437 221.35 64.6884 220.902ZM72.7266 167.843C69.6023 152.358 71.6753 140.677 76.8968 137.751C82.4579 134.638 94.7546 139.079 107.717 150.242C108.546 150.955 109.378 151.702 110.21 152.473C105.109 157.828 100.379 163.506 96.0519 169.469C88.5908 170.118 81.1809 171.235 73.8688 172.813C73.4426 171.166 73.0618 169.511 72.7266 167.845V167.843ZM144.444 185.013C142.819 182.291 141.135 179.603 139.391 176.95C144.695 177.602 149.775 178.463 154.547 179.521C153.016 184.232 151.24 188.865 149.227 193.402C147.691 190.575 146.097 187.778 144.444 185.013ZM115.191 157.394C118.648 161.049 121.913 164.87 124.973 168.844C118.427 168.545 111.878 168.545 105.326 168.844C108.555 164.714 111.863 160.875 115.191 157.396V157.394ZM85.7668 185.06C84.1351 187.804 82.5703 190.583 81.0723 193.397C79.0046 188.642 77.2365 183.965 75.792 179.449C80.5347 178.411 85.593 177.578 90.8626 176.937C89.0935 179.608 87.3932 182.315 85.7615 185.06H85.7668ZM91.0124 226.215C85.8689 225.673 80.7575 224.876 75.6984 223.826C77.1669 219.232 78.9752 214.453 81.0884 209.594C82.5917 212.412 84.1619 215.193 85.7989 217.937C87.4645 220.737 89.2005 223.496 91.007 226.215H91.0124ZM115.392 245.756C112.021 242.244 108.664 238.353 105.39 234.148C108.573 234.27 111.815 234.332 115.116 234.332C118.504 234.332 121.849 234.259 125.15 234.114C122.103 238.154 118.844 242.04 115.386 245.756H115.392ZM149.28 209.348C151.398 213.977 153.266 218.71 154.876 223.527C149.754 224.645 144.576 225.501 139.362 226.093C141.118 223.39 142.819 220.655 144.465 217.888C146.138 215.076 147.743 212.229 149.28 209.348ZM138.313 214.448C135.795 218.688 133.137 222.848 130.339 226.926C125.407 227.268 120.311 227.444 115.116 227.444C109.921 227.444 104.911 227.289 100.064 226.983C97.195 222.919 94.4853 218.753 91.9352 214.487C89.3851 210.221 87.0214 205.89 84.844 201.496C87.0321 197.081 89.3887 192.748 91.9138 188.499C94.4354 184.252 97.1219 180.101 99.9734 176.048C104.919 175.685 109.986 175.495 115.111 175.495C120.236 175.495 125.334 175.687 130.275 176.05C133.094 180.092 135.769 184.226 138.3 188.453C140.83 192.679 143.219 196.992 145.466 201.389C143.246 205.82 140.864 210.169 138.321 214.438L138.313 214.448ZM152.964 137.544C158.53 140.657 160.694 153.212 157.198 169.677C156.968 170.747 156.718 171.815 156.449 172.88C149.126 171.27 141.701 170.133 134.223 169.474C129.938 163.506 125.243 157.824 120.172 152.467C121.42 151.302 122.694 150.168 123.994 149.067C136.267 138.708 147.737 134.62 152.964 137.544Z" fill="white"/>
<path d="M115.11 186.935C118.047 186.935 120.917 187.779 123.358 189.361C125.8 190.943 127.703 193.192 128.826 195.823C129.95 198.453 130.244 201.348 129.671 204.141C129.098 206.934 127.684 209.499 125.608 211.513C123.532 213.526 120.887 214.897 118.007 215.453C115.127 216.008 112.142 215.723 109.429 214.634C106.717 213.544 104.398 211.699 102.767 209.331C101.135 206.963 100.265 204.18 100.265 201.332C100.264 199.441 100.648 197.569 101.394 195.822C102.14 194.075 103.233 192.488 104.612 191.151C105.991 189.814 107.627 188.754 109.429 188.03C111.23 187.307 113.161 186.935 115.11 186.935" fill="#53C1DE"/>
<path d="M90.0502 166.913C90.0502 166.913 89.5394 170.291 86.5301 170.753C83.5208 171.214 85.1926 173.606 85.1926 173.606L88.8038 175.422H90.6762C90.6762 175.422 92.4309 171.219 94.0172 170.143C95.6034 169.066 90.0502 166.913 90.0502 166.913Z" fill="#FFB8B8"/>
<path d="M90.0502 166.914C90.0502 166.914 89.5394 170.291 86.5301 170.753C83.5208 171.215 85.1926 173.607 85.1926 173.607L88.8038 175.422H90.6762C90.6762 175.422 92.4309 171.22 94.0172 170.143C95.6034 169.067 90.0502 166.914 90.0502 166.914Z" fill="#FFB8B8"/>
<path d="M140.539 166.914C140.539 166.914 141.049 170.291 144.059 170.753C147.068 171.215 145.396 173.607 145.396 173.607L141.785 175.422H139.913C139.913 175.422 138.158 171.22 136.572 170.143C134.985 169.067 140.539 166.914 140.539 166.914Z" fill="#FFB8B8"/>
<path d="M107.796 136.251C107.796 136.251 104.551 137.647 103.917 139.494C103.917 139.494 100.846 140.923 98.9311 143.844C98.9311 143.844 96.5504 146.306 96.2347 147.536C95.9191 148.765 92.2812 156.148 92.2812 156.148C92.2812 156.148 90.1413 166.084 89.0713 167.899C89.0713 167.899 90.0075 169.975 94.6886 171.401C94.6886 171.401 94.6886 172.05 96.8794 168.146C98.4656 162.763 102.272 156.148 102.272 156.148C102.272 156.148 103.54 151.536 104.65 150.765C105.76 149.995 107.504 146.459 109.09 147.393C110.677 148.327 121.144 147.237 121.144 147.237C121.144 147.237 127.323 149.997 127.478 151.842C127.633 153.686 128.746 153.842 128.904 155.38C129.061 156.919 134.93 169.067 134.93 169.067C134.93 169.067 136.15 171.272 136.284 171.272C136.284 171.272 140.029 169.715 142.436 167.51C142.436 167.51 142.436 167.51 142.169 166.732C141.415 164.539 135.249 148.451 135.249 148.451C135.249 148.451 134.615 146.298 133.981 145.683C133.347 145.069 128.799 139.847 127.055 139.847C127.055 139.847 124.688 136.56 123.578 136.251H107.796Z" fill="#2F2E41"/>
<path d="M109.706 141.958C109.706 141.958 109.072 150.112 113.036 151.494C117.001 152.877 113.513 144.726 113.513 144.726L112.242 142.267L109.706 141.958Z" fill="#FFB8B8"/>
<path d="M121.582 143.255C121.582 143.255 122.216 151.409 118.252 152.791C114.288 154.174 117.776 146.023 117.776 146.023L119.046 143.564L121.582 143.255Z" fill="#FFB8B8"/>
<path d="M190.381 264.908C191.649 262.631 190.209 259.839 188.556 257.808C186.903 255.777 184.884 253.658 184.926 251.064C184.988 247.341 189.059 245.147 192.315 243.172C194.728 241.709 196.954 239.974 198.946 238.002C199.748 237.211 200.516 236.366 200.984 235.354C201.658 233.901 201.639 232.241 201.597 230.653C201.456 225.342 201.188 220.038 200.794 214.741" stroke="#3F3D56" stroke-width="4" stroke-miterlimit="10"/>
<path d="M206.968 214.461C206.922 213.489 206.624 212.544 206.103 211.714C205.581 210.883 204.852 210.193 203.982 209.708L202.645 212.276L202.685 209.163C201.468 208.814 200.169 208.849 198.974 209.263C197.779 209.678 196.751 210.449 196.038 211.467C195.325 212.485 194.964 213.696 195.007 214.926C195.051 216.155 195.496 217.34 196.278 218.308C197.061 219.277 198.141 219.979 199.362 220.313C200.583 220.647 201.882 220.596 203.072 220.168C204.261 219.739 205.279 218.955 205.979 217.929C206.679 216.903 207.024 215.687 206.965 214.458L206.968 214.461Z" fill="#57B894"/>
<path d="M196.3 253.733C195.673 254.916 194.644 255.855 193.388 256.39C192.132 256.926 190.724 257.026 189.4 256.674C188.077 256.323 186.918 255.54 186.119 254.458C185.32 253.377 184.929 252.061 185.011 250.733C185.093 249.404 185.644 248.144 186.571 247.162C187.497 246.181 188.744 245.539 190.102 245.343C191.459 245.147 192.844 245.41 194.026 246.087C195.207 246.765 196.112 247.816 196.589 249.063L192.844 252.013L196.956 251.087C196.958 252.007 196.733 252.914 196.3 253.733V253.733Z" fill="#57B894"/>
<path d="M193.345 242.466C191.881 242.527 190.445 242.064 189.31 241.166C188.174 240.268 187.418 238.997 187.184 237.595C186.95 236.192 187.255 234.755 188.041 233.556C188.827 232.357 190.039 231.479 191.448 231.089L191.416 233.48L192.769 230.886H192.786C193.574 230.845 194.363 230.956 195.107 231.211C195.851 231.467 196.535 231.863 197.121 232.376C197.707 232.89 198.182 233.511 198.519 234.203C198.856 234.895 199.048 235.645 199.085 236.41C199.122 237.175 199.003 237.939 198.734 238.659C198.465 239.378 198.051 240.039 197.518 240.603C196.984 241.168 196.341 241.624 195.624 241.946C194.908 242.268 194.133 242.449 193.345 242.479V242.466Z" fill="#57B894"/>
<path d="M207.868 233.094C206.943 233.136 206.02 232.969 205.172 232.607C204.325 232.244 203.576 231.695 202.984 231.004C202.392 230.313 201.974 229.497 201.763 228.623C201.551 227.748 201.552 226.838 201.765 225.963C201.978 225.089 202.397 224.274 202.99 223.584C203.583 222.894 204.333 222.346 205.181 221.985C206.029 221.623 206.953 221.458 207.878 221.501C208.803 221.545 209.706 221.796 210.514 222.235L209.444 225.045L211.618 223.021C212.489 223.796 213.104 224.803 213.385 225.916C213.666 227.029 213.602 228.197 213.199 229.275C212.797 230.352 212.074 231.289 211.123 231.969C210.172 232.649 209.035 233.04 207.855 233.094H207.868Z" fill="#57B894"/>
<path opacity="0.1" d="M206.166 216.007C204.783 216.154 203.44 216.572 202.055 216.655C200.669 216.738 199.147 216.416 198.272 215.358C197.799 214.795 197.564 214.084 197.165 213.47C196.787 212.899 196.269 212.427 195.659 212.095C195.273 212.83 195.054 213.637 195.015 214.462C194.976 215.286 195.119 216.109 195.435 216.876C195.75 217.642 196.23 218.335 196.844 218.907C197.457 219.479 198.189 219.918 198.991 220.194C199.793 220.47 200.647 220.577 201.495 220.508C202.343 220.439 203.166 220.195 203.909 219.793C204.652 219.391 205.298 218.839 205.804 218.176C206.31 217.512 206.664 216.751 206.843 215.944C206.616 215.968 206.391 215.983 206.166 216.007Z" fill="black"/>
<path opacity="0.1" d="M207.868 233.094C206.837 233.14 205.811 232.927 204.89 232.475C203.969 232.023 203.184 231.347 202.611 230.515C202.038 229.682 201.697 228.719 201.621 227.721C201.545 226.723 201.736 225.722 202.176 224.816C202.652 225.126 203.061 225.524 203.38 225.986C203.805 226.609 204.064 227.33 204.565 227.903C205.495 228.964 207.09 229.312 208.534 229.25C209.979 229.187 211.37 228.788 212.814 228.658C213.015 228.643 213.215 228.63 213.418 228.625C213.121 229.854 212.418 230.955 211.416 231.762C210.414 232.568 209.169 233.036 207.868 233.094Z" fill="black"/>
<path opacity="0.1" d="M193.343 242.467C192.322 242.513 191.306 242.305 190.392 241.862C189.477 241.42 188.695 240.757 188.119 239.938C187.544 239.119 187.194 238.171 187.104 237.183C187.013 236.196 187.185 235.203 187.603 234.298C188.096 234.612 188.525 235.012 188.868 235.478C189.334 236.114 189.622 236.845 190.168 237.434C191.177 238.524 192.872 238.908 194.403 238.871C195.884 238.84 197.31 238.488 198.784 238.379C198.422 239.52 197.705 240.526 196.731 241.258C195.757 241.99 194.574 242.412 193.343 242.467V242.467Z" fill="black"/>
<path opacity="0.1" d="M196.299 253.733C195.606 255.066 194.409 256.089 192.958 256.588C191.507 257.088 189.913 257.026 188.508 256.414C187.103 255.803 185.995 254.69 185.414 253.307C184.834 251.924 184.825 250.377 185.391 248.988C185.884 249.302 186.327 249.685 186.704 250.124C187.274 250.796 187.649 251.559 188.309 252.184C189.532 253.349 191.506 253.829 193.263 253.873C194.277 253.884 195.291 253.837 196.299 253.733V253.733Z" fill="black"/>
<path d="M109.927 106.756C110.398 102.122 110.941 104.525 117.096 105.335C124.463 106.305 124.245 104.165 124.513 106.895C124.231 108.069 124.044 110.494 117.337 109.163C111.633 110.601 110.365 107.175 109.927 106.756Z" fill="#2F2E41"/>
<path d="M181.357 262.286C181.357 262.286 186.079 262.145 187.51 261.162C188.941 260.179 194.775 259.007 195.128 260.581C195.481 262.156 202.225 268.421 196.893 268.462C191.562 268.504 184.506 267.658 183.085 266.817C181.665 265.977 181.357 262.286 181.357 262.286Z" fill="#656380"/>
<path opacity="0.2" d="M196.979 267.925C191.648 267.966 184.591 267.118 183.171 266.28C182.101 265.639 181.66 263.349 181.515 262.29H181.357C181.357 262.29 181.657 265.984 183.077 266.822C184.498 267.66 191.554 268.508 196.885 268.467C198.423 268.467 198.956 267.925 198.926 267.139C198.712 267.608 198.127 267.904 196.979 267.925Z" fill="black"/>
<path d="M55.6353 101.454L50.7536 104.456L53.7174 99.2284C52.8811 98.5799 51.8457 98.2203 50.775 98.2064H50.6947C50.3561 98.2109 50.0178 98.1866 49.6836 98.1337L48.0278 99.1506L48.7367 97.9002C47.565 97.5032 46.5522 96.7579 45.8424 95.7705L42.8813 97.5864L44.7537 94.2867C43.0204 92.2711 40.6878 91.0337 38.1172 91.0337C35.0384 91.0337 32.2966 92.8106 30.5258 95.5785C30.0021 96.4061 29.2621 97.0848 28.3809 97.5458C27.4996 98.0068 26.5084 98.2338 25.5076 98.2038H25.3418C21.942 98.2038 19.1895 101.942 19.1895 106.554C19.1895 111.166 21.9446 114.902 25.3418 114.902C26.0879 114.9 26.8223 114.722 27.4817 114.383C29.6992 113.265 32.6096 113.244 34.9314 114.243C35.9268 114.677 37.0056 114.903 38.0971 114.905C39.1886 114.907 40.2683 114.686 41.2656 114.256C43.5714 113.278 46.4469 113.299 48.6511 114.396C49.305 114.732 50.0325 114.91 50.7723 114.915C54.1721 114.915 56.9246 111.177 56.9246 106.567C56.945 104.785 56.5015 103.026 55.6353 101.454V101.454Z" fill="#F2F2F2"/>
<path opacity="0.03" d="M46.4316 113.67C44.6554 113.342 42.819 113.536 41.1566 114.225C40.1597 114.655 39.0804 114.876 37.9894 114.873C36.8984 114.871 35.8202 114.646 34.8251 114.212C32.5006 113.213 29.5902 113.234 27.3727 114.352C26.7133 114.691 25.9789 114.869 25.2328 114.871C22.2128 114.871 19.701 111.919 19.1768 108.028C19.7801 107.602 20.2924 107.066 20.6854 106.451C22.4669 103.685 25.198 101.903 28.2769 101.903C31.3557 101.903 34.0654 103.659 35.8362 106.396C36.3646 107.223 37.1042 107.904 37.9833 108.372C38.8624 108.841 39.8513 109.081 40.8544 109.071H40.9239C43.3313 109.073 45.4178 110.943 46.4316 113.67Z" fill="black"/>
<path d="M183.25 107.566L180.823 109.063L182.303 106.469C181.885 106.141 181.366 105.959 180.829 105.95H180.791C180.622 105.952 180.453 105.94 180.286 105.914L179.459 106.433L179.807 105.794C179.222 105.597 178.717 105.226 178.362 104.733L176.886 105.641L177.819 103.997C177.427 103.505 176.926 103.104 176.354 102.823C175.781 102.543 175.152 102.389 174.511 102.373C172.973 102.373 171.606 103.26 170.723 104.64C170.461 105.051 170.091 105.388 169.651 105.615C169.211 105.843 168.717 105.954 168.219 105.937H168.136C166.44 105.937 165.065 107.802 165.065 110.088C165.065 112.373 166.44 114.251 168.136 114.251C168.509 114.25 168.876 114.161 169.206 113.992C169.783 113.72 170.414 113.573 171.056 113.561C171.698 113.549 172.334 113.672 172.922 113.922C173.419 114.136 173.957 114.247 174.501 114.247C175.045 114.247 175.584 114.136 176.081 113.922C176.664 113.677 177.295 113.556 177.93 113.568C178.566 113.58 179.191 113.725 179.764 113.992C180.094 114.161 180.461 114.25 180.834 114.251C182.53 114.251 183.905 112.389 183.905 110.088C183.907 109.207 183.682 108.34 183.25 107.566V107.566Z" fill="#F2F2F2"/>
<path opacity="0.03" d="M178.661 113.659C177.775 113.497 176.86 113.594 176.031 113.937C175.534 114.152 174.996 114.262 174.452 114.262C173.908 114.262 173.369 114.152 172.872 113.937C172.284 113.687 171.647 113.564 171.005 113.576C170.363 113.588 169.732 113.735 169.154 114.007C168.825 114.177 168.457 114.266 168.084 114.266C166.576 114.266 165.324 112.796 165.062 110.855C165.362 110.644 165.618 110.38 165.816 110.077C166.699 108.697 168.068 107.812 169.604 107.812C171.139 107.812 172.49 108.686 173.373 110.051C173.636 110.464 174.005 110.803 174.444 111.037C174.882 111.271 175.376 111.39 175.876 111.384H175.916C177.117 111.366 178.147 112.3 178.661 113.659Z" fill="black"/>
<path d="M23.8949 146.332L27.8163 148.739L25.441 144.55C26.1146 144.03 26.9475 143.742 27.8083 143.733H27.8698C28.1386 143.737 28.4071 143.718 28.6723 143.676L29.9964 144.49L29.4213 143.489C30.3593 143.169 31.1704 142.572 31.7405 141.782L34.1131 143.24L32.6312 140.597C34.0195 138.983 35.8893 138.002 37.9463 138.002C40.4152 138.002 42.6114 139.424 44.0317 141.634C44.4502 142.296 45.0417 142.84 45.7463 143.209C46.4508 143.579 47.2435 143.761 48.0441 143.738H48.1779C50.901 143.738 53.1078 146.732 53.1078 150.426C53.1078 154.12 50.901 157.116 48.1779 157.116C47.5782 157.113 46.988 156.97 46.4579 156.698C45.5309 156.261 44.5171 156.025 43.4867 156.006C42.4562 155.987 41.4338 156.185 40.4901 156.587C39.6906 156.933 38.8247 157.112 37.949 157.112C37.0732 157.112 36.2073 156.933 35.4078 156.587C34.4709 156.193 33.4577 155.999 32.4368 156.018C31.416 156.038 30.4113 156.269 29.4909 156.698C28.9661 156.963 28.3838 157.103 27.7923 157.105C25.0665 157.105 22.8597 154.112 22.8597 150.415C22.8469 148.992 23.2028 147.588 23.8949 146.332V146.332Z" fill="#F2F2F2"/>
<path opacity="0.03" d="M31.2656 156.12C32.6889 155.86 34.1598 156.015 35.492 156.566C36.2915 156.912 37.1574 157.092 38.0332 157.092C38.9089 157.092 39.7748 156.912 40.5744 156.566C41.5185 156.164 42.5414 155.966 43.5722 155.985C44.6031 156.004 45.6173 156.241 46.5448 156.677C47.0739 156.949 47.6632 157.093 48.2621 157.095C50.6829 157.095 52.6945 154.732 53.1144 151.614C52.6314 151.271 52.2209 150.841 51.9053 150.348C50.485 148.132 48.2888 146.716 45.8199 146.716C43.3509 146.716 41.1842 148.122 39.7639 150.317C39.3412 150.978 38.7499 151.522 38.0471 151.897C37.3442 152.272 36.5536 152.465 35.7515 152.457H35.6899C33.748 152.439 32.0788 153.938 31.2656 156.12Z" fill="black"/>
<path d="M121.706 113.164C123.036 113.164 124.114 112.061 124.114 110.7C124.114 109.339 123.036 108.236 121.706 108.236C120.377 108.236 119.299 109.339 119.299 110.7C119.299 112.061 120.377 113.164 121.706 113.164Z" fill="#FF9362"/>
<path d="M122.414 108.358C122.808 108.358 123.196 108.473 123.538 108.691C123.881 108.909 124.167 109.224 124.369 109.604C124.571 109.984 124.682 110.416 124.69 110.858C124.699 111.3 124.605 111.737 124.418 112.127C124.616 111.849 124.76 111.529 124.841 111.186C124.922 110.843 124.938 110.485 124.889 110.134C124.84 109.783 124.726 109.448 124.555 109.15C124.384 108.851 124.16 108.596 123.896 108.4C123.632 108.204 123.335 108.072 123.024 108.013C122.712 107.953 122.393 107.967 122.086 108.053C121.779 108.139 121.492 108.297 121.243 108.515C120.993 108.733 120.787 109.007 120.637 109.319C120.85 109.019 121.12 108.777 121.428 108.61C121.735 108.444 122.073 108.358 122.414 108.358V108.358Z" fill="#FF9362"/>
<path d="M111.829 95.9884C115.916 97.5966 115.325 96.1815 113.99 103.326C112.678 110.34 113.578 105.677 112.948 108.121C111.956 107.565 106.593 107.847 108.599 101.88C107.261 97.4709 111.336 96.2829 111.829 95.9884Z" fill="#2F2E41"/>
<path d="M122.784 96.2538C118.698 97.862 119.289 96.4469 120.624 103.591C121.936 110.606 121.036 105.942 121.666 108.386C122.658 107.83 127.592 108.231 125.987 102.135C127.325 97.726 123.278 96.5483 122.784 96.2538Z" fill="#2F2E41"/>
<path d="M117.293 110.83C121.06 110.83 124.114 107.578 124.114 103.566C124.114 99.5547 121.06 96.3027 117.293 96.3027C113.526 96.3027 110.472 99.5547 110.472 103.566C110.472 107.578 113.526 110.83 117.293 110.83Z" fill="#F28B5C"/>
<path d="M112.001 99.0366C113.174 97.6442 114.815 96.7873 116.575 96.6468C118.336 96.5062 120.08 97.093 121.439 98.2832C121.383 98.2273 121.328 98.171 121.27 98.1168C119.92 96.8512 118.149 96.2032 116.346 96.3152C114.544 96.4272 112.857 97.29 111.657 98.714C110.457 100.138 109.842 102.006 109.948 103.908C110.054 105.811 110.871 107.59 112.221 108.857C112.279 108.911 112.338 108.962 112.397 109.014C111.118 107.73 110.361 105.971 110.287 104.11C110.213 102.248 110.828 100.429 112.001 99.0366V99.0366Z" fill="#FF9362"/>
<path opacity="0.1" d="M107.129 114.478L105.354 116.497C105.354 116.497 106.381 123.53 106.473 124.754C106.566 125.64 106.741 126.615 107.008 127.478C107.008 127.478 107.107 131.041 107.008 132.407C106.909 133.773 107.811 136.428 107.811 136.428C107.845 137.725 107.953 138.538 108.346 139.8C108.95 141.517 109.683 143.952 109.683 143.952C109.683 143.952 110.485 142.265 113.499 145.07C113.929 144.754 114.195 144.439 114.23 143.957C114.265 143.474 114.066 142.863 113.686 142.492C113.686 142.492 112.739 138.294 112.893 136.168C113.179 134.093 111.561 123.759 111.561 123.759C111.561 123.759 111.685 111.884 107.129 114.478Z" fill="#6D688A"/>
<path d="M117.294 110.83C119.731 110.83 121.707 108.681 121.707 106.031C121.707 103.38 119.731 101.231 117.294 101.231C114.856 101.231 112.88 103.38 112.88 106.031C112.88 108.681 114.856 110.83 117.294 110.83Z" fill="#FFB8B8"/>
<path d="M114.133 107.717C114.133 107.717 114.724 113.209 113.778 113.806C112.832 114.404 119.218 115.239 119.218 115.239C119.218 115.239 118.272 109.269 120.637 107.717H114.133Z" fill="#FFB8B8"/>
<path d="M119.723 112.584C119.723 112.584 121.453 111.727 118.962 112.032C116.471 112.337 114.321 111.168 114.321 111.168C114.321 111.168 113.567 110.367 113.45 111.229C113.334 112.091 113.799 113.692 111.243 113.938C108.688 114.185 107.923 113.522 106.994 115.369C106.065 117.216 106.994 124.708 106.994 124.708C106.994 124.708 107.114 131.794 108.508 132.779C109.902 133.765 121.698 132.41 121.698 132.41L125.183 125.76V118.002C125.183 118.002 124.825 115.019 121.572 115.758C121.572 115.758 119.375 115.539 119.491 114.431C119.607 113.323 119.723 112.584 119.723 112.584Z" fill="#C7C2E4"/>
<path d="M110.07 120.039L115.688 120.557L121.439 120.298V137.938H110.204L110.07 120.039Z" fill="#2F2E41"/>
<path d="M106.871 114.606L105.354 116.524C105.354 116.524 106.3 123.468 106.429 124.701C106.545 125.591 106.738 126.47 107.006 127.329C107.006 127.329 107.077 131.023 107.044 132.405C107.012 133.787 107.759 136.113 107.759 136.113C107.84 137.423 108.078 138.719 108.471 139.975C109.065 141.682 109.654 143.693 109.654 143.693C109.654 143.693 110.507 141.559 113.592 144.858C113.953 144.517 114.162 144.053 114.174 143.564C114.185 143.076 113.998 142.602 113.653 142.246C113.653 142.246 112.799 138.075 112.85 135.92C112.901 133.765 111.401 123.433 111.401 123.433C111.401 123.433 110.745 111.768 106.871 114.606Z" fill="#C1BAE8"/>
<path d="M109.803 114.012C109.803 114.012 111.188 116.438 110.739 119.52C110.29 122.602 112.478 130.285 112.478 130.285L113.681 129.915C113.681 129.915 112.521 123.464 112.745 121.984C112.97 120.505 112.931 114.752 111.809 114.012C110.687 113.272 109.803 114.012 109.803 114.012Z" fill="#2F2E41"/>
<path d="M113.683 100.194V104.863H114.681L115.952 103.389L115.782 104.863H120.196L119.924 103.389L120.469 104.863H121.172V100.194H113.683Z" fill="#F28B5C"/>
<path d="M88.806 169.455C88.806 169.455 88.1372 170.234 87.7359 170.364C84.7266 170.825 83.4561 175.681 83.4561 175.681L87.0673 177.497L91.8202 173.009C91.8202 173.009 91.6173 173.437 92.2833 172.309C91.0796 171.66 88.806 169.455 88.806 169.455Z" fill="#B9B4DA"/>
<path d="M141.634 169.251C141.634 169.251 142.29 170.039 142.689 170.175C145.69 170.684 146.881 175.559 146.881 175.559L143.24 177.318L138.562 172.757C138.562 172.757 138.758 173.189 138.11 172.05C139.325 171.42 141.634 169.251 141.634 169.251Z" fill="#B9B4DA"/>
<path d="M112.745 105.641C112.967 105.641 113.146 105.351 113.146 104.993C113.146 104.635 112.967 104.344 112.745 104.344C112.523 104.344 112.344 104.635 112.344 104.993C112.344 105.351 112.523 105.641 112.745 105.641Z" fill="#FFB8B8"/>
<path d="M124.965 116.705L125.767 117.621C125.767 117.621 126.701 122.859 124.638 129.471L124.004 135.469C124.004 135.469 122.894 140.545 122.736 141.775C122.579 143.004 122.576 143.16 122.26 143.622C122.163 143.729 122.11 143.868 122.11 144.011C122.11 144.154 122.163 144.292 122.26 144.4L121.313 147.783C121.313 147.783 119.888 146.089 117.033 148.242C117.033 148.242 116.231 147.012 116.876 145.936C117.52 144.859 117.51 144.397 117.352 144.091C117.194 143.785 117.986 142.244 117.986 141.938C117.986 141.632 119.096 134.555 119.096 134.555C119.096 134.555 119.572 127.634 120.048 125.326C120.524 123.017 120.206 116.098 120.206 116.098C120.206 116.098 122.744 114.407 124.965 116.705Z" fill="#C1BAE8"/>
<path opacity="0.1" d="M124.917 116.726L125.72 117.634C125.72 117.634 126.707 122.844 124.645 129.459L124.011 135.457C124.011 135.457 122.901 140.533 122.743 141.763C122.585 142.993 122.585 143.146 122.267 143.607C122.17 143.715 122.117 143.853 122.117 143.996C122.117 144.139 122.17 144.278 122.267 144.386L121.314 147.758C121.314 147.758 119.889 146.067 117.034 148.22C117.034 148.22 116.232 146.99 116.874 145.913C117.516 144.837 117.508 144.375 117.35 144.066C117.192 143.758 117.984 142.222 117.984 141.913C117.984 141.605 119.102 134.536 119.102 134.536C119.102 134.536 119.578 127.615 120.054 125.309C120.346 123.89 120.287 120.578 120.236 118.352C120.185 116.033 122.678 114.578 124.382 116.208C124.382 116.208 124.872 116.669 124.917 116.726Z" fill="#C1BAE8"/>
<path d="M121.706 105.641C121.854 105.641 121.973 105.351 121.973 104.993C121.973 104.635 121.854 104.344 121.706 104.344C121.558 104.344 121.438 104.635 121.438 104.993C121.438 105.351 121.558 105.641 121.706 105.641Z" fill="#FFB8B8"/>
<path d="M120.369 116.203L118.362 129.637L119.432 130.026C119.432 130.026 122.978 115.499 122.318 115.499H120.974C120.892 115.499 120.811 115.517 120.735 115.553C120.66 115.589 120.592 115.641 120.535 115.707C120.478 115.773 120.435 115.851 120.406 115.936C120.378 116.021 120.365 116.112 120.369 116.203Z" fill="#2F2E41"/>
<path d="M120.637 107.718C120.637 107.717 120.638 107.716 120.637 107.717C120.637 107.717 120.637 107.717 120.637 107.717" stroke="#CE7952" stroke-width="0.2" stroke-linecap="round" stroke-linejoin="round"/>
<path d="M115.019 107.199C115.019 107.198 115.02 107.197 115.019 107.198C115.019 107.198 115.018 107.198 115.019 107.198" stroke="#CE7952" stroke-width="0.2" stroke-linecap="round" stroke-linejoin="round"/>
<path d="M114.217 107.718C114.217 107.717 114.218 107.716 114.217 107.717C114.217 107.717 114.217 107.717 114.217 107.717" stroke="#CE7952" stroke-width="0.2" stroke-linecap="round" stroke-linejoin="round"/>
<path d="M119.033 107.718C119.033 107.717 119.034 107.716 119.033 107.717C119.033 107.717 119.032 107.717 119.032 107.717" stroke="#CE7952" stroke-width="0.2" stroke-linecap="round" stroke-linejoin="round"/>
<path d="M119.835 107.199C119.836 107.198 119.837 107.197 119.836 107.198C119.835 107.198 119.835 107.198 119.835 107.198" stroke="#CE7952" stroke-width="0.2" stroke-linecap="round" stroke-linejoin="round"/>
<path d="M115.823 107.718C115.823 107.717 115.824 107.716 115.823 107.717C115.823 107.717 115.822 107.717 115.822 107.717" stroke="#CE7952" stroke-width="0.2" stroke-linecap="round" stroke-linejoin="round"/>
<path d="M117.428 107.199C117.428 107.198 117.429 107.197 117.428 107.198C117.428 107.198 117.428 107.198 117.428 107.198" stroke="#CE7952" stroke-width="0.2" stroke-linecap="round" stroke-linejoin="round"/>
<path d="M138.217 172.514C138.792 172.825 139.424 173.048 140.097 173.176C141.184 173.377 142.064 172.019 142.064 172.019C142.064 172.019 142.619 169.933 143.286 170.069C143.953 170.206 147.386 170.801 147.386 170.801C147.386 170.801 155.868 169.695 151.971 174.153C146.333 176.46 140.582 178.405 140.582 178.405C140.582 178.405 140.5 178.77 139.508 177.905C138.516 177.04 138.217 172.514 138.217 172.514Z" fill="#2F2E41"/>
<path d="M138.217 172.514C138.792 172.825 139.424 173.048 140.097 173.176C141.184 173.377 142.064 172.019 142.064 172.019C142.064 172.019 142.619 169.933 143.286 170.069C143.953 170.206 147.386 170.801 147.386 170.801C147.386 170.801 155.868 169.695 151.971 174.153C146.333 176.46 140.582 178.405 140.582 178.405C140.582 178.405 140.5 178.77 139.508 177.905C138.516 177.04 138.217 172.514 138.217 172.514Z" fill="#2F2E41"/>
<path d="M92.3744 172.514C91.8003 172.825 91.1676 173.048 90.4952 173.176C89.4082 173.377 88.528 172.019 88.528 172.019C88.528 172.019 87.9729 169.933 87.3059 170.069C86.6388 170.206 83.2054 170.801 83.2054 170.801C83.2054 170.801 74.7237 169.695 78.6205 174.153C84.2588 176.46 90.0099 178.405 90.0099 178.405C90.0099 178.405 90.0918 178.77 91.0839 177.905C92.0761 177.04 92.3744 172.514 92.3744 172.514Z" fill="#2F2E41"/>
<path d="M92.3744 172.514C91.8003 172.825 91.1676 173.048 90.4952 173.176C89.4082 173.377 88.528 172.019 88.528 172.019C88.528 172.019 87.9729 169.933 87.3059 170.069C86.6388 170.206 83.2054 170.801 83.2054 170.801C83.2054 170.801 74.7237 169.695 78.6205 174.153C84.2588 176.46 90.0099 178.405 90.0099 178.405C90.0099 178.405 90.0918 178.77 91.0839 177.905C92.0761 177.04 92.3744 172.514 92.3744 172.514Z" fill="#2F2E41"/>
<path d="M123.847 96.8402C123.054 101.372 123.966 98.2815 117.389 98.2815C110.932 98.2815 111.008 99.5589 111.008 96.8398C111.348 95.7068 113.538 92.7245 117.503 94.7825C122.51 93.1895 123.508 96.387 123.847 96.8402Z" fill="#2F2E41"/>
<path d="M123.723 99.2496C123.708 99.7508 120.644 98.6447 117.322 98.5522C113.999 98.4596 110.996 99.7859 111.011 99.2847C111.026 98.7835 113.148 96.9511 117.375 96.7371C120.698 96.8296 123.738 98.7483 123.723 99.2496Z" fill="#24233D"/>
<path d="M117.157 95.6155C117.132 95.8054 117.137 95.9959 117.173 96.1684C117.209 96.3409 117.071 96.5815 117.159 96.6917C117.077 96.7837 116.997 96.2395 117.114 96.2586C117.232 96.2777 117.057 96.2453 117.173 96.1684C117.087 96.2541 117.281 96.8214 117.281 96.8214C117.147 96.8214 117.147 96.6917 117.281 96.8214C117.183 96.8214 117.238 96.8163 117.147 96.8214C117.078 96.7289 117.108 96.4647 117.072 96.331C117.037 96.1973 117.021 96.0496 117.026 95.8974C117.03 95.7453 117.054 95.5919 117.097 95.447C117.14 95.3022 117.201 95.1691 117.275 95.0563C117.35 94.9434 117.436 94.8532 117.529 94.7915C117.435 94.8839 117.353 95.006 117.289 95.1487C117.224 95.2913 117.18 95.4509 117.157 95.6155Z" fill="#24233D"/>
<path d="M125.227 102.536C125.065 102.596 124.895 102.626 124.733 102.625C124.572 102.624 124.392 102.798 124.273 102.736C124.212 102.831 124.714 102.804 124.668 102.697C124.622 102.591 124.694 102.748 124.733 102.625C124.679 102.722 124.128 102.647 124.128 102.647C124.161 102.773 124.276 102.748 124.128 102.647C124.152 102.739 124.143 102.686 124.161 102.773C124.26 102.819 124.487 102.742 124.614 102.75C124.741 102.758 124.876 102.745 125.01 102.712C125.144 102.68 125.273 102.628 125.391 102.56C125.509 102.493 125.612 102.411 125.694 102.32C125.775 102.229 125.834 102.131 125.866 102.032C125.807 102.137 125.719 102.237 125.608 102.325C125.498 102.412 125.368 102.484 125.227 102.536Z" fill="#24233D"/>
<path d="M109.184 102.209C109.306 102.254 109.436 102.27 109.563 102.256C109.689 102.241 109.814 102.396 109.913 102.327C109.953 102.413 109.563 102.427 109.608 102.32C109.653 102.213 109.583 102.372 109.563 102.256C109.597 102.346 110.034 102.228 110.034 102.228C109.997 102.353 109.91 102.338 110.034 102.228C110.007 102.319 110.019 102.268 109.997 102.353C109.916 102.406 109.745 102.35 109.645 102.367C109.545 102.385 109.441 102.383 109.339 102.363C109.237 102.342 109.14 102.302 109.054 102.246C108.968 102.19 108.894 102.119 108.838 102.038C108.782 101.956 108.744 101.866 108.728 101.772C108.765 101.87 108.825 101.96 108.904 102.035C108.983 102.111 109.079 102.17 109.184 102.209Z" fill="#24233D"/>
<path d="M111.576 97.1777C111.683 97.3387 111.814 97.4808 111.956 97.59C112.099 97.6992 112.153 97.9695 112.294 97.9984C112.292 98.1203 111.869 97.7548 111.971 97.6959C112.074 97.637 111.919 97.7214 111.956 97.59C111.947 97.7098 112.473 98.0217 112.473 98.0217C112.371 98.1054 112.284 98.0063 112.473 98.0217C112.398 98.0827 112.437 98.0446 112.371 98.1054C112.257 98.0777 112.103 97.8575 111.987 97.7774C111.872 97.6972 111.761 97.5944 111.663 97.4755C111.565 97.3566 111.482 97.2241 111.418 97.0866C111.355 96.949 111.312 96.8094 111.294 96.6767C111.276 96.5439 111.282 96.4209 111.312 96.3155C111.302 96.4448 111.32 96.5895 111.366 96.7388C111.412 96.8881 111.483 97.0381 111.576 97.1777Z" fill="#24233D"/>
<path d="M123.465 97.681C123.348 97.8356 123.209 97.9699 123.06 98.0708C122.912 98.1716 122.841 98.4384 122.698 98.4591C122.693 98.5809 123.138 98.2403 123.039 98.1756C122.94 98.1109 123.09 98.2041 123.06 98.0708C123.062 98.1909 122.518 98.472 122.518 98.472C122.615 98.5615 122.707 98.4675 122.518 98.472C122.589 98.5373 122.553 98.497 122.615 98.5615C122.731 98.5403 122.897 98.3294 123.018 98.256C123.138 98.1827 123.255 98.0864 123.36 97.9733C123.465 97.8602 123.556 97.7328 123.628 97.5991C123.7 97.4655 123.751 97.3286 123.777 97.1971C123.803 97.0656 123.805 96.9425 123.781 96.8355C123.784 96.9652 123.756 97.1086 123.702 97.255C123.647 97.4014 123.566 97.547 123.465 97.681Z" fill="#24233D"/>
<path d="M223.008 267.256C223.008 267.256 220.044 267.168 219.154 266.551C218.263 265.933 214.606 265.197 214.374 266.187C214.141 267.178 209.92 271.116 213.266 271.132C216.613 271.147 221.04 270.613 221.93 270.094C222.821 269.575 223.008 267.256 223.008 267.256Z" fill="#656380"/>
</svg>
