<svg width="443" height="365" viewBox="0 0 443 365" fill="none" xmlns="http://www.w3.org/2000/svg">
<path opacity="0.1" d="M53.2904 48.7359C57.3276 24.6471 78.1778 7.00055 102.603 7.00055H392.285C419.899 7.00055 442.285 29.3863 442.285 57.0005V315.001C442.285 342.615 419.899 365.001 392.285 365.001H59.3624C28.4471 365.001 4.94011 337.226 10.0502 306.736L53.2904 48.7359Z" fill="#2D9CDB"/>
<ellipse cx="382.675" cy="313.031" rx="30.9248" ry="18.2737" transform="rotate(20.7184 382.675 313.031)" stroke="white" stroke-width="1.5"/>
<path d="M108.727 254.711C48.1924 266.918 33.5681 202.794 74.9586 128.69C168.955 -11.8779 317.407 29.8642 340.046 57.66C362.686 85.4557 344.492 118.797 257.253 133.394C170.014 147.99 184.394 239.452 108.727 254.711Z" stroke="white" stroke-width="1.5"/>
</svg>
