<svg width="264" height="189" viewBox="0 0 264 189" fill="none" xmlns="http://www.w3.org/2000/svg">
<path d="M177.096 87.9319L179.061 87.7019C179.25 87.6795 179.437 87.6515 179.634 87.6285C176.646 85.6204 174.453 82.6864 173.413 79.3088C172.374 75.9312 172.551 72.3112 173.914 69.0439C175.278 65.7766 177.747 63.0566 180.917 61.331C184.086 59.6054 187.766 58.977 191.353 59.5491L188.487 65.3143L194.809 60.4921L194.851 60.5025C198.778 62.0682 201.904 65.0826 203.54 68.8829C205.177 72.6832 205.189 76.9582 203.576 80.7676C203.461 81.0417 203.326 81.3023 203.197 81.5674C204.946 80.8197 206.636 79.9337 208.038 78.7635C210.883 76.3857 212.538 72.9909 214.42 68.7982C218.149 60.4951 221.763 52.0613 225.248 43.6008C221.994 41.6812 219.552 38.6988 218.362 35.1896C217.171 31.6804 217.311 27.8745 218.755 24.4561C218.942 24.0153 219.151 23.5935 219.372 23.1801C219.427 23.0761 219.483 22.9721 219.54 22.8713C219.765 22.4748 220 22.0892 220.256 21.7112C220.297 21.6493 220.345 21.5943 220.386 21.5348C220.607 21.2233 220.827 20.9168 221.081 20.6376C221.172 20.5264 221.262 20.4151 221.354 20.312C221.628 19.9978 221.911 19.6937 222.209 19.4042C222.309 19.3087 222.413 19.2196 222.513 19.1241C222.741 18.9133 222.976 18.7045 223.212 18.5145C223.339 18.4123 223.463 18.3095 223.592 18.2105L223.688 18.1301C226.632 15.8914 230.292 14.7239 234.031 14.8307C237.77 14.9374 241.353 16.3117 244.156 18.7144L240.429 26.2167L246.675 21.4505C248.632 24.1399 249.651 27.3658 249.584 30.6569C249.517 33.9481 248.366 37.1321 246.3 39.744L246.318 39.7486C246.247 39.838 246.167 39.9197 246.097 40.0091C245.962 40.1735 245.825 40.3347 245.69 40.4966C245.509 40.7002 245.308 40.8936 245.131 41.0904C244.987 41.2365 244.845 41.3832 244.696 41.5172C244.477 41.73 244.25 41.9144 244.022 42.1063C243.888 42.2172 243.76 42.3351 243.623 42.4428C243.271 42.7269 242.892 42.988 242.511 43.2354C242.377 43.3223 242.238 43.3973 242.1 43.4805C241.832 43.6438 241.566 43.8046 241.289 43.9521C241.118 44.0432 240.939 44.1324 240.766 44.2121C240.515 44.3365 240.259 44.4546 240.003 44.5564C239.818 44.636 239.633 44.71 239.448 44.7815C239.181 44.8831 238.913 44.9741 238.643 45.0644C238.462 45.1233 238.28 45.1822 238.097 45.2355C237.797 45.3236 237.488 45.396 237.179 45.4658C237.024 45.4992 236.882 45.544 236.712 45.5709C236.251 45.6615 235.784 45.7345 235.314 45.7854C235.226 45.7954 235.135 45.7965 235.047 45.804C234.656 45.8398 234.263 45.875 233.874 45.8712C233.705 45.8742 233.535 45.8691 233.364 45.8664C233.047 45.862 232.73 45.8518 232.412 45.831C232.231 45.8178 232.045 45.8005 231.854 45.7793C231.545 45.7472 231.235 45.7044 230.926 45.6534C230.743 45.6236 230.563 45.5945 230.379 45.559C230.049 45.4921 229.719 45.4121 229.391 45.327C229.37 45.3203 229.348 45.3149 229.326 45.3107C227.856 48.8717 226.362 52.4266 224.843 55.9754C226.538 54.6466 228.495 53.6675 230.594 53.0983C232.692 52.529 234.889 52.3816 237.049 52.6649C239.208 52.9483 241.286 53.6566 243.153 54.7463C245.021 55.8359 246.639 57.2841 247.908 59.0019L242.066 64.6572L249.706 62.1303C251.329 65.9182 251.335 70.1756 249.723 73.9679C249.163 75.3008 248.411 76.55 247.489 77.6782C245.507 80.1244 242.811 81.9361 239.753 82.8783C236.696 83.8205 233.416 83.8496 230.341 82.9618C227.266 82.0741 224.537 80.3105 222.509 77.9C220.48 75.4894 219.245 72.5432 218.965 69.4436C218.806 69.8003 218.647 70.1677 218.489 70.5194C216.828 74.2156 214.762 78.8176 210.934 82.0204C208.338 84.1983 205.215 85.5043 202.228 86.5923C200.285 87.3014 198.318 87.9481 196.327 88.5326C194.089 89.7024 191.596 90.3384 189.054 90.388C185.926 91.0655 182.773 91.5967 179.596 91.9815L177.614 92.2127C175.832 92.419 174.007 92.6307 172.184 92.8858C172.437 92.9734 172.691 93.0585 172.941 93.1562C176.083 94.4083 178.734 96.5966 180.51 99.4052C182.286 102.214 183.096 105.497 182.822 108.781L170.316 111.833L181.366 114.102C180.301 116.341 178.696 118.298 176.687 119.808C173.389 122.288 169.223 123.422 165.076 122.969C160.93 122.515 157.129 120.509 154.484 117.379L154.766 118.497C154.955 119.236 155.14 119.971 155.316 120.699C157.734 130.615 156.067 138.235 150.622 142.16L147.957 138.691C153.257 134.871 152.122 126.4 150.976 121.691C150.802 120.977 150.617 120.261 150.447 119.532C148.863 113.285 147.065 106.204 150.215 99.9395C154.949 90.4899 167.223 89.0703 177.096 87.9319Z" fill="#F2F2F2"/>
<path d="M58.0066 153.327L56.545 152.839C56.4037 152.793 56.2729 152.739 56.1263 152.693C58.7453 151.633 60.9144 149.74 62.2773 147.326C63.6402 144.912 64.1158 142.12 63.6259 139.409C63.136 136.698 61.7098 134.229 59.5816 132.408C57.4534 130.587 54.7498 129.522 51.9151 129.389L53.1305 134.246L49.1194 129.56L49.0847 129.562C47.4675 129.844 45.9235 130.432 44.5408 131.293C43.1582 132.154 41.9639 133.27 41.0264 134.579C40.0888 135.888 39.4263 137.362 39.0767 138.919C38.7271 140.476 38.6973 142.085 38.9889 143.653C39.031 143.882 39.0913 144.101 39.1439 144.324C37.9274 143.513 36.8416 142.531 35.9221 141.411C34.1556 139.146 33.4582 136.288 32.7276 132.789C31.2932 125.856 29.9599 118.843 28.7312 111.836C31.5394 110.886 33.9061 108.995 35.4058 106.504C36.9055 104.013 37.44 101.085 36.9131 98.2464C36.8437 97.8806 36.7559 97.5259 36.6549 97.1743L36.5795 96.9178C36.4738 96.5794 36.3602 96.2465 36.2284 95.9247C36.2073 95.8711 36.181 95.8202 36.1574 95.7693C36.0411 95.4962 35.9143 95.2288 35.7798 94.9669C35.7274 94.8703 35.6775 94.7711 35.6251 94.6746C35.4683 94.3928 35.3037 94.1166 35.126 93.8486C35.0658 93.7576 35.0005 93.672 34.941 93.5965C34.8012 93.3998 34.6563 93.2058 34.5089 93.0197C34.4297 92.9216 34.353 92.8209 34.2712 92.7256L34.2117 92.6502C32.3416 90.4736 29.7449 89.0004 26.8719 88.4864C23.999 87.9723 21.0311 88.4497 18.4832 89.8357L20.0649 96.1581L16.0964 91.5276C14.1481 93.2708 12.8253 95.5722 12.3211 98.096C11.8168 100.62 12.1576 103.234 13.2935 105.556L13.2802 105.557C13.3184 105.636 13.3646 105.712 13.4055 105.791C13.4815 105.938 13.5574 106.083 13.6387 106.228C13.743 106.41 13.8526 106.59 13.9674 106.767C14.051 106.904 14.1345 107.038 14.2259 107.17C14.3573 107.359 14.5098 107.542 14.641 107.726C14.7259 107.832 14.803 107.943 14.8905 108.046C15.1165 108.317 15.3554 108.577 15.6046 108.829C15.6914 108.917 15.7859 108.996 15.8832 109.078C16.0591 109.244 16.2376 109.408 16.4242 109.575C16.5383 109.674 16.6601 109.765 16.7792 109.856C16.9511 109.993 17.1255 110.123 17.3022 110.248C17.4292 110.336 17.5588 110.421 17.6883 110.507C17.8756 110.627 18.0657 110.751 18.2548 110.85C18.3839 110.925 18.5129 110.998 18.6444 111.068C18.861 111.183 19.0823 111.286 19.3063 111.388C19.421 111.441 19.5305 111.496 19.6452 111.546C19.9833 111.688 20.3263 111.817 20.6765 111.93C20.7418 111.953 20.812 111.966 20.8771 111.986C21.1675 112.076 21.4629 112.157 21.763 112.225C21.8901 112.254 22.033 112.276 22.1518 112.3C22.3948 112.347 22.6377 112.392 22.8855 112.426L23.3187 112.476C23.5607 112.5 23.8051 112.515 24.0492 112.526C24.194 112.533 24.3361 112.538 24.4835 112.54C24.7513 112.542 25.0187 112.533 25.2858 112.52L25.3366 112.518C25.8581 115.477 26.3991 118.433 26.9595 121.385C25.8914 120.1 24.5635 119.039 23.0575 118.269C21.5514 117.499 19.899 117.035 18.2015 116.907C16.5041 116.779 14.7975 116.988 13.1866 117.522C11.5756 118.057 10.0942 118.905 8.83335 120.014L12.3107 125.231L6.90502 122.09C5.97348 123.394 5.31598 124.863 4.97005 126.414C4.62411 127.965 4.59653 129.566 4.88887 131.127C5.09254 132.235 5.45752 133.31 5.97286 134.318C7.07427 136.501 8.82665 138.312 11.0026 139.517C13.1786 140.721 15.6777 141.264 18.1757 141.075C20.6737 140.885 23.0553 139.972 25.0115 138.453C26.9677 136.935 28.4082 134.881 29.146 132.559C29.2071 132.855 29.2658 133.157 29.327 133.455C29.9701 136.545 30.7719 140.386 33.154 143.445C34.7703 145.519 36.9343 147.011 39.0313 148.317C40.3963 149.168 41.7888 149.977 43.209 150.742C44.7215 151.991 46.518 152.873 48.4508 153.316C50.7224 154.329 53.0432 155.242 55.4069 156.033L56.8795 156.526C58.2051 156.965 59.5634 157.415 60.9044 157.901C60.6967 157.927 60.4863 157.951 60.2764 157.989C57.6666 158.445 55.2738 159.694 53.4434 161.554C51.613 163.415 50.4397 165.792 50.0928 168.342L59.1153 172.646L50.2954 172.625C50.7706 174.624 51.7602 176.472 53.1717 177.999C54.5832 179.526 56.3706 180.681 58.367 181.356C60.3634 182.031 62.5037 182.205 64.5882 181.861C66.6726 181.517 68.6331 180.666 70.2868 179.389C70.151 179.654 70.018 179.919 69.8829 180.197C69.6141 180.727 69.3481 181.257 69.09 181.787C62.9964 180.967 64.8502 176.334 68.3463 180.197L71.4224 178.632C68.0194 174.877 71.088 184.382 72.7599 180.967C73.0052 180.451 72.749 182.198 73.0127 181.673C75.2769 177.167 77.8432 172.033 76.502 166.747C74.4932 158.796 65.3525 155.774 58.0066 153.327Z" fill="#F2F2F2"/>
<path d="M119.599 189C183.672 189 235.195 185.847 235.195 182.444C235.195 179.04 183.672 176.674 119.599 176.674C55.5263 176.674 3.58496 179.433 3.58496 182.837C3.58496 186.241 55.5263 189 119.599 189Z" fill="#3F3D56"/>
<path opacity="0.1" d="M119.24 189C185.094 189 238.48 186.241 238.48 182.837C238.48 179.433 185.094 176.674 119.24 176.674C53.3855 176.674 0 179.433 0 182.837C0 186.241 53.3855 189 119.24 189Z" fill="black"/>
<path d="M129.204 189C182.863 189 226.363 186.241 226.363 182.837C226.363 179.433 182.863 176.674 129.204 176.674C75.5452 176.674 32.0459 179.433 32.0459 182.837C32.0459 186.241 75.5452 189 129.204 189Z" fill="#3F3D56"/>
<path d="M26.3224 181.439C25.5199 180.01 26.4294 178.259 27.4672 176.982C28.5051 175.706 29.7704 174.388 29.7436 172.757C29.7062 170.422 27.1489 169.044 25.108 167.807C23.5936 166.888 22.1965 165.799 20.9458 164.562C20.423 164.085 19.9903 163.523 19.6672 162.902C19.2445 161.988 19.2579 160.951 19.2847 159.949C19.3738 156.619 19.5432 153.291 19.7929 149.967" stroke="#3F3D56" stroke-width="4" stroke-miterlimit="10"/>
<path d="M15.7068 148.301C15.7357 147.692 15.9224 147.1 16.2497 146.579C16.5769 146.058 17.0342 145.625 17.5793 145.321L18.4192 146.932L18.3951 144.981C18.7957 144.865 19.2135 144.816 19.631 144.836C20.3701 144.871 21.0819 145.117 21.6766 145.544C22.2713 145.971 22.7222 146.56 22.9724 147.235C23.2226 147.91 23.2608 148.643 23.0824 149.339C22.9039 150.035 22.5167 150.665 21.9696 151.148C21.4225 151.631 20.74 151.947 20.0084 152.054C19.2767 152.161 18.5287 152.056 17.8586 151.751C17.1886 151.447 16.6266 150.957 16.2437 150.343C15.8607 149.729 15.6739 149.018 15.7068 148.301V148.301Z" fill="#57B894"/>
<path d="M22.6148 174.427C22.9879 175.148 23.5973 175.727 24.3471 176.074C25.0969 176.421 25.9445 176.517 26.7565 176.346C27.5685 176.175 28.2988 175.747 28.8322 175.129C29.3657 174.511 29.6722 173.739 29.7034 172.933C29.7301 172.43 29.6471 171.927 29.46 171.457C29.1909 170.762 28.7085 170.163 28.0777 169.742C27.447 169.321 26.6983 169.097 25.9325 169.102C25.1667 169.106 24.4206 169.338 23.7949 169.766C23.1691 170.194 22.6938 170.798 22.4329 171.496L24.7788 173.346L22.2002 172.765C22.1988 173.343 22.341 173.914 22.6148 174.427V174.427Z" fill="#57B894"/>
<path d="M24.4682 167.358C25.4037 167.427 26.3316 167.153 27.0685 166.589C27.8054 166.026 28.2975 165.216 28.4474 164.317C28.5974 163.419 28.3943 162.499 27.8784 161.74C27.3624 160.98 26.5712 160.435 25.6612 160.214L25.68 161.716L24.8293 160.084C23.8343 160.039 22.8617 160.379 22.1252 161.03C21.3888 161.68 20.949 162.588 20.9025 163.553C20.8561 164.518 21.2068 165.461 21.8775 166.175C22.5482 166.889 23.4839 167.316 24.4789 167.361L24.4682 167.358Z" fill="#57B894"/>
<path d="M15.3549 161.477C15.8467 161.5 16.3383 161.428 16.8015 161.267C17.2647 161.105 17.6906 160.856 18.0547 160.535C18.4188 160.213 18.7141 159.826 18.9238 159.394C19.1334 158.962 19.2532 158.494 19.2764 158.017C19.2996 157.54 19.2257 157.063 19.0589 156.614C18.8921 156.165 18.6357 155.752 18.3044 155.399C17.973 155.046 17.5732 154.759 17.1277 154.556C16.6822 154.353 16.1998 154.237 15.708 154.214C15.006 154.18 14.3084 154.34 13.6965 154.676L14.3599 156.44L12.993 155.169C12.2619 155.818 11.8262 156.722 11.7812 157.682C11.7631 158.018 11.7956 158.354 11.8775 158.681C12.0642 159.451 12.5049 160.14 13.1325 160.645C13.7601 161.15 14.5404 161.442 15.3549 161.477V161.477Z" fill="#57B894"/>
<path opacity="0.1" d="M16.2124 149.271C17.0791 149.365 17.9217 149.627 18.791 149.679C19.6604 149.731 20.6153 149.528 21.1664 148.875C21.4633 148.519 21.6104 148.073 21.8592 147.689C22.0975 147.33 22.4225 147.034 22.8061 146.825C23.0326 147.284 23.1571 147.785 23.1714 148.293C23.1857 148.802 23.0896 149.308 22.8892 149.779C22.6889 150.249 22.3888 150.674 22.0084 151.024C21.628 151.375 21.1759 151.644 20.6813 151.815C20.1867 151.985 19.6607 152.053 19.1374 152.013C18.6141 151.974 18.1052 151.828 17.6437 151.586C17.1823 151.343 16.7785 151.009 16.4587 150.606C16.1388 150.202 15.91 149.738 15.7871 149.243C15.9289 149.248 16.0707 149.258 16.2124 149.271Z" fill="black"/>
<path opacity="0.1" d="M15.3551 161.477C16.0026 161.509 16.6475 161.377 17.2267 161.095C17.806 160.813 18.2997 160.389 18.6596 159.866C19.0196 159.344 19.2333 158.739 19.2801 158.112C19.3268 157.485 19.2048 156.857 18.9261 156.289C18.6281 156.484 18.372 156.733 18.1718 157.023C17.9043 157.415 17.7412 157.866 17.4282 158.227C16.8424 158.894 15.8446 159.111 14.9378 159.07C14.031 159.028 13.1563 158.782 12.2629 158.702C12.1372 158.702 12.0115 158.681 11.8857 158.678C12.0716 159.447 12.5108 160.136 13.1368 160.641C13.7629 161.147 14.5417 161.44 15.3551 161.477V161.477Z" fill="black"/>
<path opacity="0.1" d="M24.4684 167.358C25.1101 167.39 25.7494 167.261 26.325 166.984C26.9005 166.707 27.3929 166.292 27.7548 165.777C28.1167 165.262 28.336 164.665 28.3914 164.045C28.4469 163.424 28.3367 162.8 28.0715 162.232C27.7596 162.429 27.4876 162.679 27.269 162.971C26.9775 163.371 26.7956 163.83 26.4666 164.199C25.8353 164.883 24.7707 165.125 23.8104 165.101C22.8501 165.078 21.9861 164.86 21.0605 164.793C21.2865 165.509 21.7352 166.14 22.3453 166.599C22.9553 167.058 23.6969 167.323 24.4684 167.358V167.358Z" fill="black"/>
<path opacity="0.1" d="M22.6143 174.427C22.9873 175.147 23.5967 175.726 24.3465 176.074C25.0963 176.421 25.944 176.517 26.756 176.345C27.568 176.174 28.2982 175.746 28.8317 175.128C29.3652 174.51 29.6716 173.738 29.7028 172.933C29.7295 172.43 29.6466 171.927 29.4594 171.457C29.1501 171.653 28.8725 171.893 28.6355 172.168C28.2771 172.59 28.0444 173.068 27.6297 173.465C26.862 174.196 25.6235 174.502 24.5215 174.526C23.8843 174.528 23.2475 174.495 22.6143 174.427V174.427Z" fill="black"/>
<path d="M31.9907 179.794C31.9907 179.794 29.0269 179.706 28.1362 179.088C27.2454 178.471 23.5888 177.734 23.3561 178.725C23.1234 179.716 18.9023 183.654 22.2486 183.67C25.595 183.685 30.022 183.151 30.9127 182.632C31.8035 182.113 31.9907 179.794 31.9907 179.794Z" fill="#656380"/>
<path opacity="0.2" d="M22.1861 183.325C25.5324 183.351 29.9594 182.806 30.8529 182.287C31.5296 181.888 31.7998 180.448 31.8907 179.784H31.9897C31.9897 179.784 31.8025 182.1 30.9197 182.637C30.037 183.174 25.5993 183.696 22.2557 183.675C21.29 183.675 20.9556 183.335 20.9744 182.84C21.1001 183.133 21.4692 183.325 22.1861 183.325Z" fill="black"/>
<path opacity="0.2" d="M213.207 182.785C216.553 182.811 220.98 182.266 221.873 181.747C222.55 181.348 222.82 179.908 222.911 179.244H223.01C223.01 179.244 222.823 181.561 221.94 182.098C221.058 182.635 216.62 183.156 213.276 183.135C212.311 183.135 211.976 182.795 211.995 182.3C212.121 182.593 212.49 182.785 213.207 182.785Z" fill="black"/>
<path d="M168.67 88.2378C166.901 87.6498 165.118 87.105 163.32 86.6035C163.616 85.4293 163.892 84.2489 164.147 83.0626C168.197 63.9934 165.549 48.6312 156.505 43.5753C147.833 38.7244 133.65 43.7829 119.323 55.8687C117.911 57.0655 116.531 58.2933 115.185 59.5523C114.281 58.7136 113.363 57.8913 112.43 57.0854C97.4209 44.159 82.3851 38.714 73.3385 43.7855C64.6744 48.6494 62.1038 63.0907 65.7551 81.1637C66.1118 82.9536 66.521 84.7332 66.9829 86.5023C64.8563 87.0886 62.7993 87.7138 60.8306 88.3805C43.2322 94.3183 31.9922 103.657 31.9922 113.33C31.9922 123.32 44.0588 133.341 62.39 139.417C63.8773 139.906 65.3753 140.361 66.8839 140.781C66.3953 142.683 65.9602 144.601 65.5786 146.535C62.1012 164.294 64.8189 178.395 73.4589 183.228C82.3851 188.224 97.3647 183.088 111.948 170.725C113.101 169.747 114.257 168.709 115.426 167.625C116.885 168.989 118.382 170.314 119.917 171.599C134.046 183.389 148.004 188.152 156.633 183.303C165.549 178.299 168.445 163.15 164.685 144.722C164.399 143.314 164.067 141.878 163.687 140.413C164.741 140.112 165.771 139.8 166.779 139.476C185.835 133.354 198.236 123.455 198.236 113.33C198.236 103.621 186.632 94.2327 168.678 88.2378H168.67Z" fill="#53C1DE"/>
<path d="M164.538 132.939C163.629 133.233 162.698 133.513 161.745 133.788C159.422 126.802 156.609 119.978 153.327 113.364C156.484 106.839 159.188 100.115 161.419 93.2395C163.118 93.7168 164.771 94.22 166.36 94.7518C181.743 99.8855 191.127 107.478 191.127 113.331C191.127 119.557 180.992 127.653 164.538 132.939ZM157.712 146.06C159.375 154.208 159.611 161.576 158.514 167.332C157.524 172.507 155.534 175.957 153.073 177.34C147.833 180.279 136.631 176.458 124.548 166.375C123.162 165.218 121.769 163.986 120.367 162.678C125.404 157.27 130.06 151.537 134.301 145.521C141.876 144.898 149.399 143.772 156.816 142.148C157.154 143.477 157.455 144.774 157.717 146.04L157.712 146.06ZM88.6665 176.837C83.5466 178.59 79.4701 178.64 77.0065 177.262C71.7636 174.328 69.5835 162.995 72.558 147.819C72.9147 146.026 73.3186 144.242 73.7698 142.468C81.1555 144.005 88.6401 145.057 96.1723 145.614C100.537 151.61 105.305 157.321 110.443 162.709C109.41 163.679 108.355 164.623 107.276 165.539C100.827 171.008 94.3614 174.878 88.6665 176.837ZM64.6884 132.901C56.5807 130.213 49.8881 126.721 45.2979 122.913C41.1758 119.489 39.0947 116.088 39.0947 113.331C39.0947 107.46 48.1199 99.9711 63.1691 94.8841C65.0593 94.246 66.9666 93.664 68.8907 93.1383C71.1261 100.09 73.8327 106.891 76.9931 113.497C73.7934 120.197 71.0536 127.095 68.7917 134.146C67.4115 133.764 66.0437 133.348 64.6884 132.901ZM72.7266 79.841C69.6023 64.3569 71.6753 52.6757 76.8968 49.7495C82.4579 46.6366 94.7546 51.0777 107.717 62.2401C108.546 62.9535 109.378 63.7006 110.21 64.471C105.109 69.8268 100.379 75.5048 96.0519 81.4675C88.5908 82.1164 81.1809 83.2333 73.8688 84.8113C73.4426 83.1649 73.0618 81.509 72.7266 79.8436V79.841ZM144.444 97.0113C142.819 94.2892 141.135 91.6017 139.391 88.9488C144.695 89.6 149.775 90.4612 154.547 91.5196C153.016 96.2305 151.24 100.863 149.227 105.401C147.691 102.573 146.097 99.7766 144.444 97.0113ZM115.191 69.392C118.648 73.0471 121.913 76.8687 124.973 80.8423C118.427 80.5431 111.878 80.5431 105.326 80.8423C108.555 76.7125 111.863 72.8733 115.191 69.3946V69.392ZM85.7668 97.058C84.1351 99.8025 82.5703 102.582 81.0723 105.395C79.0046 100.64 77.2365 95.9633 75.792 91.447C80.5347 90.4093 85.593 89.5766 90.8626 88.9359C89.0935 91.6061 87.3932 94.3134 85.7615 97.058H85.7668ZM91.0124 138.213C85.8689 137.672 80.7575 136.874 75.6984 135.824C77.1669 131.23 78.9752 126.452 81.0884 121.593C82.5917 124.41 84.1619 127.191 85.7989 129.935C87.4645 132.735 89.2005 135.495 91.007 138.213H91.0124ZM115.392 157.755C112.021 154.242 108.664 150.351 105.39 146.146C108.573 146.269 111.815 146.33 115.116 146.33C118.504 146.33 121.849 146.257 125.15 146.112C122.103 150.152 118.844 154.038 115.386 157.755H115.392ZM149.28 121.346C151.398 125.976 153.266 130.708 154.876 135.526C149.754 136.643 144.576 137.5 139.362 138.091C141.118 135.388 142.819 132.653 144.465 129.886C146.138 127.074 147.743 124.228 149.28 121.346ZM138.313 126.446C135.795 130.687 133.137 134.846 130.339 138.924C125.407 139.266 120.311 139.443 115.116 139.443C109.921 139.443 104.911 139.287 100.064 138.981C97.195 134.917 94.4853 130.752 91.9352 126.485C89.3851 122.219 87.0214 117.889 84.844 113.494C87.0321 109.079 89.3887 104.747 91.9138 100.498C94.4354 96.2504 97.1219 92.0998 99.9734 88.0461C104.919 87.6829 109.986 87.4936 115.111 87.4936C120.236 87.4936 125.334 87.6855 130.275 88.0487C133.094 92.0903 135.769 96.2244 138.3 100.451C140.83 104.678 143.219 108.99 145.466 113.388C143.246 117.818 140.864 122.168 138.321 126.436L138.313 126.446ZM152.964 49.542C158.53 52.6549 160.694 65.2103 157.198 81.675C156.968 82.7455 156.718 83.8134 156.449 84.8787C149.126 83.2688 141.701 82.1309 134.223 81.4727C129.938 75.5046 125.243 69.8228 120.172 64.4658C121.42 63.3002 122.694 62.1666 123.994 61.065C136.267 50.7068 147.737 46.6185 152.964 49.542Z" fill="white"/>
<path d="M115.11 98.9337C118.047 98.9337 120.917 99.7781 123.358 101.36C125.8 102.942 127.703 105.191 128.826 107.821C129.95 110.452 130.244 113.347 129.671 116.14C129.098 118.932 127.684 121.498 125.608 123.511C123.532 125.525 120.887 126.896 118.007 127.451C115.127 128.007 112.142 127.722 109.429 126.632C106.717 125.543 104.398 123.697 102.767 121.33C101.135 118.962 100.265 116.178 100.265 113.331C100.264 111.44 100.648 109.568 101.394 107.821C102.14 106.074 103.233 104.487 104.612 103.15C105.991 101.813 107.627 100.752 109.429 100.029C111.23 99.3055 113.161 98.9334 115.11 98.9337" fill="#53C1DE"/>
<path d="M90.0502 78.9116C90.0502 78.9116 89.5394 82.2893 86.5301 82.7511C83.5208 83.2128 85.1926 85.6046 85.1926 85.6046L88.8038 87.4204H90.6762C90.6762 87.4204 92.4309 83.2178 94.0172 82.1413C95.6034 81.0647 90.0502 78.9116 90.0502 78.9116Z" fill="#FFB8B8"/>
<path d="M90.0502 78.912C90.0502 78.912 89.5394 82.2897 86.5301 82.7514C83.5208 83.2132 85.1926 85.6049 85.1926 85.6049L88.8038 87.4208H90.6762C90.6762 87.4208 92.4309 83.2182 94.0172 82.1416C95.6034 81.0651 90.0502 78.912 90.0502 78.912Z" fill="#FFB8B8"/>
<path d="M140.539 78.912C140.539 78.912 141.049 82.2897 144.059 82.7514C147.068 83.2132 145.396 85.6049 145.396 85.6049L141.785 87.4208H139.913C139.913 87.4208 138.158 83.2182 136.572 82.1416C134.985 81.0651 140.539 78.912 140.539 78.912Z" fill="#FFB8B8"/>
<path d="M107.796 48.2501C107.796 48.2501 104.551 49.6457 103.917 51.4927C103.917 51.4927 100.846 52.922 98.9311 55.8429C98.9311 55.8429 96.5504 58.3047 96.2347 59.5343C95.9191 60.7639 92.2812 68.1467 92.2812 68.1467C92.2812 68.1467 90.1413 78.0822 89.0713 79.898C89.0713 79.898 90.0075 81.9733 94.6886 83.4C94.6886 83.4 94.6886 84.0486 96.8794 80.1444C98.4656 74.7616 102.272 68.1467 102.272 68.1467C102.272 68.1467 103.54 63.5344 104.65 62.764C105.76 61.9935 107.504 58.4578 109.09 59.3917C110.677 60.3255 121.144 59.236 121.144 59.236C121.144 59.236 127.323 61.9961 127.478 63.8405C127.633 65.6849 128.746 65.8406 128.904 67.3789C129.061 68.9172 134.93 81.0653 134.93 81.0653C134.93 81.0653 136.15 83.2703 136.284 83.2703C136.284 83.2703 140.029 81.7139 142.436 79.5089C142.436 79.5089 142.436 79.5089 142.169 78.7307C141.415 76.538 135.249 60.45 135.249 60.45C135.249 60.45 134.615 58.297 133.981 57.6822C133.347 57.0674 128.799 51.8454 127.055 51.8454C127.055 51.8454 124.688 48.5588 123.578 48.2501H107.796Z" fill="#2F2E41"/>
<path d="M109.706 53.957C109.706 53.957 109.072 62.1103 113.036 63.4929C117.001 64.8756 113.513 56.7249 113.513 56.7249L112.242 54.2657L109.706 53.957Z" fill="#FFB8B8"/>
<path d="M121.582 55.254C121.582 55.254 122.216 63.4073 118.252 64.7899C114.288 66.1726 117.776 58.0219 117.776 58.0219L119.046 55.5627L121.582 55.254Z" fill="#FFB8B8"/>
<path d="M190.381 176.907C191.649 174.629 190.209 171.838 188.556 169.807C186.903 167.776 184.884 165.656 184.926 163.062C184.988 159.34 189.059 157.145 192.315 155.171C194.728 153.707 196.954 151.972 198.946 150.001C199.748 149.21 200.516 148.364 200.984 147.352C201.658 145.9 201.639 144.239 201.597 142.652C201.456 137.341 201.188 132.037 200.794 126.74" stroke="#3F3D56" stroke-width="4" stroke-miterlimit="10"/>
<path d="M206.968 126.459C206.922 125.488 206.624 124.543 206.103 123.712C205.581 122.882 204.852 122.192 203.982 121.707L202.645 124.275L202.685 121.162C201.468 120.813 200.169 120.848 198.974 121.262C197.779 121.676 196.751 122.448 196.038 123.465C195.325 124.483 194.964 125.694 195.007 126.924C195.051 128.154 195.496 129.338 196.278 130.307C197.061 131.275 198.141 131.977 199.362 132.311C200.583 132.646 201.882 132.595 203.072 132.166C204.261 131.738 205.279 130.954 205.979 129.927C206.679 128.901 207.024 127.686 206.965 126.457L206.968 126.459Z" fill="#57B894"/>
<path d="M196.3 165.731C195.673 166.915 194.644 167.853 193.388 168.389C192.132 168.924 190.724 169.025 189.4 168.673C188.077 168.321 186.918 167.539 186.119 166.457C185.32 165.375 184.929 164.06 185.011 162.731C185.093 161.403 185.644 160.142 186.571 159.161C187.497 158.18 188.744 157.537 190.102 157.341C191.459 157.146 192.844 157.409 194.026 158.086C195.207 158.763 196.112 159.814 196.589 161.062L192.844 164.011L196.956 163.085C196.958 164.005 196.733 164.913 196.3 165.731V165.731Z" fill="#57B894"/>
<path d="M193.345 154.465C191.881 154.525 190.445 154.062 189.31 153.165C188.174 152.267 187.418 150.996 187.184 149.593C186.95 148.191 187.255 146.754 188.041 145.554C188.827 144.355 190.039 143.478 191.448 143.087L191.416 145.479L192.769 142.885H192.786C193.574 142.844 194.363 142.954 195.107 143.21C195.851 143.466 196.535 143.862 197.121 144.375C197.707 144.888 198.182 145.509 198.519 146.201C198.856 146.894 199.048 147.644 199.085 148.408C199.122 149.173 199.003 149.937 198.734 150.657C198.465 151.377 198.051 152.038 197.518 152.602C196.984 153.166 196.341 153.623 195.624 153.944C194.908 154.266 194.133 154.448 193.345 154.478V154.465Z" fill="#57B894"/>
<path d="M207.868 145.093C206.943 145.135 206.02 144.968 205.172 144.605C204.325 144.242 203.576 143.694 202.984 143.003C202.392 142.311 201.974 141.496 201.763 140.621C201.551 139.747 201.552 138.836 201.765 137.962C201.978 137.088 202.397 136.273 202.99 135.583C203.583 134.892 204.333 134.345 205.181 133.984C206.029 133.622 206.953 133.457 207.878 133.5C208.803 133.544 209.706 133.795 210.514 134.234L209.444 137.043L211.618 135.02C212.489 135.795 213.104 136.802 213.385 137.915C213.666 139.027 213.602 140.196 213.199 141.273C212.797 142.35 212.074 143.288 211.123 143.968C210.172 144.648 209.035 145.039 207.855 145.093H207.868Z" fill="#57B894"/>
<path opacity="0.1" d="M206.166 128.005C204.783 128.153 203.44 128.571 202.055 128.654C200.669 128.737 199.147 128.415 198.272 127.357C197.799 126.794 197.564 126.083 197.165 125.468C196.787 124.897 196.269 124.425 195.659 124.093C195.273 124.829 195.054 125.636 195.015 126.46C194.976 127.285 195.119 128.108 195.435 128.875C195.75 129.641 196.23 130.334 196.844 130.906C197.457 131.478 198.189 131.917 198.991 132.193C199.793 132.469 200.647 132.576 201.495 132.507C202.343 132.438 203.166 132.194 203.909 131.791C204.652 131.389 205.298 130.838 205.804 130.174C206.31 129.511 206.664 128.75 206.843 127.943C206.616 127.966 206.391 127.982 206.166 128.005Z" fill="black"/>
<path opacity="0.1" d="M207.868 145.093C206.837 145.139 205.811 144.925 204.89 144.473C203.969 144.021 203.184 143.346 202.611 142.513C202.038 141.68 201.697 140.718 201.621 139.719C201.545 138.721 201.736 137.721 202.176 136.815C202.652 137.125 203.061 137.522 203.38 137.985C203.805 138.607 204.064 139.329 204.565 139.902C205.495 140.963 207.09 141.31 208.534 141.248C209.979 141.186 211.37 140.786 212.814 140.657C213.015 140.641 213.215 140.628 213.418 140.623C213.121 141.852 212.418 142.954 211.416 143.76C210.414 144.567 209.169 145.035 207.868 145.093Z" fill="black"/>
<path opacity="0.1" d="M193.343 154.465C192.322 154.512 191.306 154.304 190.392 153.861C189.477 153.418 188.695 152.756 188.119 151.937C187.544 151.118 187.194 150.169 187.104 149.182C187.013 148.195 187.185 147.201 187.603 146.297C188.096 146.611 188.525 147.011 188.868 147.477C189.334 148.112 189.622 148.844 190.168 149.433C191.177 150.522 192.872 150.906 194.403 150.87C195.884 150.839 197.31 150.486 198.784 150.377C198.422 151.519 197.705 152.525 196.731 153.256C195.757 153.988 194.574 154.41 193.343 154.465V154.465Z" fill="black"/>
<path opacity="0.1" d="M196.299 165.731C195.606 167.065 194.409 168.087 192.958 168.587C191.507 169.086 189.913 169.024 188.508 168.413C187.103 167.802 185.995 166.689 185.414 165.306C184.834 163.923 184.825 162.376 185.391 160.987C185.884 161.3 186.327 161.683 186.704 162.123C187.274 162.795 187.649 163.557 188.309 164.182C189.532 165.347 191.506 165.827 193.263 165.871C194.277 165.882 195.291 165.835 196.299 165.731V165.731Z" fill="black"/>
<path d="M109.927 18.7544C110.398 14.1201 110.941 16.5237 117.096 17.3339C124.463 18.3038 124.245 16.1639 124.513 18.8936C124.231 20.0673 124.044 22.4922 117.337 21.1612C111.633 22.5996 110.365 19.1731 109.927 18.7544Z" fill="#2F2E41"/>
<path d="M181.357 174.284C181.357 174.284 186.079 174.144 187.51 173.161C188.941 172.178 194.775 171.005 195.128 172.58C195.481 174.154 202.225 180.419 196.893 180.461C191.562 180.502 184.506 179.656 183.085 178.816C181.665 177.975 181.357 174.284 181.357 174.284Z" fill="#656380"/>
<path opacity="0.2" d="M196.979 179.923C191.648 179.965 184.591 179.116 183.171 178.279C182.101 177.638 181.66 175.347 181.515 174.289H181.357C181.357 174.289 181.657 177.983 183.077 178.821C184.498 179.659 191.554 180.507 196.885 180.465C198.423 180.465 198.956 179.923 198.926 179.137C198.712 179.607 198.127 179.902 196.979 179.923Z" fill="black"/>
<path d="M55.6353 13.4528L50.7536 16.4542L53.7174 11.2271C52.8811 10.5786 51.8457 10.2189 50.775 10.205H50.6947C50.3561 10.2096 50.0178 10.1853 49.6836 10.1324L48.0278 11.1493L48.7367 9.89891C47.565 9.50185 46.5522 8.7566 45.8424 7.76916L42.8813 9.58502L44.7537 6.28534C43.0204 4.26973 40.6878 3.03235 38.1172 3.03235C35.0384 3.03235 32.2966 4.8093 30.5258 7.5772C30.0021 8.40479 29.2621 9.08346 28.3809 9.54447C27.4996 10.0055 26.5084 10.2325 25.5076 10.2024H25.3418C21.942 10.2024 19.1895 13.9405 19.1895 18.5528C19.1895 23.1651 21.9446 26.9006 25.3418 26.9006C26.0879 26.8985 26.8223 26.7204 27.4817 26.3818C29.6992 25.2637 32.6096 25.243 34.9314 26.2417C35.9268 26.6759 37.0056 26.9015 38.0971 26.9037C39.1886 26.9059 40.2683 26.6848 41.2656 26.2546C43.5714 25.2767 46.4469 25.2974 48.6511 26.3947C49.305 26.7303 50.0325 26.9082 50.7723 26.9135C54.1721 26.9135 56.9246 23.1755 56.9246 18.5658C56.945 16.7834 56.5015 15.0249 55.6353 13.4528V13.4528Z" fill="#F2F2F2"/>
<path opacity="0.03" d="M46.4316 25.6684C44.6554 25.3409 42.819 25.5341 41.1566 26.2235C40.1597 26.6533 39.0804 26.8743 37.9894 26.872C36.8984 26.8698 35.8202 26.6444 34.8251 26.2106C32.5006 25.2118 29.5902 25.2326 27.3727 26.3507C26.7133 26.6893 25.9789 26.8674 25.2328 26.8695C22.2128 26.8695 19.701 23.9174 19.1768 20.0263C19.7801 19.6001 20.2924 19.0644 20.6854 18.4491C22.4669 15.6838 25.198 13.9016 28.2769 13.9016C31.3557 13.9016 34.0654 15.6578 35.8362 18.3946C36.3646 19.2215 37.1042 19.9021 37.9833 20.3706C38.8624 20.8392 39.8513 21.0797 40.8544 21.0691H40.9239C43.3313 21.0717 45.4178 22.942 46.4316 25.6684Z" fill="black"/>
<path d="M183.25 19.5647L180.823 21.0615L182.303 18.4674C181.885 18.1398 181.366 17.9572 180.829 17.9486H180.791C180.622 17.9509 180.453 17.9387 180.286 17.9123L179.459 18.4311L179.807 17.7929C179.222 17.5954 178.717 17.2242 178.362 16.732L176.886 17.6399L177.819 15.9952C177.427 15.5036 176.926 15.1028 176.354 14.8219C175.781 14.5411 175.152 14.3872 174.511 14.3713C172.973 14.3713 171.606 15.2585 170.723 16.6386C170.461 17.0496 170.091 17.3861 169.651 17.6139C169.211 17.8417 168.717 17.9527 168.219 17.9356H168.136C166.44 17.9356 165.065 19.8008 165.065 22.0862C165.065 24.3716 166.44 26.2497 168.136 26.2497C168.509 26.2484 168.876 26.1594 169.206 25.9903C169.783 25.7183 170.414 25.5712 171.056 25.5591C171.698 25.547 172.334 25.6702 172.922 25.9202C173.419 26.1349 173.957 26.2458 174.501 26.2458C175.045 26.2458 175.584 26.1349 176.081 25.9202C176.664 25.6752 177.295 25.5547 177.93 25.5668C178.566 25.5789 179.191 25.7233 179.764 25.9903C180.094 26.1595 180.461 26.2485 180.834 26.2497C182.53 26.2497 183.905 24.3871 183.905 22.0862C183.907 21.2057 183.682 20.3388 183.25 19.5647V19.5647Z" fill="#F2F2F2"/>
<path opacity="0.03" d="M178.661 25.6579C177.775 25.4957 176.86 25.5923 176.031 25.9354C175.534 26.1501 174.996 26.261 174.452 26.261C173.908 26.261 173.369 26.1501 172.872 25.9354C172.284 25.6854 171.647 25.5622 171.005 25.5743C170.363 25.5864 169.732 25.7335 169.154 26.0055C168.825 26.1753 168.457 26.2644 168.084 26.2649C166.576 26.2649 165.324 24.794 165.062 22.8537C165.362 22.6429 165.618 22.3788 165.816 22.0754C166.699 20.6954 168.068 19.8108 169.604 19.8108C171.139 19.8108 172.49 20.685 173.373 22.0495C173.636 22.4622 174.005 22.8019 174.444 23.0356C174.882 23.2692 175.376 23.3888 175.876 23.3829H175.916C177.117 23.3647 178.147 24.2986 178.661 25.6579Z" fill="black"/>
<path d="M23.8949 58.3307L27.8163 60.738L25.441 56.5486C26.1146 56.0286 26.9475 55.7411 27.8083 55.7314H27.8698C28.1386 55.7353 28.4071 55.7162 28.6723 55.6744L29.9964 56.4889L29.4213 55.4876C30.3593 55.1677 31.1704 54.5708 31.7405 53.7807L34.1131 55.2386L32.6312 52.5952C34.0195 50.9817 35.8893 50.0011 37.9463 50.0011C40.4152 50.0011 42.6114 51.4227 44.0317 53.6328C44.4502 54.2951 45.0417 54.8385 45.7463 55.2079C46.4508 55.5773 47.2435 55.7597 48.0441 55.7366H48.1779C50.901 55.7366 53.1078 58.7302 53.1078 62.4242C53.1078 66.1182 50.901 69.1144 48.1779 69.1144C47.5782 69.1121 46.988 68.9688 46.4579 68.6967C45.5309 68.2599 44.5171 68.0237 43.4867 68.0045C42.4562 67.9852 41.4338 68.1833 40.4901 68.5852C39.6906 68.9317 38.8247 69.1109 37.949 69.1109C37.0732 69.1109 36.2073 68.9317 35.4078 68.5852C34.4709 68.1916 33.4577 67.9978 32.4368 68.0171C31.416 68.0363 30.4113 68.2681 29.4909 68.6967C28.9661 68.9616 28.3838 69.1012 27.7923 69.104C25.0665 69.104 22.8597 66.1104 22.8597 62.4138C22.8469 60.9902 23.2028 59.5863 23.8949 58.3307V58.3307Z" fill="#F2F2F2"/>
<path opacity="0.03" d="M31.2656 68.1182C32.6889 67.8581 34.1598 68.0134 35.492 68.5644C36.2915 68.9109 37.1574 69.0901 38.0332 69.0901C38.9089 69.0901 39.7748 68.9109 40.5744 68.5644C41.5185 68.1625 42.5414 67.9643 43.5722 67.9836C44.6031 68.0029 45.6173 68.2391 46.5448 68.6759C47.0739 68.948 47.6632 69.0913 48.2621 69.0936C50.6829 69.0936 52.6945 66.7303 53.1144 63.6122C52.6314 63.2694 52.2209 62.8396 51.9053 62.3463C50.485 60.131 48.2888 58.7146 45.8199 58.7146C43.3509 58.7146 41.1842 60.1206 39.7639 62.3152C39.3412 62.9764 38.7499 63.5207 38.0471 63.8955C37.3442 64.2704 36.5536 64.4632 35.7515 64.4553H35.6899C33.748 64.4372 32.0788 65.9365 31.2656 68.1182Z" fill="black"/>
<path d="M121.706 25.1629C123.036 25.1629 124.114 24.0596 124.114 22.6985C124.114 21.3375 123.036 20.2341 121.706 20.2341C120.377 20.2341 119.299 21.3375 119.299 22.6985C119.299 24.0596 120.377 25.1629 121.706 25.1629Z" fill="#FF9362"/>
<path d="M122.414 20.3562C122.808 20.3563 123.196 20.4711 123.538 20.6895C123.881 20.9079 124.167 21.2224 124.369 21.6021C124.571 21.9819 124.682 22.4141 124.69 22.8563C124.699 23.2985 124.605 23.7357 124.418 24.125C124.616 23.8478 124.76 23.5274 124.841 23.1844C124.922 22.8413 124.938 22.4831 124.889 22.1325C124.84 21.7819 124.726 21.4466 124.555 21.1481C124.384 20.8495 124.16 20.5942 123.896 20.3984C123.632 20.2027 123.335 20.0707 123.024 20.0109C122.712 19.9512 122.393 19.965 122.086 20.0514C121.779 20.1379 121.492 20.2951 121.243 20.5131C120.993 20.731 120.787 21.0049 120.637 21.3173C120.85 21.0174 121.12 20.7752 121.428 20.6088C121.735 20.4424 122.073 20.3561 122.414 20.3562V20.3562Z" fill="#FF9362"/>
<path d="M111.829 7.98685C115.916 9.59501 115.325 8.17991 113.99 15.3245C112.678 22.3389 113.578 17.6752 112.948 20.119C111.956 19.563 106.593 19.8449 108.599 13.8785C107.261 9.46933 111.336 8.28135 111.829 7.98685Z" fill="#2F2E41"/>
<path d="M122.784 8.25237C118.698 9.86052 119.289 8.44543 120.624 15.59C121.936 22.6044 121.036 17.9407 121.666 20.3845C122.658 19.8285 127.592 20.2299 125.987 14.1337C127.325 9.72456 123.278 8.54686 122.784 8.25237Z" fill="#2F2E41"/>
<path d="M117.293 22.8282C121.06 22.8282 124.114 19.5762 124.114 15.5647C124.114 11.5532 121.06 8.30127 117.293 8.30127C113.526 8.30127 110.472 11.5532 110.472 15.5647C110.472 19.5762 113.526 22.8282 117.293 22.8282Z" fill="#F28B5C"/>
<path d="M112.001 11.0351C113.174 9.64275 114.815 8.78588 116.575 8.64532C118.336 8.50476 120.08 9.09151 121.439 10.2817C121.383 10.2259 121.328 10.1696 121.27 10.1153C119.92 8.84975 118.149 8.20171 116.346 8.31371C114.544 8.42571 112.857 9.28858 111.657 10.7125C110.457 12.1365 109.842 14.005 109.948 15.907C110.054 17.809 110.871 19.5889 112.221 20.8551C112.279 20.9094 112.338 20.9605 112.397 21.0123C111.118 19.7282 110.361 17.9698 110.287 16.1083C110.213 14.2467 110.828 12.4277 112.001 11.0351V11.0351Z" fill="#FF9362"/>
<path opacity="0.1" d="M107.129 26.4761L105.354 28.4955C105.354 28.4955 106.381 35.5282 106.473 36.7528C106.566 37.6383 106.741 38.6133 107.008 39.4766C107.008 39.4766 107.107 43.0396 107.008 44.4054C106.909 45.7711 107.811 48.4262 107.811 48.4262C107.845 49.724 107.953 50.5365 108.346 51.7985C108.95 53.5155 109.683 55.9501 109.683 55.9501C109.683 55.9501 110.485 54.2639 113.499 57.0682C113.929 56.7523 114.195 56.4375 114.23 55.9551C114.265 55.4727 114.066 54.8614 113.686 54.4902C113.686 54.4902 112.739 50.2921 112.893 48.1668C113.179 46.0915 111.561 35.758 111.561 35.758C111.561 35.758 111.685 23.8824 107.129 26.4761Z" fill="#6D688A"/>
<path d="M117.294 22.828C119.731 22.828 121.707 20.6794 121.707 18.0289C121.707 15.3785 119.731 13.2299 117.294 13.2299C114.856 13.2299 112.88 15.3785 112.88 18.0289C112.88 20.6794 114.856 22.828 117.294 22.828Z" fill="#FFB8B8"/>
<path d="M114.133 19.7151C114.133 19.7151 114.724 25.208 113.778 25.805C112.832 26.4021 119.218 27.2379 119.218 27.2379C119.218 27.2379 118.272 21.2674 120.637 19.7151H114.133Z" fill="#FFB8B8"/>
<path d="M119.723 24.5822C119.723 24.5822 121.453 23.726 118.962 24.0309C116.471 24.3359 114.321 23.1661 114.321 23.1661C114.321 23.1661 113.567 22.3656 113.45 23.2276C113.334 24.0897 113.799 25.6905 111.243 25.9368C108.688 26.1831 107.923 25.5204 106.994 27.3675C106.065 29.2147 106.994 36.7063 106.994 36.7063C106.994 36.7063 107.114 43.7929 108.508 44.778C109.902 45.7632 121.698 44.4086 121.698 44.4086L125.183 37.7588V30.0006C125.183 30.0006 124.825 27.0178 121.572 27.7567C121.572 27.7567 119.375 27.5377 119.491 26.4294C119.607 25.3211 119.723 24.5822 119.723 24.5822Z" fill="#C7C2E4"/>
<path d="M110.07 32.037L115.688 32.5558L121.439 32.2964V49.9362H110.204L110.07 32.037Z" fill="#2F2E41"/>
<path d="M106.871 26.6049L105.354 28.5224C105.354 28.5224 106.3 35.4663 106.429 36.6991C106.545 37.5893 106.738 38.4685 107.006 39.3274C107.006 39.3274 107.077 43.0214 107.044 44.4036C107.012 45.7859 107.759 48.1119 107.759 48.1119C107.84 49.4216 108.078 50.7176 108.471 51.9732C109.065 53.6807 109.654 55.6918 109.654 55.6918C109.654 55.6918 110.507 53.5571 113.592 56.8561C113.953 56.5157 114.162 56.0511 114.174 55.5626C114.185 55.0741 113.998 54.6007 113.653 54.2446C113.653 54.2446 112.799 50.074 112.85 47.9188C112.901 45.7637 111.401 35.4317 111.401 35.4317C111.401 35.4317 110.745 23.7667 106.871 26.6049Z" fill="#C1BAE8"/>
<path d="M109.803 26.0103C109.803 26.0103 111.188 28.4361 110.739 31.5182C110.29 34.6003 112.478 42.2837 112.478 42.2837L113.681 41.9138C113.681 41.9138 112.521 35.462 112.745 33.9826C112.97 32.5032 112.931 26.75 111.809 26.0103C110.687 25.2706 109.803 26.0103 109.803 26.0103Z" fill="#2F2E41"/>
<path d="M113.683 12.1923V16.8616H114.681L115.952 15.3871L115.782 16.8616H120.196L119.924 15.3871L120.469 16.8616H121.172V12.1923H113.683Z" fill="#F28B5C"/>
<path d="M88.806 81.4539C88.806 81.4539 88.1372 82.2321 87.7359 82.3621C84.7266 82.8239 83.4561 87.6797 83.4561 87.6797L87.0673 89.4955L91.8202 85.0076C91.8202 85.0076 91.6173 85.436 92.2833 84.3074C91.0796 83.6588 88.806 81.4539 88.806 81.4539Z" fill="#B9B4DA"/>
<path d="M141.634 81.249C141.634 81.249 142.29 82.0375 142.689 82.1738C145.69 82.6821 146.881 87.5569 146.881 87.5569L143.24 89.3166L138.562 84.7556C138.562 84.7556 138.758 85.1871 138.11 84.0483C139.325 83.4185 141.634 81.249 141.634 81.249Z" fill="#B9B4DA"/>
<path d="M112.745 17.6398C112.967 17.6398 113.146 17.3495 113.146 16.9913C113.146 16.6331 112.967 16.3428 112.745 16.3428C112.523 16.3428 112.344 16.6331 112.344 16.9913C112.344 17.3495 112.523 17.6398 112.745 17.6398Z" fill="#FFB8B8"/>
<path d="M124.965 28.704L125.767 29.6197C125.767 29.6197 126.701 34.8572 124.638 41.4695L124.004 47.467C124.004 47.467 122.894 52.5437 122.736 53.7733C122.579 55.0029 122.576 55.1585 122.26 55.6203C122.163 55.728 122.11 55.8663 122.11 56.0094C122.11 56.1525 122.163 56.2907 122.26 56.3985L121.313 59.7812C121.313 59.7812 119.888 58.0872 117.033 60.2403C117.033 60.2403 116.231 59.0107 116.876 57.9342C117.52 56.8576 117.51 56.3959 117.352 56.0898C117.194 55.7837 117.986 54.2428 117.986 53.9367C117.986 53.6306 119.096 46.5539 119.096 46.5539C119.096 46.5539 119.572 39.6329 120.048 37.3241C120.524 35.0154 120.206 28.097 120.206 28.097C120.206 28.097 122.744 26.4056 124.965 28.704Z" fill="#C1BAE8"/>
<path opacity="0.1" d="M124.917 28.7245L125.72 29.6324C125.72 29.6324 126.707 34.8428 124.645 41.4577L124.011 47.4552C124.011 47.4552 122.901 52.5318 122.743 53.7614C122.585 54.991 122.585 55.1441 122.267 55.6058C122.17 55.7139 122.117 55.852 122.117 55.995C122.117 56.1379 122.17 56.2761 122.267 56.3841L121.314 59.7564C121.314 59.7564 119.889 58.065 117.034 60.2181C117.034 60.2181 116.232 58.9885 116.874 57.912C117.516 56.8354 117.508 56.3737 117.35 56.065C117.192 55.7563 117.984 54.2206 117.984 53.9119C117.984 53.6032 119.102 46.5343 119.102 46.5343C119.102 46.5343 119.578 39.6133 120.054 37.3072C120.346 35.8882 120.287 32.5765 120.236 30.3508C120.185 28.0316 122.678 26.577 124.382 28.2061C124.382 28.2061 124.872 28.6674 124.917 28.7245Z" fill="#C1BAE8"/>
<path d="M121.706 17.6398C121.854 17.6398 121.973 17.3495 121.973 16.9913C121.973 16.6331 121.854 16.3428 121.706 16.3428C121.558 16.3428 121.438 16.6331 121.438 16.9913C121.438 17.3495 121.558 17.6398 121.706 17.6398Z" fill="#FFB8B8"/>
<path d="M120.369 28.2012L118.362 41.6351L119.432 42.0242C119.432 42.0242 122.978 27.4973 122.318 27.4973H120.974C120.892 27.4973 120.811 27.5158 120.735 27.5516C120.66 27.5874 120.592 27.6399 120.535 27.7057C120.478 27.7716 120.435 27.8494 120.406 27.9346C120.378 28.0198 120.365 28.1105 120.369 28.2012Z" fill="#2F2E41"/>
<path d="M120.637 19.7161C120.637 19.7158 120.638 19.7147 120.637 19.7152C120.637 19.7153 120.637 19.7158 120.637 19.7156" stroke="#CE7952" stroke-width="0.2" stroke-linecap="round" stroke-linejoin="round"/>
<path d="M115.019 19.1973C115.019 19.197 115.02 19.1959 115.019 19.1964C115.019 19.1965 115.018 19.197 115.019 19.1968" stroke="#CE7952" stroke-width="0.2" stroke-linecap="round" stroke-linejoin="round"/>
<path d="M114.217 19.7161C114.217 19.7158 114.218 19.7147 114.217 19.7152C114.217 19.7153 114.217 19.7158 114.217 19.7156" stroke="#CE7952" stroke-width="0.2" stroke-linecap="round" stroke-linejoin="round"/>
<path d="M119.033 19.7161C119.033 19.7158 119.034 19.7147 119.033 19.7152C119.033 19.7153 119.032 19.7158 119.032 19.7156" stroke="#CE7952" stroke-width="0.2" stroke-linecap="round" stroke-linejoin="round"/>
<path d="M119.835 19.1973C119.836 19.197 119.837 19.1959 119.836 19.1964C119.835 19.1965 119.835 19.197 119.835 19.1968" stroke="#CE7952" stroke-width="0.2" stroke-linecap="round" stroke-linejoin="round"/>
<path d="M115.823 19.7161C115.823 19.7158 115.824 19.7147 115.823 19.7152C115.823 19.7153 115.822 19.7158 115.822 19.7156" stroke="#CE7952" stroke-width="0.2" stroke-linecap="round" stroke-linejoin="round"/>
<path d="M117.428 19.1973C117.428 19.197 117.429 19.1959 117.428 19.1964C117.428 19.1965 117.428 19.197 117.428 19.1968" stroke="#CE7952" stroke-width="0.2" stroke-linecap="round" stroke-linejoin="round"/>
<path d="M138.217 84.5128C138.792 84.8234 139.424 85.0463 140.097 85.1749C141.184 85.3759 142.064 84.0179 142.064 84.0179C142.064 84.0179 142.619 81.9312 143.286 82.0677C143.953 82.2041 147.386 82.7997 147.386 82.7997C147.386 82.7997 155.868 81.6936 151.971 86.1514C146.333 88.4584 140.582 90.404 140.582 90.404C140.582 90.404 140.5 90.7687 139.508 89.9035C138.516 89.0384 138.217 84.5128 138.217 84.5128Z" fill="#2F2E41"/>
<path d="M138.217 84.5128C138.792 84.8234 139.424 85.0463 140.097 85.1749C141.184 85.3759 142.064 84.0179 142.064 84.0179C142.064 84.0179 142.619 81.9312 143.286 82.0677C143.953 82.2041 147.386 82.7997 147.386 82.7997C147.386 82.7997 155.868 81.6936 151.971 86.1514C146.333 88.4584 140.582 90.404 140.582 90.404C140.582 90.404 140.5 90.7687 139.508 89.9035C138.516 89.0384 138.217 84.5128 138.217 84.5128Z" fill="#2F2E41"/>
<path d="M92.3744 84.5128C91.8003 84.8234 91.1676 85.0463 90.4952 85.1749C89.4082 85.3759 88.528 84.0179 88.528 84.0179C88.528 84.0179 87.9729 81.9312 87.3059 82.0677C86.6388 82.2041 83.2054 82.7997 83.2054 82.7997C83.2054 82.7997 74.7237 81.6936 78.6205 86.1514C84.2588 88.4584 90.0099 90.404 90.0099 90.404C90.0099 90.404 90.0918 90.7687 91.0839 89.9035C92.0761 89.0384 92.3744 84.5128 92.3744 84.5128Z" fill="#2F2E41"/>
<path d="M92.3744 84.5128C91.8003 84.8234 91.1676 85.0463 90.4952 85.1749C89.4082 85.3759 88.528 84.0179 88.528 84.0179C88.528 84.0179 87.9729 81.9312 87.3059 82.0677C86.6388 82.2041 83.2054 82.7997 83.2054 82.7997C83.2054 82.7997 74.7237 81.6936 78.6205 86.1514C84.2588 88.4584 90.0099 90.404 90.0099 90.404C90.0099 90.404 90.0918 90.7687 91.0839 89.9035C92.0761 89.0384 92.3744 84.5128 92.3744 84.5128Z" fill="#2F2E41"/>
<path d="M123.847 8.83884C123.054 13.371 123.966 10.2801 117.389 10.2801C110.932 10.2801 111.008 11.5575 111.008 8.83843C111.348 7.70541 113.538 4.72319 117.503 6.78112C122.51 5.18818 123.508 8.38563 123.847 8.83884Z" fill="#2F2E41"/>
<path d="M123.723 11.2481C123.708 11.7493 120.644 10.6433 117.322 10.5507C113.999 10.4581 110.996 11.7844 111.011 11.2832C111.026 10.782 113.148 8.94966 117.375 8.7356C120.698 8.82816 123.738 10.7469 123.723 11.2481Z" fill="#24233D"/>
<path d="M117.157 7.61405C117.132 7.80392 117.137 7.99441 117.173 8.16691C117.209 8.3394 117.071 8.58003 117.159 8.6902C117.077 8.78223 116.997 8.238 117.114 8.25713C117.232 8.27625 117.057 8.2438 117.173 8.16691C117.087 8.25264 117.281 8.8199 117.281 8.8199C117.147 8.8199 117.147 8.6902 117.281 8.8199C117.183 8.8199 117.238 8.81486 117.147 8.8199C117.078 8.72743 117.108 8.46319 117.072 8.32951C117.037 8.19582 117.021 8.04817 117.026 7.89598C117.03 7.74379 117.054 7.59039 117.097 7.44556C117.14 7.30073 117.201 7.16765 117.275 7.05479C117.35 6.94192 117.436 6.85176 117.529 6.79005C117.435 6.88245 117.353 7.00453 117.289 7.1472C117.224 7.28987 117.18 7.44945 117.157 7.61405Z" fill="#24233D"/>
<path d="M125.227 14.5344C125.065 14.5941 124.895 14.6247 124.733 14.6234C124.572 14.622 124.392 14.797 124.273 14.7349C124.212 14.8295 124.714 14.8023 124.668 14.6957C124.622 14.5892 124.694 14.7467 124.733 14.6234C124.679 14.721 124.128 14.6456 124.128 14.6456C124.161 14.7711 124.276 14.7467 124.128 14.6456C124.152 14.7371 124.143 14.6848 124.161 14.7711C124.26 14.818 124.487 14.7408 124.614 14.7486C124.741 14.7565 124.876 14.7436 125.01 14.711C125.144 14.6783 125.273 14.6266 125.391 14.559C125.509 14.4914 125.612 14.4095 125.694 14.3186C125.775 14.2276 125.834 14.1295 125.866 14.0305C125.807 14.1359 125.719 14.236 125.608 14.3232C125.498 14.4105 125.368 14.4827 125.227 14.5344Z" fill="#24233D"/>
<path d="M109.184 14.2077C109.306 14.2525 109.436 14.2686 109.563 14.2542C109.689 14.2399 109.814 14.3949 109.913 14.3252C109.953 14.4119 109.563 14.426 109.608 14.3191C109.653 14.2121 109.583 14.3705 109.563 14.2542C109.597 14.3443 110.034 14.2271 110.034 14.2271C109.997 14.3513 109.91 14.3369 110.034 14.2271C110.007 14.3176 110.019 14.2663 109.997 14.3513C109.916 14.4047 109.745 14.3482 109.645 14.366C109.545 14.3837 109.441 14.3821 109.339 14.3613C109.237 14.3404 109.14 14.3007 109.054 14.2448C108.968 14.1888 108.894 14.1178 108.838 14.0362C108.782 13.9547 108.744 13.8644 108.728 13.7711C108.765 13.8685 108.825 13.9583 108.904 14.0339C108.983 14.1095 109.079 14.1689 109.184 14.2077Z" fill="#24233D"/>
<path d="M111.576 9.17624C111.683 9.33727 111.814 9.47933 111.956 9.58854C112.099 9.69775 112.153 9.96807 112.294 9.99698C112.292 10.1188 111.869 9.75331 111.971 9.6944C112.074 9.6355 111.919 9.71992 111.956 9.58854C111.947 9.70836 112.473 10.0202 112.473 10.0202C112.371 10.1039 112.284 10.0048 112.473 10.0202C112.398 10.0812 112.437 10.0431 112.371 10.1039C112.257 10.0762 112.103 9.85604 111.987 9.77591C111.872 9.69578 111.761 9.59297 111.663 9.47403C111.565 9.3551 111.482 9.22264 111.418 9.08511C111.355 8.94758 111.312 8.80798 111.294 8.67523C111.276 8.54247 111.282 8.41946 111.312 8.31404C111.302 8.44337 111.32 8.58807 111.366 8.73735C111.412 8.88663 111.483 9.03665 111.576 9.17624Z" fill="#24233D"/>
<path d="M123.465 9.67956C123.348 9.83418 123.209 9.96848 123.06 10.0693C122.912 10.1702 122.841 10.4369 122.698 10.4577C122.693 10.5794 123.138 10.2388 123.039 10.1741C122.94 10.1095 123.09 10.2026 123.06 10.0693C123.062 10.1895 122.518 10.4706 122.518 10.4706C122.615 10.56 122.707 10.4661 122.518 10.4706C122.589 10.5358 122.553 10.4955 122.615 10.56C122.731 10.5389 122.897 10.3279 123.018 10.2546C123.138 10.1812 123.255 10.0849 123.36 9.97184C123.465 9.85873 123.556 9.7313 123.628 9.59765C123.7 9.46401 123.751 9.32709 123.777 9.19561C123.803 9.06414 123.805 8.941 123.781 8.83403C123.784 8.96373 123.756 9.10711 123.702 9.25351C123.647 9.3999 123.566 9.54553 123.465 9.67956Z" fill="#24233D"/>
<path d="M223.008 179.255C223.008 179.255 220.044 179.166 219.154 178.549C218.263 177.932 214.606 177.195 214.374 178.186C214.141 179.177 209.92 183.115 213.266 183.13C216.613 183.146 221.04 182.611 221.93 182.093C222.821 181.574 223.008 179.255 223.008 179.255Z" fill="#656380"/>
</svg>
