<svg width="24" height="24" viewBox="0 0 24 24" fill="none" xmlns="http://www.w3.org/2000/svg">
<path d="M12 0C5.40472 0 0 5.40472 0 12C0 14.1797 0.590515 16.2891 1.7016 18.1454L0 24L5.85461 22.2984C7.71094 23.4093 9.82031 24 12 24C18.5953 24 24 18.5953 24 12C24 5.40472 18.5953 0 12 0Z" fill="#00DD7B"/>
<path d="M24 12C24 18.5953 18.5953 24 12 24V0C18.5953 0 24 5.40472 24 12Z" fill="#00CC71"/>
<path d="M19.5564 17.0766L18.9939 17.625C18.2064 18.4126 16.3783 18.3562 15.2112 18.1313C14.1706 17.9345 13.0549 17.4703 12.0002 16.8234C9.13152 15.0797 6.52996 11.9859 5.89715 9.20161C5.46117 7.31709 5.70031 5.68599 6.31902 5.05318L6.88152 4.49068C7.19097 4.19533 7.68297 4.19533 7.99242 4.49068L10.2283 6.72658C10.383 6.8813 10.4675 7.07814 10.4675 7.28908C10.4675 7.50002 10.383 7.69685 10.2283 7.85158L9.66582 8.39998C9.06121 9.01869 9.06121 10.0172 9.66582 10.6359L12.0002 12.9282L13.3642 14.2782C13.9831 14.8969 15.0284 14.8969 15.6471 14.2782L16.1955 13.7155C16.4909 13.4343 17.0252 13.4343 17.3205 13.7155L19.5564 15.9516C19.8518 16.2609 19.8659 16.7531 19.5564 17.0766Z" fill="#ECECF1"/>
<path d="M19.5562 17.0766L18.9937 17.625C18.2062 18.4125 16.378 18.3561 15.2109 18.1313C14.1703 17.9344 13.0547 17.4703 12 16.8234V12.9282L13.3639 14.2782C13.9828 14.8969 15.0282 14.8969 15.6469 14.2782L16.1953 13.7155C16.4907 13.4343 17.025 13.4343 17.3203 13.7155L19.5562 15.9516C19.8515 16.2609 19.8656 16.7531 19.5562 17.0766Z" fill="#E2E2E7"/>
</svg>
